LakkiReddy.ufo
<glyph name="exclam" format="1">
  <advance width="160"/>
  <unicode hex="0021"/>
  <outline>
    <contour>
      <point x="70" y="119" type="line" name="hr00"/>
      <point x="62" y="152"/>
      <point x="40" y="212"/>
      <point x="18" y="273"/>
      <point x="3" y="341"/>
      <point x="3" y="381" type="qcurve"/>
      <point x="3" y="393"/>
      <point x="3" y="425"/>
      <point x="15" y="454"/>
      <point x="46" y="474"/>
      <point x="77" y="474" type="qcurve"/>
      <point x="113" y="474"/>
      <point x="146" y="453"/>
      <point x="159" y="422"/>
      <point x="158" y="391"/>
      <point x="158" y="382" type="qcurve"/>
      <point x="158" y="345"/>
      <point x="142" y="279"/>
      <point x="121" y="216"/>
      <point x="95" y="153"/>
      <point x="86" y="119" type="qcurve"/>
    </contour>
    <contour>
      <point x="73" y="0" type="qcurve"/>
      <point x="41" y="0"/>
      <point x="20" y="27"/>
      <point x="28" y="59"/>
      <point x="58" y="87"/>
      <point x="77" y="88" type="qcurve"/>
      <point x="93" y="87"/>
      <point x="122" y="59"/>
      <point x="130" y="27"/>
      <point x="108" y="0"/>
    </contour>
  </outline>
</glyph>
<glyph name="parenleft" format="1">
  <advance width="401"/>
  <unicode hex="0028"/>
  <outline>
    <contour>
      <point x="317" y="604" type="qcurve" name="hr00"/>
      <point x="331" y="605"/>
      <point x="343" y="586"/>
      <point x="341" y="564"/>
      <point x="324" y="548"/>
      <point x="306" y="551" type="qcurve"/>
      <point x="291" y="550"/>
      <point x="236" y="513"/>
      <point x="182" y="450"/>
      <point x="142" y="365"/>
      <point x="142" y="315" type="qcurve"/>
      <point x="142" y="275"/>
      <point x="183" y="198"/>
      <point x="238" y="136"/>
      <point x="293" y="97"/>
      <point x="308" y="97" type="qcurve"/>
      <point x="310" y="111"/>
      <point x="327" y="120"/>
      <point x="343" y="118"/>
      <point x="353" y="104"/>
      <point x="350" y="95" type="qcurve"/>
      <point x="345" y="84"/>
      <point x="321" y="66"/>
      <point x="294" y="44"/>
      <point x="270" y="16"/>
      <point x="266" y="-3" type="qcurve"/>
      <point x="248" y="13"/>
      <point x="177" y="73"/>
      <point x="108" y="153"/>
      <point x="56" y="252"/>
      <point x="56" y="308" type="qcurve"/>
      <point x="56" y="358"/>
      <point x="110" y="463"/>
      <point x="188" y="548"/>
      <point x="280" y="602"/>
    </contour>
  </outline>
</glyph>
<glyph name="parenright" format="1">
  <advance width="422"/>
  <unicode hex="0029"/>
  <outline>
    <contour>
      <point x="97" y="604" type="qcurve" name="hr00"/>
      <point x="135" y="602"/>
      <point x="226" y="548"/>
      <point x="305" y="463"/>
      <point x="358" y="358"/>
      <point x="358" y="308" type="qcurve"/>
      <point x="358" y="252"/>
      <point x="307" y="153"/>
      <point x="238" y="73"/>
      <point x="167" y="13"/>
      <point x="148" y="-3" type="qcurve"/>
      <point x="143" y="16"/>
      <point x="121" y="44"/>
      <point x="94" y="66"/>
      <point x="70" y="84"/>
      <point x="65" y="95" type="qcurve"/>
      <point x="61" y="104"/>
      <point x="72" y="118"/>
      <point x="88" y="120"/>
      <point x="104" y="111"/>
      <point x="106" y="97" type="qcurve"/>
      <point x="122" y="97"/>
      <point x="177" y="136"/>
      <point x="231" y="198"/>
      <point x="272" y="275"/>
      <point x="272" y="315" type="qcurve"/>
      <point x="272" y="365"/>
      <point x="232" y="450"/>
      <point x="179" y="513"/>
      <point x="124" y="550"/>
      <point x="109" y="551" type="qcurve"/>
      <point x="91" y="548"/>
      <point x="74" y="564"/>
      <point x="72" y="586"/>
      <point x="84" y="605"/>
    </contour>
  </outline>
</glyph>
<glyph name="one" format="1">
  <advance width="397"/>
  <unicode hex="0031"/>
  <outline>
    <contour>
      <point x="308" y="29" type="qcurve"/>
      <point x="296" y="5"/>
      <point x="243" y="0"/>
      <point x="175" y="11"/>
      <point x="102" y="29"/>
      <point x="72" y="29" type="qcurve"/>
      <point x="54" y="29"/>
      <point x="14" y="12"/>
      <point x="2" y="-1" type="qcurve"/>
      <point x="-5" y="-8"/>
      <point x="7" y="25"/>
      <point x="32" y="90"/>
      <point x="61" y="179"/>
      <point x="79" y="276"/>
      <point x="77" y="374"/>
      <point x="58" y="414" type="qcurve"/>
      <point x="62" y="404"/>
      <point x="45" y="388"/>
      <point x="22" y="387"/>
      <point x="0" y="404"/>
      <point x="0" y="429" type="qcurve"/>
      <point x="0" y="453"/>
      <point x="31" y="472"/>
      <point x="77" y="476"/>
      <point x="132" y="472"/>
      <point x="182" y="473"/>
      <point x="221" y="487"/>
      <point x="227" y="507" type="qcurve"/>
      <point x="210" y="466"/>
      <point x="186" y="339"/>
      <point x="186" y="206"/>
      <point x="214" y="87"/>
      <point x="249" y="53" type="qcurve"/>
      <point x="249" y="77"/>
      <point x="276" y="91"/>
      <point x="304" y="81"/>
      <point x="319" y="50"/>
    </contour>
  </outline>
</glyph>
<glyph name="two" format="1">
  <advance width="566"/>
  <unicode hex="0032"/>
  <outline>
    <contour>
      <point x="484" y="160" type="qcurve"/>
      <point x="484" y="133"/>
      <point x="459" y="110"/>
      <point x="422" y="85"/>
      <point x="383" y="45"/>
      <point x="370" y="2" type="qcurve"/>
      <point x="314" y="20"/>
      <point x="212" y="28"/>
      <point x="131" y="19"/>
      <point x="79" y="4"/>
      <point x="74" y="0" type="qcurve"/>
      <point x="61" y="0"/>
      <point x="35" y="17"/>
      <point x="13" y="41"/>
      <point x="0" y="67"/>
      <point x="1" y="75" type="qcurve"/>
      <point x="15" y="86"/>
      <point x="71" y="118"/>
      <point x="136" y="156"/>
      <point x="204" y="199"/>
      <point x="259" y="244"/>
      <point x="295" y="289"/>
      <point x="295" y="309" type="qcurve" name="hr01"/>
      <point x="295" y="335"/>
      <point x="245" y="358"/>
      <point x="178" y="356"/>
      <point x="114" y="333"/>
      <point x="98" y="312" type="qcurve"/>
      <point x="109" y="302"/>
      <point x="123" y="282"/>
      <point x="125" y="265"/>
      <point x="111" y="255"/>
      <point x="91" y="255" type="qcurve"/>
      <point x="74" y="255"/>
      <point x="49" y="292"/>
      <point x="29" y="341"/>
      <point x="7" y="390"/>
      <point x="-7" y="402" type="qcurve"/>
      <point x="22" y="414"/>
      <point x="63" y="439"/>
      <point x="100" y="461"/>
      <point x="139" y="475"/>
      <point x="166" y="475" type="qcurve"/>
      <point x="219" y="475"/>
      <point x="303" y="435"/>
      <point x="356" y="373"/>
      <point x="374" y="294"/>
      <point x="344" y="215"/>
      <point x="264" y="144"/>
      <point x="195" y="121" type="qcurve"/>
      <point x="267" y="116"/>
      <point x="353" y="118"/>
      <point x="401" y="127"/>
      <point x="423" y="143"/>
      <point x="432" y="154" type="qcurve"/>
      <point x="423" y="153"/>
      <point x="411" y="168"/>
      <point x="411" y="187"/>
      <point x="427" y="204"/>
      <point x="446" y="204" type="qcurve"/>
      <point x="467" y="204"/>
      <point x="484" y="179"/>
    </contour>
  </outline>
</glyph>
<glyph name="three" format="1">
  <advance width="460"/>
  <unicode hex="0033"/>
  <outline>
    <contour>
      <point x="377" y="97" type="qcurve"/>
      <point x="373" y="59"/>
      <point x="331" y="19"/>
      <point x="268" y="2"/>
      <point x="194" y="-1"/>
      <point x="119" y="0"/>
      <point x="50" y="-2"/>
      <point x="27" y="-11" type="qcurve"/>
      <point x="34" y="23"/>
      <point x="27" y="75"/>
      <point x="11" y="118"/>
      <point x="-2" y="156"/>
      <point x="0" y="175" type="qcurve"/>
      <point x="2" y="191"/>
      <point x="30" y="199"/>
      <point x="53" y="187"/>
      <point x="59" y="162"/>
      <point x="41" y="146" type="qcurve"/>
      <point x="47" y="135"/>
      <point x="76" y="125"/>
      <point x="93" y="122" type="qcurve"/>
      <point x="110" y="119"/>
      <point x="165" y="110"/>
      <point x="220" y="113"/>
      <point x="262" y="138"/>
      <point x="266" y="169" type="qcurve"/>
      <point x="268" y="187"/>
      <point x="248" y="209"/>
      <point x="219" y="216"/>
      <point x="187" y="209"/>
      <point x="178" y="200" type="qcurve"/>
      <point x="169" y="202"/>
      <point x="157" y="219"/>
      <point x="151" y="242"/>
      <point x="150" y="265"/>
      <point x="151" y="273" type="qcurve"/>
      <point x="194" y="263"/>
      <point x="250" y="283"/>
      <point x="264" y="314"/>
      <point x="231" y="349"/>
      <point x="185" y="354" type="qcurve"/>
      <point x="171" y="356"/>
      <point x="136" y="354"/>
      <point x="103" y="349"/>
      <point x="78" y="343"/>
      <point x="74" y="340" type="qcurve"/>
      <point x="86" y="333"/>
      <point x="90" y="316"/>
      <point x="82" y="303"/>
      <point x="63" y="297"/>
      <point x="52" y="301" type="qcurve"/>
      <point x="44" y="304"/>
      <point x="31" y="345"/>
      <point x="18" y="394"/>
      <point x="5" y="438"/>
      <point x="-4" y="443" type="qcurve"/>
      <point x="20" y="440"/>
      <point x="77" y="450"/>
      <point x="135" y="463"/>
      <point x="193" y="475"/>
      <point x="220" y="474" type="qcurve"/>
      <point x="236" y="474"/>
      <point x="283" y="454"/>
      <point x="327" y="418"/>
      <point x="361" y="372"/>
      <point x="370" y="321"/>
      <point x="344" y="269"/>
      <point x="305" y="246" type="qcurve"/>
      <point x="330" y="234"/>
      <point x="359" y="202"/>
      <point x="376" y="162"/>
      <point x="380" y="119"/>
    </contour>
  </outline>
</glyph>
<glyph name="four" format="1">
  <advance width="545"/>
  <unicode hex="0034"/>
  <outline>
    <contour>
      <point x="421" y="69" type="qcurve"/>
      <point x="417" y="70"/>
      <point x="397" y="75"/>
      <point x="374" y="80"/>
      <point x="349" y="85"/>
      <point x="340" y="87" type="qcurve"/>
      <point x="340" y="81"/>
      <point x="353" y="59"/>
      <point x="371" y="37"/>
      <point x="389" y="18"/>
      <point x="395" y="15" type="qcurve"/>
      <point x="395" y="6"/>
      <point x="394" y="-1"/>
      <point x="386" y="0" type="qcurve"/>
      <point x="360" y="3"/>
      <point x="328" y="9"/>
      <point x="294" y="11"/>
      <point x="251" y="7"/>
      <point x="215" y="0" type="qcurve"/>
      <point x="203" y="-2"/>
      <point x="185" y="10"/>
      <point x="183" y="27"/>
      <point x="200" y="38"/>
      <point x="221" y="34" type="qcurve"/>
      <point x="228" y="32"/>
      <point x="241" y="45"/>
      <point x="248" y="65"/>
      <point x="252" y="85"/>
      <point x="252" y="91" type="qcurve" name="hr01"/>
      <point x="178" y="99"/>
      <point x="53" y="89"/>
      <point x="1" y="78" type="qcurve"/>
      <point x="0" y="93"/>
      <point x="2" y="139"/>
      <point x="-4" y="186"/>
      <point x="-22" y="229"/>
      <point x="-43" y="241" type="qcurve"/>
      <point x="-6" y="257"/>
      <point x="40" y="296"/>
      <point x="73" y="344"/>
      <point x="99" y="401"/>
      <point x="118" y="435" type="qcurve"/>
      <point x="115" y="434"/>
      <point x="97" y="432"/>
      <point x="81" y="434"/>
      <point x="71" y="442"/>
      <point x="73" y="452" type="qcurve"/>
      <point x="77" y="466"/>
      <point x="104" y="475"/>
      <point x="144" y="475"/>
      <point x="190" y="472"/>
      <point x="212" y="474" type="qcurve"/>
      <point x="202" y="455"/>
      <point x="179" y="383"/>
      <point x="146" y="302"/>
      <point x="102" y="222"/>
      <point x="71" y="195" type="qcurve"/>
      <point x="267" y="195" type="line"/>
      <point x="269" y="211"/>
      <point x="274" y="250"/>
      <point x="289" y="284"/>
      <point x="314" y="307"/>
      <point x="338" y="307" type="qcurve"/>
      <point x="380" y="307"/>
      <point x="432" y="273"/>
      <point x="459" y="222"/>
      <point x="465" y="162"/>
      <point x="455" y="109"/>
      <point x="434" y="72"/>
    </contour>
    <contour>
      <point x="397" y="227" type="qcurve"/>
      <point x="397" y="230"/>
      <point x="392" y="242"/>
      <point x="384" y="253"/>
      <point x="374" y="261"/>
      <point x="370" y="261" type="qcurve"/>
      <point x="362" y="261"/>
      <point x="343" y="246"/>
      <point x="329" y="224"/>
      <point x="324" y="201"/>
      <point x="331" y="194" type="qcurve"/>
      <point x="341" y="194"/>
      <point x="365" y="190"/>
      <point x="384" y="195"/>
      <point x="397" y="210"/>
    </contour>
  </outline>
</glyph>
<glyph name="five" format="1">
  <advance width="523"/>
  <unicode hex="0035"/>
  <outline>
    <contour>
      <point x="447" y="481" type="qcurve" name="hr00"/>
      <point x="429" y="476"/>
      <point x="427" y="428"/>
      <point x="431" y="373"/>
      <point x="427" y="329"/>
      <point x="409" y="329" type="qcurve"/>
      <point x="398" y="329"/>
      <point x="388" y="336"/>
      <point x="385" y="345"/>
      <point x="387" y="354"/>
      <point x="389" y="356" type="qcurve"/>
      <point x="384" y="364"/>
      <point x="342" y="374"/>
      <point x="285" y="380"/>
      <point x="219" y="381"/>
      <point x="163" y="378"/>
      <point x="124" y="371"/>
      <point x="121" y="365" type="qcurve"/>
      <point x="117" y="356"/>
      <point x="105" y="334"/>
      <point x="94" y="309"/>
      <point x="84" y="285"/>
      <point x="82" y="276" type="qcurve"/>
      <point x="86" y="279"/>
      <point x="145" y="291"/>
      <point x="228" y="298"/>
      <point x="321" y="293"/>
      <point x="397" y="263"/>
      <point x="443" y="201"/>
      <point x="439" y="146" type="qcurve"/>
      <point x="436" y="108"/>
      <point x="388" y="53"/>
      <point x="318" y="18"/>
      <point x="237" y="-2"/>
      <point x="162" y="-13"/>
      <point x="104" y="-20"/>
      <point x="94" y="-25" type="qcurve"/>
      <point x="97" y="-8"/>
      <point x="69" y="31"/>
      <point x="32" y="72"/>
      <point x="0" y="111"/>
      <point x="0" y="128" type="qcurve"/>
      <point x="0" y="141"/>
      <point x="18" y="154"/>
      <point x="39" y="151"/>
      <point x="52" y="132"/>
      <point x="47" y="116" type="qcurve"/>
      <point x="63" y="101"/>
      <point x="123" y="89"/>
      <point x="191" y="90"/>
      <point x="263" y="103"/>
      <point x="317" y="125"/>
      <point x="348" y="157"/>
      <point x="343" y="175" type="qcurve"/>
      <point x="336" y="199"/>
      <point x="289" y="222"/>
      <point x="224" y="229"/>
      <point x="153" y="223"/>
      <point x="92" y="211"/>
      <point x="50" y="196"/>
      <point x="48" y="189" type="qcurve"/>
      <point x="43" y="189"/>
      <point x="27" y="208"/>
      <point x="12" y="231"/>
      <point x="1" y="253"/>
      <point x="0" y="255" type="qcurve"/>
      <point x="15" y="267"/>
      <point x="49" y="322"/>
      <point x="76" y="386"/>
      <point x="87" y="451"/>
      <point x="80" y="474" type="qcurve"/>
      <point x="148" y="463"/>
      <point x="252" y="460"/>
      <point x="336" y="466"/>
      <point x="410" y="477"/>
    </contour>
  </outline>
</glyph>
<glyph name="six" format="1">
  <advance width="569"/>
  <unicode hex="0036"/>
  <outline>
    <contour>
      <point x="488" y="143" type="qcurve"/>
      <point x="488" y="128"/>
      <point x="458" y="95"/>
      <point x="411" y="65"/>
      <point x="353" y="37"/>
      <point x="299" y="15"/>
      <point x="256" y="1"/>
      <point x="247" y="0" type="qcurve"/>
      <point x="231" y="4"/>
      <point x="184" y="27"/>
      <point x="129" y="59"/>
      <point x="74" y="101"/>
      <point x="29" y="148"/>
      <point x="0" y="198"/>
      <point x="0" y="222" type="qcurve"/>
      <point x="0" y="238"/>
      <point x="32" y="287"/>
      <point x="80" y="342"/>
      <point x="140" y="399"/>
      <point x="199" y="445"/>
      <point x="247" y="474"/>
      <point x="260" y="474" type="qcurve"/>
      <point x="279" y="474"/>
      <point x="326" y="463"/>
      <point x="374" y="439"/>
      <point x="419" y="406"/>
      <point x="435" y="383" type="qcurve"/>
      <point x="412" y="387"/>
      <point x="383" y="378"/>
      <point x="364" y="360"/>
      <point x="351" y="339"/>
      <point x="339" y="324"/>
      <point x="325" y="317"/>
      <point x="312" y="324" type="qcurve"/>
      <point x="301" y="330"/>
      <point x="300" y="353"/>
      <point x="314" y="354" type="qcurve"/>
      <point x="279" y="377"/>
      <point x="198" y="366"/>
      <point x="136" y="324"/>
      <point x="109" y="265"/>
      <point x="125" y="241" type="qcurve"/>
      <point x="145" y="260"/>
      <point x="184" y="283"/>
      <point x="221" y="293"/>
      <point x="256" y="295"/>
      <point x="273" y="295" type="qcurve"/>
      <point x="283" y="294"/>
      <point x="323" y="280"/>
      <point x="371" y="256"/>
      <point x="421" y="226"/>
      <point x="462" y="194"/>
      <point x="488" y="160"/>
    </contour>
    <contour>
      <point x="229" y="249" type="qcurve" name="hr01"/>
      <point x="193" y="249"/>
      <point x="164" y="227"/>
      <point x="166" y="197"/>
      <point x="193" y="159"/>
      <point x="230" y="128"/>
      <point x="270" y="106"/>
      <point x="285" y="106" type="qcurve"/>
      <point x="315" y="106"/>
      <point x="340" y="128"/>
      <point x="338" y="159"/>
      <point x="315" y="197"/>
      <point x="282" y="227"/>
      <point x="245" y="249"/>
    </contour>
  </outline>
</glyph>
<glyph name="seven" format="1">
  <advance width="517"/>
  <unicode hex="0037"/>
  <outline>
    <contour>
      <point x="434" y="387" type="line" name="hr00"/>
      <point x="399" y="371"/>
      <point x="345" y="314"/>
      <point x="306" y="247"/>
      <point x="287" y="174"/>
      <point x="289" y="109"/>
      <point x="313" y="56"/>
      <point x="340" y="42" type="qcurve"/>
      <point x="339" y="60"/>
      <point x="359" y="75"/>
      <point x="383" y="72"/>
      <point x="402" y="54"/>
      <point x="401" y="42" type="qcurve"/>
      <point x="399" y="16"/>
      <point x="368" y="0"/>
      <point x="319" y="1"/>
      <point x="259" y="12"/>
      <point x="199" y="19"/>
      <point x="142" y="15"/>
      <point x="123" y="0" type="qcurve"/>
      <point x="105" y="68"/>
      <point x="113" y="169"/>
      <point x="161" y="255"/>
      <point x="246" y="334"/>
      <point x="305" y="378" type="qcurve"/>
      <point x="291" y="373"/>
      <point x="247" y="372"/>
      <point x="196" y="374"/>
      <point x="143" y="377"/>
      <point x="97" y="375"/>
      <point x="63" y="365"/>
      <point x="58" y="353" type="qcurve"/>
      <point x="63" y="349"/>
      <point x="66" y="336"/>
      <point x="59" y="323"/>
      <point x="46" y="312"/>
      <point x="37" y="312" type="qcurve"/>
      <point x="18" y="312"/>
      <point x="-4" y="333"/>
      <point x="1" y="356" type="qcurve"/>
      <point x="5" y="374"/>
      <point x="17" y="403"/>
      <point x="28" y="432"/>
      <point x="36" y="460"/>
      <point x="35" y="474" type="qcurve"/>
      <point x="69" y="472"/>
      <point x="155" y="465"/>
      <point x="256" y="462"/>
      <point x="372" y="466"/>
      <point x="435" y="474" type="qcurve"/>
    </contour>
  </outline>
</glyph>
<glyph name="eight" format="1">
  <advance width="566"/>
  <unicode hex="0038"/>
  <outline>
    <contour>
      <point x="484" y="168" type="qcurve"/>
      <point x="484" y="147"/>
      <point x="459" y="106"/>
      <point x="417" y="69"/>
      <point x="364" y="37"/>
      <point x="310" y="13"/>
      <point x="261" y="0"/>
      <point x="244" y="0" type="qcurve"/>
      <point x="217" y="0"/>
      <point x="134" y="25"/>
      <point x="56" y="70"/>
      <point x="0" y="131"/>
      <point x="0" y="167" type="qcurve"/>
      <point x="0" y="197"/>
      <point x="40" y="253"/>
      <point x="82" y="270" type="qcurve"/>
      <point x="46" y="285"/>
      <point x="20" y="318"/>
      <point x="20" y="342" type="qcurve"/>
      <point x="20" y="364"/>
      <point x="65" y="411"/>
      <point x="129" y="450"/>
      <point x="201" y="474"/>
      <point x="227" y="474" type="qcurve" name="hr01"/>
      <point x="253" y="474"/>
      <point x="327" y="456"/>
      <point x="395" y="423"/>
      <point x="444" y="377"/>
      <point x="444" y="349" type="qcurve"/>
      <point x="444" y="323"/>
      <point x="403" y="285"/>
      <point x="377" y="267" type="qcurve"/>
      <point x="387" y="264"/>
      <point x="423" y="251"/>
      <point x="458" y="227"/>
      <point x="484" y="193"/>
    </contour>
    <contour>
      <point x="222" y="422" type="qcurve"/>
      <point x="195" y="422"/>
      <point x="151" y="392"/>
      <point x="133" y="353"/>
      <point x="148" y="314"/>
      <point x="179" y="305" type="qcurve"/>
      <point x="189" y="315"/>
      <point x="220" y="324"/>
      <point x="249" y="321"/>
      <point x="269" y="308"/>
      <point x="270" y="299" type="qcurve"/>
      <point x="316" y="308"/>
      <point x="341" y="348"/>
      <point x="318" y="390"/>
      <point x="259" y="422"/>
    </contour>
    <contour>
      <point x="272" y="265" type="qcurve"/>
      <point x="276" y="259"/>
      <point x="272" y="247"/>
      <point x="259" y="237"/>
      <point x="240" y="230"/>
      <point x="229" y="230" type="qcurve"/>
      <point x="220" y="230"/>
      <point x="202" y="239"/>
      <point x="187" y="250"/>
      <point x="182" y="262"/>
      <point x="187" y="267" type="qcurve"/>
      <point x="137" y="258"/>
      <point x="111" y="210"/>
      <point x="135" y="160"/>
      <point x="199" y="121"/>
      <point x="239" y="121" type="qcurve"/>
      <point x="298" y="121"/>
      <point x="357" y="159"/>
      <point x="362" y="208"/>
      <point x="317" y="255"/>
    </contour>
  </outline>
</glyph>
<glyph name="nine" format="1">
  <advance width="578"/>
  <unicode hex="0039"/>
  <outline>
    <contour>
      <point x="497" y="202" type="qcurve" name="hr00"/>
      <point x="497" y="171"/>
      <point x="459" y="118"/>
      <point x="399" y="73"/>
      <point x="329" y="38"/>
      <point x="263" y="13"/>
      <point x="213" y="1"/>
      <point x="204" y="1" type="qcurve"/>
      <point x="162" y="2"/>
      <point x="99" y="34"/>
      <point x="53" y="73"/>
      <point x="17" y="108"/>
      <point x="1" y="113" type="qcurve"/>
      <point x="22" y="117"/>
      <point x="53" y="127"/>
      <point x="81" y="140"/>
      <point x="111" y="158"/>
      <point x="130" y="169" type="qcurve"/>
      <point x="146" y="172"/>
      <point x="164" y="161"/>
      <point x="166" y="144"/>
      <point x="153" y="130"/>
      <point x="137" y="131" type="qcurve"/>
      <point x="164" y="102"/>
      <point x="223" y="86"/>
      <point x="279" y="97"/>
      <point x="325" y="129"/>
      <point x="350" y="169"/>
      <point x="351" y="210"/>
      <point x="335" y="224" type="qcurve"/>
      <point x="315" y="202"/>
      <point x="251" y="182"/>
      <point x="176" y="184"/>
      <point x="99" y="204"/>
      <point x="38" y="239"/>
      <point x="-1" y="287"/>
      <point x="-1" y="314" type="qcurve"/>
      <point x="-1" y="344"/>
      <point x="50" y="401"/>
      <point x="123" y="446"/>
      <point x="204" y="474"/>
      <point x="234" y="474" type="qcurve"/>
      <point x="256" y="474"/>
      <point x="312" y="445"/>
      <point x="371" y="398"/>
      <point x="426" y="339"/>
      <point x="470" y="279"/>
      <point x="497" y="222"/>
    </contour>
    <contour>
      <point x="315" y="286" type="qcurve"/>
      <point x="297" y="312"/>
      <point x="236" y="361"/>
      <point x="175" y="390"/>
      <point x="128" y="390"/>
      <point x="123" y="367" type="qcurve"/>
      <point x="117" y="336"/>
      <point x="158" y="289"/>
      <point x="222" y="265"/>
      <point x="293" y="267"/>
    </contour>
  </outline>
</glyph>
<glyph name="U0C01" format="1">
  <advance width="360"/>
  <unicode hex="0C01"/>
  <outline>
    <contour>
      <point x="198" y="414" type="qcurve" name="hr00"/>
      <point x="220" y="417"/>
      <point x="241" y="401"/>
      <point x="243" y="383"/>
      <point x="225" y="371"/>
      <point x="210" y="378" type="qcurve"/>
      <point x="200" y="377"/>
      <point x="162" y="352"/>
      <point x="125" y="309"/>
      <point x="98" y="251"/>
      <point x="98" y="217" type="qcurve"/>
      <point x="98" y="190"/>
      <point x="126" y="137"/>
      <point x="164" y="95"/>
      <point x="202" y="69"/>
      <point x="212" y="69" type="qcurve"/>
      <point x="213" y="78"/>
      <point x="224" y="85"/>
      <point x="234" y="83"/>
      <point x="242" y="74"/>
      <point x="240" y="68" type="qcurve"/>
      <point x="237" y="60"/>
      <point x="214" y="48"/>
      <point x="188" y="33"/>
      <point x="166" y="14"/>
      <point x="163" y="1" type="qcurve"/>
      <point x="150" y="11"/>
      <point x="101" y="52"/>
      <point x="54" y="106"/>
      <point x="19" y="174"/>
      <point x="19" y="213" type="qcurve"/>
      <point x="19" y="247"/>
      <point x="56" y="315"/>
      <point x="111" y="372"/>
      <point x="172" y="410"/>
    </contour>
  </outline>
</glyph>
<glyph name="U0C02" format="1">
  <advance width="678"/>
  <unicode hex="0C02"/>
  <outline>
    <contour>
      <point x="596" y="240" type="qcurve" name="hr00"/>
      <point x="596" y="208"/>
      <point x="560" y="148"/>
      <point x="504" y="95"/>
      <point x="435" y="50"/>
      <point x="367" y="18"/>
      <point x="308" y="0"/>
      <point x="291" y="0" type="qcurve"/>
      <point x="280" y="0"/>
      <point x="227" y="18"/>
      <point x="163" y="49"/>
      <point x="93" y="91"/>
      <point x="37" y="139"/>
      <point x="0" y="190"/>
      <point x="0" y="216" type="qcurve"/>
      <point x="0" y="246"/>
      <point x="33" y="308"/>
      <point x="84" y="365"/>
      <point x="146" y="415"/>
      <point x="208" y="452"/>
      <point x="260" y="473"/>
      <point x="274" y="473" type="qcurve"/>
      <point x="305" y="473"/>
      <point x="376" y="453"/>
      <point x="447" y="417"/>
      <point x="514" y="371"/>
      <point x="565" y="318"/>
      <point x="596" y="264"/>
    </contour>
    <contour>
      <point x="350" y="397" type="qcurve"/>
      <point x="355" y="376"/>
      <point x="336" y="347"/>
      <point x="307" y="347" type="qcurve"/>
      <point x="284" y="347"/>
      <point x="257" y="383"/>
      <point x="265" y="403" type="qcurve"/>
      <point x="198" y="369"/>
      <point x="137" y="301"/>
      <point x="129" y="242"/>
      <point x="162" y="191"/>
      <point x="213" y="155"/>
      <point x="272" y="134"/>
      <point x="294" y="134" type="qcurve"/>
      <point x="339" y="134"/>
      <point x="409" y="163"/>
      <point x="453" y="209"/>
      <point x="469" y="267"/>
      <point x="452" y="326"/>
      <point x="397" y="379"/>
    </contour>
  </outline>
</glyph>
<glyph name="U0C03" format="1">
  <advance width="305"/>
  <unicode hex="0C03"/>
  <outline>
    <contour>
      <point x="234" y="349" type="qcurve"/>
      <point x="234" y="331"/>
      <point x="205" y="298"/>
      <point x="166" y="271"/>
      <point x="126" y="256"/>
      <point x="116" y="256" type="qcurve"/>
      <point x="110" y="256"/>
      <point x="73" y="271"/>
      <point x="34" y="296"/>
      <point x="3" y="326"/>
      <point x="3" y="340" type="qcurve"/>
      <point x="3" y="357"/>
      <point x="30" y="393"/>
      <point x="66" y="422"/>
      <point x="101" y="439"/>
      <point x="110" y="439" type="qcurve"/>
      <point x="127" y="439"/>
      <point x="171" y="422"/>
      <point x="209" y="395"/>
      <point x="234" y="364"/>
    </contour>
    <contour>
      <point x="137" y="402" type="qcurve"/>
      <point x="141" y="386"/>
      <point x="123" y="386" type="qcurve"/>
      <point x="115" y="386"/>
      <point x="106" y="397"/>
      <point x="109" y="404" type="qcurve" name="hr01"/>
      <point x="75" y="387"/>
      <point x="60" y="354"/>
      <point x="76" y="330"/>
      <point x="108" y="314"/>
      <point x="119" y="314" type="qcurve"/>
      <point x="141" y="314"/>
      <point x="171" y="335"/>
      <point x="178" y="364"/>
      <point x="161" y="393"/>
    </contour>
    <contour>
      <point x="234" y="128" type="qcurve"/>
      <point x="234" y="110"/>
      <point x="205" y="77"/>
      <point x="166" y="50"/>
      <point x="126" y="35"/>
      <point x="116" y="35" type="qcurve"/>
      <point x="110" y="35"/>
      <point x="73" y="50"/>
      <point x="34" y="75"/>
      <point x="3" y="104"/>
      <point x="3" y="119" type="qcurve"/>
      <point x="3" y="136"/>
      <point x="30" y="172"/>
      <point x="66" y="201"/>
      <point x="101" y="218"/>
      <point x="110" y="218" type="qcurve"/>
      <point x="127" y="218"/>
      <point x="171" y="201"/>
      <point x="209" y="174"/>
      <point x="234" y="142"/>
    </contour>
    <contour>
      <point x="137" y="182" type="qcurve"/>
      <point x="141" y="166"/>
      <point x="123" y="166" type="qcurve"/>
      <point x="115" y="166"/>
      <point x="105" y="177"/>
      <point x="109" y="184" type="qcurve"/>
      <point x="74" y="167"/>
      <point x="59" y="134"/>
      <point x="75" y="109"/>
      <point x="108" y="93"/>
      <point x="119" y="93" type="qcurve"/>
      <point x="141" y="93"/>
      <point x="171" y="114"/>
      <point x="178" y="143"/>
      <point x="162" y="173"/>
    </contour>
  </outline>
</glyph>
<glyph name="U0C05" format="1">
  <advance width="816"/>
  <unicode hex="0C05"/>
  <outline>
    <contour>
      <point x="417" y="0" type="qcurve" name="hr00"/>
      <point x="369" y="0"/>
      <point x="266" y="31"/>
      <point x="183" y="84"/>
      <point x="134" y="159"/>
      <point x="141" y="202" type="qcurve"/>
      <point x="108" y="202" type="line"/>
      <point x="113" y="167"/>
      <point x="78" y="135"/>
      <point x="34" y="137"/>
      <point x="-3" y="167"/>
      <point x="0" y="194" type="qcurve"/>
      <point x="3" y="221"/>
      <point x="33" y="249"/>
      <point x="74" y="261"/>
      <point x="122" y="261"/>
      <point x="143" y="261" type="qcurve"/>
      <point x="145" y="270"/>
      <point x="164" y="315"/>
      <point x="183" y="373"/>
      <point x="197" y="437"/>
      <point x="193" y="498"/>
      <point x="164" y="546"/>
      <point x="131" y="559" type="qcurve"/>
      <point x="133" y="536"/>
      <point x="112" y="509"/>
      <point x="83" y="505"/>
      <point x="58" y="521"/>
      <point x="58" y="542" type="qcurve"/>
      <point x="58" y="561"/>
      <point x="81" y="587"/>
      <point x="117" y="605"/>
      <point x="161" y="621"/>
      <point x="202" y="638"/>
      <point x="236" y="660"/>
      <point x="244" y="679" type="qcurve"/>
      <point x="287" y="634"/>
      <point x="321" y="551"/>
      <point x="321" y="473"/>
      <point x="296" y="402"/>
      <point x="267" y="340"/>
      <point x="243" y="286"/>
      <point x="243" y="263" type="qcurve"/>
      <point x="243" y="254"/>
      <point x="274" y="247"/>
      <point x="314" y="247"/>
      <point x="350" y="251"/>
      <point x="354" y="252" type="qcurve"/>
      <point x="334" y="271"/>
      <point x="323" y="339"/>
      <point x="352" y="407"/>
      <point x="429" y="463"/>
      <point x="498" y="471" type="qcurve"/>
      <point x="530" y="470"/>
      <point x="610" y="437"/>
      <point x="679" y="375"/>
      <point x="728" y="286"/>
      <point x="730" y="227" type="qcurve"/>
      <point x="730" y="200"/>
      <point x="681" y="121"/>
      <point x="597" y="50"/>
      <point x="482" y="0"/>
    </contour>
    <contour>
      <point x="604" y="216" type="qcurve"/>
      <point x="606" y="233"/>
      <point x="589" y="282"/>
      <point x="554" y="326"/>
      <point x="504" y="357"/>
      <point x="473" y="358" type="qcurve"/>
      <point x="450" y="359"/>
      <point x="419" y="340"/>
      <point x="406" y="310"/>
      <point x="408" y="280"/>
      <point x="425" y="258"/>
      <point x="456" y="254"/>
      <point x="477" y="266" type="qcurve"/>
      <point x="484" y="251"/>
      <point x="485" y="215"/>
      <point x="476" y="185"/>
      <point x="458" y="165"/>
      <point x="445" y="165" type="qcurve"/>
      <point x="432" y="165"/>
      <point x="393" y="175"/>
      <point x="346" y="186"/>
      <point x="295" y="195"/>
      <point x="270" y="193" type="qcurve"/>
      <point x="270" y="179"/>
      <point x="304" y="147"/>
      <point x="357" y="123"/>
      <point x="423" y="111"/>
      <point x="455" y="116" type="qcurve"/>
      <point x="456" y="116"/>
      <point x="501" y="130"/>
      <point x="555" y="157"/>
      <point x="601" y="194"/>
    </contour>
  </outline>
</glyph>
<glyph name="U0C06" format="1">
  <advance width="820"/>
  <unicode hex="0C06"/>
  <outline>
    <contour>
      <point x="247" y="281" type="qcurve" name="hr00"/>
      <point x="306" y="269"/>
      <point x="368" y="259"/>
      <point x="404" y="256"/>
      <point x="434" y="259"/>
      <point x="464" y="262" type="qcurve"/>
      <point x="443" y="267"/>
      <point x="402" y="288"/>
      <point x="371" y="314"/>
      <point x="351" y="347"/>
      <point x="354" y="365" type="qcurve"/>
      <point x="356" y="378"/>
      <point x="376" y="412"/>
      <point x="414" y="443"/>
      <point x="474" y="468"/>
      <point x="517" y="471" type="qcurve"/>
      <point x="562" y="472"/>
      <point x="629" y="451"/>
      <point x="673" y="417"/>
      <point x="695" y="378"/>
      <point x="695" y="362" type="qcurve"/>
      <point x="696" y="321"/>
      <point x="620" y="274" type="qcurve"/>
      <point x="685" y="261"/>
      <point x="735" y="221"/>
      <point x="735" y="191" type="qcurve"/>
      <point x="735" y="164"/>
      <point x="703" y="114"/>
      <point x="653" y="72"/>
      <point x="588" y="38"/>
      <point x="519" y="14"/>
      <point x="455" y="1"/>
      <point x="429" y="1" type="qcurve"/>
      <point x="371" y="1"/>
      <point x="267" y="38"/>
      <point x="186" y="99"/>
      <point x="135" y="178"/>
      <point x="129" y="221" type="qcurve"/>
      <point x="117" y="223"/>
      <point x="104" y="223"/>
      <point x="98" y="221" type="qcurve"/>
      <point x="96" y="216"/>
      <point x="99" y="193"/>
      <point x="95" y="168"/>
      <point x="76" y="148"/>
      <point x="51" y="147" type="qcurve"/>
      <point x="34" y="146"/>
      <point x="8" y="168"/>
      <point x="-2" y="200"/>
      <point x="7" y="237"/>
      <point x="40" y="268"/>
      <point x="101" y="288"/>
      <point x="148" y="286" type="qcurve"/>
      <point x="152" y="305"/>
      <point x="166" y="356"/>
      <point x="179" y="411"/>
      <point x="186" y="465"/>
      <point x="180" y="512"/>
      <point x="156" y="549"/>
      <point x="130" y="559" type="qcurve"/>
      <point x="132" y="537"/>
      <point x="111" y="515"/>
      <point x="83" y="514"/>
      <point x="59" y="534"/>
      <point x="59" y="553" type="qcurve"/>
      <point x="59" y="572"/>
      <point x="82" y="596"/>
      <point x="118" y="611"/>
      <point x="160" y="623"/>
      <point x="201" y="637"/>
      <point x="234" y="657"/>
      <point x="243" y="675" type="qcurve"/>
      <point x="286" y="632"/>
      <point x="321" y="552"/>
      <point x="322" y="478"/>
      <point x="298" y="412"/>
      <point x="270" y="352"/>
      <point x="247" y="301"/>
    </contour>
    <contour>
      <point x="507" y="381" type="qcurve"/>
      <point x="488" y="378"/>
      <point x="469" y="350"/>
      <point x="471" y="322"/>
      <point x="495" y="298"/>
      <point x="518" y="298" type="qcurve"/>
      <point x="553" y="298"/>
      <point x="575" y="328"/>
      <point x="566" y="360"/>
      <point x="531" y="385"/>
    </contour>
    <contour>
      <point x="568" y="238" type="qcurve"/>
      <point x="536" y="211"/>
      <point x="453" y="197"/>
      <point x="368" y="201"/>
      <point x="290" y="215"/>
      <point x="262" y="217" type="qcurve"/>
      <point x="265" y="198"/>
      <point x="298" y="158"/>
      <point x="344" y="126"/>
      <point x="398" y="105"/>
      <point x="423" y="105" type="qcurve"/>
      <point x="450" y="105"/>
      <point x="511" y="121"/>
      <point x="565" y="145"/>
      <point x="606" y="176"/>
      <point x="621" y="205"/>
      <point x="601" y="230"/>
    </contour>
  </outline>
</glyph>
<glyph name="U0C07" format="1">
  <advance width="702"/>
  <unicode hex="0C07"/>
  <outline>
    <contour>
      <point x="436" y="-49" type="qcurve"/>
      <point x="430" y="-38"/>
      <point x="435" y="-22"/>
      <point x="451" y="-12"/>
      <point x="473" y="-13"/>
      <point x="484" y="-18" type="qcurve"/>
      <point x="502" y="13"/>
      <point x="502" y="72"/>
      <point x="481" y="95" type="qcurve"/>
      <point x="467" y="83"/>
      <point x="428" y="50"/>
      <point x="385" y="20"/>
      <point x="341" y="0"/>
      <point x="322" y="0" type="qcurve"/>
      <point x="309" y="0"/>
      <point x="266" y="9"/>
      <point x="214" y="28"/>
      <point x="161" y="54"/>
      <point x="118" y="88"/>
      <point x="90" y="129"/>
      <point x="90" y="152" type="qcurve"/>
      <point x="90" y="171"/>
      <point x="121" y="205"/>
      <point x="167" y="233"/>
      <point x="222" y="254"/>
      <point x="272" y="268"/>
      <point x="310" y="275"/>
      <point x="315" y="274" type="qcurve"/>
      <point x="327" y="275"/>
      <point x="375" y="260"/>
      <point x="424" y="240"/>
      <point x="462" y="223"/>
      <point x="465" y="224" type="qcurve"/>
      <point x="483" y="231"/>
      <point x="512" y="280"/>
      <point x="515" y="334"/>
      <point x="482" y="380"/>
      <point x="440" y="383" type="qcurve"/>
      <point x="413" y="385"/>
      <point x="384" y="375"/>
      <point x="371" y="357"/>
      <point x="367" y="336"/>
      <point x="362" y="317"/>
      <point x="352" y="307"/>
      <point x="339" y="310" type="qcurve"/>
      <point x="313" y="314"/>
      <point x="294" y="323"/>
      <point x="291" y="333"/>
      <point x="294" y="345"/>
      <point x="291" y="354" type="qcurve"/>
      <point x="289" y="360"/>
      <point x="263" y="387"/>
      <point x="231" y="414"/>
      <point x="200" y="433"/>
      <point x="191" y="432" type="qcurve"/>
      <point x="161" y="427"/>
      <point x="121" y="390"/>
      <point x="113" y="350"/>
      <point x="144" y="319"/>
      <point x="185" y="322" type="qcurve"/>
      <point x="182" y="330"/>
      <point x="197" y="343"/>
      <point x="218" y="345"/>
      <point x="236" y="332"/>
      <point x="236" y="315" type="qcurve"/>
      <point x="236" y="305"/>
      <point x="216" y="293"/>
      <point x="187" y="284"/>
      <point x="152" y="275"/>
      <point x="118" y="264"/>
      <point x="90" y="248"/>
      <point x="83" y="236" type="qcurve"/>
      <point x="58" y="259"/>
      <point x="27" y="289"/>
      <point x="8" y="313"/>
      <point x="1" y="340"/>
      <point x="1" y="360" type="qcurve"/>
      <point x="1" y="374"/>
      <point x="32" y="407"/>
      <point x="79" y="439"/>
      <point x="134" y="470"/>
      <point x="186" y="495"/>
      <point x="226" y="508"/>
      <point x="233" y="508" type="qcurve"/>
      <point x="269" y="505"/>
      <point x="337" y="470"/>
      <point x="367" y="435" type="qcurve"/>
      <point x="375" y="440"/>
      <point x="393" y="455"/>
      <point x="414" y="468"/>
      <point x="434" y="477"/>
      <point x="444" y="477" type="qcurve"/>
      <point x="467" y="477"/>
      <point x="532" y="439"/>
      <point x="592" y="382"/>
      <point x="635" y="317"/>
      <point x="635" y="290" type="qcurve"/>
      <point x="635" y="261"/>
      <point x="613" y="216"/>
      <point x="586" y="182"/>
      <point x="559" y="160"/>
      <point x="553" y="154" type="qcurve"/>
      <point x="557" y="150"/>
      <point x="585" y="122"/>
      <point x="614" y="75"/>
      <point x="637" y="8"/>
      <point x="634" y="-35" type="qcurve"/>
      <point x="634" y="-41"/>
      <point x="651" y="-48"/>
      <point x="653" y="-56" type="qcurve"/>
      <point x="648" y="-65"/>
      <point x="632" y="-61"/>
      <point x="628" y="-59" type="qcurve"/>
      <point x="595" y="-43"/>
      <point x="534" y="-49"/>
      <point x="483" y="-62"/>
      <point x="445" y="-68"/>
    </contour>
    <contour>
      <point x="418" y="174" type="qcurve"/>
      <point x="419" y="180"/>
      <point x="392" y="197"/>
      <point x="356" y="213"/>
      <point x="323" y="224"/>
      <point x="315" y="224" type="qcurve" name="hr01"/>
      <point x="310" y="224"/>
      <point x="284" y="217"/>
      <point x="255" y="205"/>
      <point x="232" y="185"/>
      <point x="232" y="173" type="qcurve"/>
      <point x="232" y="163"/>
      <point x="253" y="144"/>
      <point x="280" y="131"/>
      <point x="306" y="122"/>
      <point x="312" y="122" type="qcurve"/>
      <point x="323" y="121"/>
      <point x="357" y="132"/>
      <point x="391" y="150"/>
      <point x="417" y="168"/>
    </contour>
  </outline>
</glyph>
<glyph name="U0C08" format="1">
  <advance width="1105"/>
  <unicode hex="0C08"/>
  <outline>
    <contour>
      <point x="868" y="115" type="qcurve" name="hr00"/>
      <point x="909" y="115"/>
      <point x="937" y="145"/>
      <point x="923" y="183"/>
      <point x="872" y="214"/>
      <point x="838" y="214" type="qcurve"/>
      <point x="802" y="214"/>
      <point x="775" y="183"/>
      <point x="787" y="145"/>
      <point x="833" y="115"/>
    </contour>
    <contour>
      <point x="512" y="427" type="qcurve"/>
      <point x="494" y="425"/>
      <point x="449" y="411"/>
      <point x="437" y="397" type="qcurve"/>
      <point x="415" y="397"/>
      <point x="370" y="377"/>
      <point x="328" y="343"/>
      <point x="292" y="302"/>
      <point x="280" y="282" type="qcurve"/>
      <point x="314" y="286"/>
      <point x="382" y="281"/>
      <point x="458" y="273"/>
      <point x="546" y="273"/>
      <point x="600" y="284" type="qcurve"/>
      <point x="593" y="295"/>
      <point x="565" y="329"/>
      <point x="532" y="356"/>
      <point x="497" y="370"/>
      <point x="481" y="359" type="qcurve"/>
      <point x="501" y="354"/>
      <point x="509" y="324"/>
      <point x="494" y="295"/>
      <point x="459" y="282"/>
      <point x="434" y="296" type="qcurve"/>
      <point x="408" y="310"/>
      <point x="409" y="356"/>
      <point x="442" y="398"/>
      <point x="497" y="424"/>
      <point x="524" y="418" type="qcurve"/>
      <point x="546" y="413"/>
      <point x="589" y="398"/>
      <point x="632" y="370"/>
      <point x="675" y="322"/>
      <point x="696" y="283" type="qcurve"/>
      <point x="705" y="283"/>
      <point x="746" y="282"/>
      <point x="793" y="282"/>
      <point x="834" y="282"/>
      <point x="840" y="282" type="qcurve"/>
      <point x="851" y="282"/>
      <point x="882" y="292"/>
      <point x="909" y="309"/>
      <point x="929" y="333"/>
      <point x="929" y="347" type="qcurve"/>
      <point x="929" y="367"/>
      <point x="895" y="388"/>
      <point x="851" y="394"/>
      <point x="807" y="385"/>
      <point x="797" y="373" type="qcurve"/>
      <point x="797" y="368"/>
      <point x="797" y="353"/>
      <point x="805" y="353" type="qcurve"/>
      <point x="814" y="359"/>
      <point x="821" y="361" type="qcurve"/>
      <point x="827" y="364"/>
      <point x="839" y="356"/>
      <point x="839" y="345" type="qcurve"/>
      <point x="839" y="323"/>
      <point x="815" y="308"/>
      <point x="802" y="308" type="qcurve"/>
      <point x="781" y="308"/>
      <point x="765" y="341"/>
      <point x="750" y="380"/>
      <point x="724" y="411"/>
      <point x="696" y="408" type="qcurve"/>
      <point x="701" y="419"/>
      <point x="737" y="453"/>
      <point x="790" y="481"/>
      <point x="854" y="498"/>
      <point x="922" y="485"/>
      <point x="985" y="438"/>
      <point x="1012" y="390" type="qcurve"/>
      <point x="1020" y="374"/>
      <point x="1005" y="336"/>
      <point x="972" y="299"/>
      <point x="933" y="266"/>
      <point x="918" y="256" type="qcurve"/>
      <point x="970" y="248"/>
      <point x="1026" y="187"/>
      <point x="1019" y="112"/>
      <point x="939" y="33"/>
      <point x="854" y="6" type="qcurve"/>
      <point x="794" y="27"/>
      <point x="727" y="75"/>
      <point x="700" y="124"/>
      <point x="705" y="171"/>
      <point x="725" y="208"/>
      <point x="752" y="231"/>
      <point x="762" y="233" type="qcurve"/>
      <point x="696" y="233" type="line"/>
      <point x="700" y="211"/>
      <point x="677" y="161"/>
      <point x="635" y="112"/>
      <point x="580" y="66"/>
      <point x="524" y="31"/>
      <point x="475" y="10"/>
      <point x="461" y="10" type="qcurve"/>
      <point x="437" y="10"/>
      <point x="373" y="29"/>
      <point x="301" y="60"/>
      <point x="231" y="103"/>
      <point x="176" y="154"/>
      <point x="143" y="208"/>
      <point x="144" y="236" type="qcurve"/>
      <point x="87" y="236" type="line"/>
      <point x="103" y="236"/>
      <point x="115" y="208"/>
      <point x="105" y="176"/>
      <point x="76" y="150"/>
      <point x="53" y="150" type="qcurve"/>
      <point x="22" y="151"/>
      <point x="-3" y="197"/>
      <point x="1" y="219" type="qcurve"/>
      <point x="7" y="257"/>
      <point x="60" y="291"/>
      <point x="120" y="300"/>
      <point x="169" y="297"/>
      <point x="173" y="298" type="qcurve"/>
      <point x="180" y="302"/>
      <point x="223" y="344"/>
      <point x="282" y="396"/>
      <point x="351" y="449"/>
      <point x="422" y="474"/>
      <point x="487" y="463"/>
    </contour>
    <contour>
      <point x="610" y="239" type="qcurve"/>
      <point x="559" y="223"/>
      <point x="475" y="219"/>
      <point x="400" y="227"/>
      <point x="329" y="239"/>
      <point x="289" y="239" type="qcurve"/>
      <point x="302" y="207"/>
      <point x="353" y="163"/>
      <point x="416" y="139"/>
      <point x="485" y="137"/>
      <point x="548" y="158"/>
      <point x="598" y="203"/>
    </contour>
    <contour>
      <point x="801" y="696" type="qcurve"/>
      <point x="801" y="646"/>
      <point x="722" y="584"/>
      <point x="602" y="544"/>
      <point x="460" y="518"/>
      <point x="332" y="492"/>
      <point x="237" y="456"/>
      <point x="224" y="425" type="qcurve"/>
      <point x="231" y="430"/>
      <point x="250" y="429"/>
      <point x="261" y="419"/>
      <point x="261" y="398"/>
      <point x="251" y="383" type="qcurve"/>
      <point x="239" y="373"/>
      <point x="213" y="370"/>
      <point x="193" y="381"/>
      <point x="178" y="406"/>
      <point x="178" y="423" type="qcurve"/>
      <point x="177" y="452"/>
      <point x="211" y="502"/>
      <point x="264" y="542"/>
      <point x="329" y="572"/>
      <point x="389" y="594"/>
      <point x="439" y="606"/>
      <point x="451" y="608" type="qcurve"/>
      <point x="473" y="611"/>
      <point x="538" y="624"/>
      <point x="608" y="641"/>
      <point x="675" y="663"/>
      <point x="722" y="686"/>
      <point x="741" y="713"/>
      <point x="729" y="726" type="qcurve"/>
      <point x="732" y="719"/>
      <point x="714" y="698"/>
      <point x="688" y="692"/>
      <point x="667" y="708"/>
      <point x="667" y="735" type="qcurve"/>
      <point x="667" y="752"/>
      <point x="709" y="773"/>
      <point x="759" y="770"/>
      <point x="801" y="735"/>
    </contour>
  </outline>
</glyph>
<glyph name="U0C09" format="1">
  <advance width="865"/>
  <unicode hex="0C09"/>
  <outline>
    <contour>
      <point x="526" y="535" type="qcurve"/>
      <point x="526" y="523"/>
      <point x="497" y="498"/>
      <point x="460" y="477"/>
      <point x="426" y="464"/>
      <point x="423" y="464" type="qcurve"/>
      <point x="410" y="464"/>
      <point x="378" y="475"/>
      <point x="350" y="494"/>
      <point x="331" y="517"/>
      <point x="331" y="529" type="qcurve"/>
      <point x="331" y="541"/>
      <point x="361" y="566"/>
      <point x="399" y="588"/>
      <point x="435" y="602"/>
      <point x="441" y="602" type="qcurve"/>
      <point x="446" y="602"/>
      <point x="461" y="594"/>
      <point x="469" y="589" type="qcurve"/>
      <point x="453" y="590"/>
      <point x="417" y="566"/>
      <point x="397" y="539"/>
      <point x="403" y="515"/>
      <point x="429" y="515" type="qcurve" name="hr01"/>
      <point x="435" y="515"/>
      <point x="457" y="520"/>
      <point x="472" y="530"/>
      <point x="475" y="544"/>
      <point x="463" y="553" type="qcurve"/>
      <point x="460" y="538"/>
      <point x="444" y="536"/>
      <point x="431" y="548"/>
      <point x="427" y="567"/>
      <point x="435" y="573" type="qcurve"/>
      <point x="451" y="585"/>
      <point x="483" y="586"/>
      <point x="510" y="572"/>
      <point x="526" y="549"/>
    </contour>
    <contour>
      <point x="742" y="258" type="line"/>
      <point x="709" y="256"/>
      <point x="639" y="247"/>
      <point x="569" y="237"/>
      <point x="500" y="227"/>
      <point x="465" y="227" type="qcurve"/>
      <point x="258" y="224" type="line"/>
      <point x="258" y="216"/>
      <point x="289" y="186"/>
      <point x="330" y="157"/>
      <point x="370" y="134"/>
      <point x="378" y="134" type="qcurve"/>
      <point x="387" y="134"/>
      <point x="418" y="157"/>
      <point x="449" y="184"/>
      <point x="473" y="209"/>
      <point x="476" y="212" type="qcurve"/>
      <point x="485" y="206"/>
      <point x="520" y="172"/>
      <point x="561" y="136"/>
      <point x="603" y="110"/>
      <point x="621" y="110" type="qcurve"/>
      <point x="640" y="110"/>
      <point x="653" y="133"/>
      <point x="648" y="162"/>
      <point x="626" y="185"/>
      <point x="610" y="185" type="qcurve"/>
      <point x="604" y="185"/>
      <point x="602" y="176"/>
      <point x="599" y="164"/>
      <point x="594" y="155"/>
      <point x="585" y="155" type="qcurve" name="hr02"/>
      <point x="580" y="155"/>
      <point x="571" y="163"/>
      <point x="563" y="173"/>
      <point x="559" y="182"/>
      <point x="559" y="183" type="qcurve"/>
      <point x="559" y="195"/>
      <point x="610" y="213"/>
      <point x="676" y="227"/>
      <point x="739" y="238"/>
      <point x="752" y="243" type="qcurve"/>
      <point x="752" y="242"/>
      <point x="762" y="224"/>
      <point x="774" y="202"/>
      <point x="784" y="178"/>
      <point x="784" y="172" type="qcurve"/>
      <point x="784" y="158"/>
      <point x="756" y="122"/>
      <point x="713" y="84"/>
      <point x="660" y="47"/>
      <point x="612" y="18"/>
      <point x="574" y="1"/>
      <point x="568" y="1" type="qcurve"/>
      <point x="555" y="1"/>
      <point x="514" y="20"/>
      <point x="474" y="43"/>
      <point x="441" y="62"/>
      <point x="436" y="62" type="qcurve" name="hr03"/>
      <point x="436" y="62"/>
      <point x="415" y="44"/>
      <point x="387" y="20"/>
      <point x="359" y="2"/>
      <point x="352" y="2" type="qcurve"/>
      <point x="332" y="2"/>
      <point x="280" y="24"/>
      <point x="227" y="60"/>
      <point x="178" y="108"/>
      <point x="141" y="157"/>
      <point x="123" y="207"/>
      <point x="126" y="227" type="qcurve"/>
      <point x="56" y="233"/>
      <point x="-1" y="288"/>
      <point x="2" y="349"/>
      <point x="54" y="397"/>
      <point x="96" y="397" type="qcurve"/>
      <point x="118" y="397"/>
      <point x="152" y="376"/>
      <point x="168" y="346"/>
      <point x="162" y="313"/>
      <point x="145" y="302" type="qcurve"/>
      <point x="139" y="298"/>
      <point x="123" y="296"/>
      <point x="105" y="298"/>
      <point x="90" y="303"/>
      <point x="86" y="308" type="qcurve"/>
      <point x="78" y="316"/>
      <point x="76" y="339"/>
      <point x="85" y="351" type="qcurve" name="hr04"/>
      <point x="78" y="348"/>
      <point x="62" y="331"/>
      <point x="65" y="321" type="qcurve"/>
      <point x="68" y="301"/>
      <point x="92" y="286"/>
      <point x="121" y="284"/>
      <point x="145" y="291"/>
      <point x="148" y="293" type="qcurve"/>
      <point x="148" y="293"/>
      <point x="185" y="319"/>
      <point x="244" y="359"/>
      <point x="318" y="406"/>
      <point x="397" y="444"/>
      <point x="471" y="471"/>
      <point x="501" y="471" type="qcurve"/>
      <point x="530" y="471"/>
      <point x="593" y="447"/>
      <point x="654" y="412"/>
      <point x="714" y="369"/>
      <point x="740" y="349" type="qcurve"/>
      <point x="700" y="359"/>
      <point x="638" y="350"/>
      <point x="590" y="330"/>
      <point x="556" y="309"/>
      <point x="546" y="308" type="qcurve"/>
      <point x="527" y="306"/>
      <point x="512" y="321"/>
      <point x="513" y="339"/>
      <point x="531" y="357"/>
      <point x="548" y="360" type="qcurve"/>
      <point x="532" y="383"/>
      <point x="484" y="396"/>
      <point x="428" y="387"/>
      <point x="369" y="361"/>
      <point x="315" y="329"/>
      <point x="272" y="295"/>
      <point x="261" y="284" type="qcurve"/>
      <point x="326" y="282"/>
      <point x="444" y="284"/>
      <point x="556" y="289"/>
      <point x="663" y="293"/>
      <point x="715" y="293" type="qcurve"/>
    </contour>
  </outline>
</glyph>
<glyph name="U0C0A" format="1">
  <advance width="1212"/>
  <unicode hex="0C0A"/>
  <outline>
    <contour>
      <point x="486" y="528" type="qcurve"/>
      <point x="486" y="517"/>
      <point x="457" y="492"/>
      <point x="420" y="471"/>
      <point x="386" y="458"/>
      <point x="383" y="458" type="qcurve"/>
      <point x="370" y="458"/>
      <point x="338" y="469"/>
      <point x="310" y="488"/>
      <point x="291" y="512"/>
      <point x="291" y="524" type="qcurve"/>
      <point x="291" y="536"/>
      <point x="322" y="561"/>
      <point x="359" y="583"/>
      <point x="395" y="597"/>
      <point x="401" y="597" type="qcurve"/>
      <point x="407" y="597"/>
      <point x="421" y="588"/>
      <point x="429" y="583" type="qcurve"/>
      <point x="413" y="584"/>
      <point x="377" y="561"/>
      <point x="357" y="534"/>
      <point x="364" y="510"/>
      <point x="389" y="510" type="qcurve"/>
      <point x="395" y="510"/>
      <point x="417" y="515"/>
      <point x="432" y="524"/>
      <point x="435" y="539"/>
      <point x="423" y="547" type="qcurve"/>
      <point x="420" y="531"/>
      <point x="404" y="530"/>
      <point x="391" y="543"/>
      <point x="387" y="561"/>
      <point x="395" y="567" type="qcurve" name="hr01"/>
      <point x="411" y="579"/>
      <point x="443" y="581"/>
      <point x="470" y="567"/>
      <point x="486" y="543"/>
    </contour>
    <contour>
      <point x="96" y="395" type="qcurve"/>
      <point x="118" y="395"/>
      <point x="152" y="375"/>
      <point x="168" y="345"/>
      <point x="162" y="312"/>
      <point x="145" y="301" type="qcurve"/>
      <point x="139" y="297"/>
      <point x="123" y="295"/>
      <point x="105" y="296"/>
      <point x="90" y="302"/>
      <point x="86" y="306" type="qcurve"/>
      <point x="78" y="314"/>
      <point x="76" y="338"/>
      <point x="85" y="349" type="qcurve"/>
      <point x="78" y="346"/>
      <point x="62" y="330"/>
      <point x="65" y="318" type="qcurve"/>
      <point x="68" y="299"/>
      <point x="92" y="284"/>
      <point x="121" y="283"/>
      <point x="145" y="289"/>
      <point x="148" y="292" type="qcurve"/>
      <point x="148" y="292"/>
      <point x="185" y="318"/>
      <point x="244" y="358"/>
      <point x="318" y="403"/>
      <point x="397" y="443"/>
      <point x="471" y="469"/>
      <point x="501" y="469" type="qcurve"/>
      <point x="530" y="469"/>
      <point x="593" y="445"/>
      <point x="654" y="410"/>
      <point x="714" y="367"/>
      <point x="740" y="347" type="qcurve"/>
      <point x="700" y="358"/>
      <point x="638" y="349"/>
      <point x="590" y="329"/>
      <point x="556" y="307"/>
      <point x="546" y="306" type="qcurve"/>
      <point x="527" y="305"/>
      <point x="512" y="318"/>
      <point x="513" y="337"/>
      <point x="531" y="355"/>
      <point x="548" y="358" type="qcurve"/>
      <point x="532" y="381"/>
      <point x="484" y="394"/>
      <point x="428" y="385"/>
      <point x="369" y="359"/>
      <point x="315" y="327"/>
      <point x="272" y="293"/>
      <point x="261" y="282" type="qcurve" name="hr02"/>
      <point x="345" y="279"/>
      <point x="458" y="280"/>
      <point x="543" y="285"/>
      <point x="614" y="290"/>
      <point x="656" y="290" type="qcurve"/>
      <point x="730" y="290"/>
      <point x="874" y="288"/>
      <point x="946" y="273" type="qcurve"/>
      <point x="949" y="273"/>
      <point x="975" y="283"/>
      <point x="1005" y="296"/>
      <point x="1027" y="313"/>
      <point x="1027" y="321" type="qcurve"/>
      <point x="1027" y="337"/>
      <point x="994" y="360"/>
      <point x="952" y="371"/>
      <point x="911" y="364"/>
      <point x="902" y="348" type="qcurve"/>
      <point x="909" y="345"/>
      <point x="921" y="346"/>
      <point x="929" y="344"/>
      <point x="934" y="335"/>
      <point x="934" y="323" type="qcurve"/>
      <point x="923" y="299"/>
      <point x="876" y="308"/>
      <point x="823" y="341"/>
      <point x="772" y="379"/>
      <point x="756" y="384" type="qcurve"/>
      <point x="780" y="395"/>
      <point x="823" y="423"/>
      <point x="864" y="446"/>
      <point x="902" y="463"/>
      <point x="923" y="463" type="qcurve"/>
      <point x="942" y="463"/>
      <point x="1002" y="439"/>
      <point x="1060" y="401"/>
      <point x="1101" y="355"/>
      <point x="1101" y="334" type="qcurve" name="hr03"/>
      <point x="1101" y="317"/>
      <point x="1070" y="291"/>
      <point x="1031" y="270"/>
      <point x="996" y="257"/>
      <point x="992" y="254" type="qcurve"/>
      <point x="994" y="249"/>
      <point x="1038" y="233"/>
      <point x="1089" y="209"/>
      <point x="1130" y="177"/>
      <point x="1130" y="157" type="qcurve"/>
      <point x="1130" y="130"/>
      <point x="1097" y="84"/>
      <point x="1048" y="45"/>
      <point x="990" y="13"/>
      <point x="968" y="1" type="qcurve"/>
      <point x="965" y="2"/>
      <point x="935" y="13"/>
      <point x="894" y="31"/>
      <point x="849" y="55"/>
      <point x="810" y="86"/>
      <point x="784" y="123"/>
      <point x="784" y="143" type="qcurve"/>
      <point x="784" y="157"/>
      <point x="813" y="188"/>
      <point x="849" y="218"/>
      <point x="881" y="239"/>
      <point x="883" y="240" type="qcurve"/>
      <point x="848" y="254"/>
      <point x="749" y="254"/>
      <point x="636" y="242"/>
      <point x="518" y="226"/>
      <point x="465" y="226" type="qcurve"/>
      <point x="258" y="223" type="line"/>
      <point x="258" y="215"/>
      <point x="289" y="185"/>
      <point x="330" y="156"/>
      <point x="370" y="133"/>
      <point x="378" y="133" type="qcurve" name="hr04"/>
      <point x="387" y="133"/>
      <point x="418" y="156"/>
      <point x="449" y="183"/>
      <point x="473" y="208"/>
      <point x="476" y="211" type="qcurve"/>
      <point x="485" y="204"/>
      <point x="520" y="170"/>
      <point x="561" y="135"/>
      <point x="603" y="109"/>
      <point x="621" y="109" type="qcurve"/>
      <point x="640" y="109"/>
      <point x="653" y="132"/>
      <point x="648" y="161"/>
      <point x="626" y="184"/>
      <point x="610" y="184" type="qcurve"/>
      <point x="604" y="184"/>
      <point x="602" y="175"/>
      <point x="599" y="163"/>
      <point x="594" y="154"/>
      <point x="585" y="154" type="qcurve"/>
      <point x="580" y="154"/>
      <point x="571" y="162"/>
      <point x="563" y="172"/>
      <point x="559" y="181"/>
      <point x="559" y="182" type="qcurve"/>
      <point x="559" y="194"/>
      <point x="610" y="212"/>
      <point x="676" y="225"/>
      <point x="739" y="237"/>
      <point x="752" y="241" type="qcurve"/>
      <point x="752" y="240"/>
      <point x="762" y="223"/>
      <point x="774" y="201"/>
      <point x="784" y="177"/>
      <point x="784" y="171" type="qcurve"/>
      <point x="784" y="157"/>
      <point x="756" y="121"/>
      <point x="713" y="84"/>
      <point x="660" y="47"/>
      <point x="612" y="18"/>
      <point x="574" y="1"/>
      <point x="568" y="1" type="qcurve" name="hr05"/>
      <point x="555" y="1"/>
      <point x="514" y="19"/>
      <point x="474" y="43"/>
      <point x="441" y="61"/>
      <point x="436" y="61" type="qcurve"/>
      <point x="436" y="61"/>
      <point x="415" y="43"/>
      <point x="387" y="20"/>
      <point x="359" y="2"/>
      <point x="352" y="2" type="qcurve"/>
      <point x="322" y="2"/>
      <point x="239" y="49"/>
      <point x="167" y="118"/>
      <point x="121" y="196"/>
      <point x="126" y="226" type="qcurve"/>
      <point x="80" y="230"/>
      <point x="24" y="258"/>
      <point x="-1" y="296"/>
      <point x="1" y="337"/>
      <point x="26" y="373"/>
      <point x="69" y="395"/>
    </contour>
    <contour>
      <point x="1041" y="165" type="qcurve"/>
      <point x="1041" y="171"/>
      <point x="1012" y="191"/>
      <point x="973" y="210"/>
      <point x="938" y="223"/>
      <point x="932" y="223" type="qcurve"/>
      <point x="927" y="223"/>
      <point x="908" y="210"/>
      <point x="891" y="191"/>
      <point x="878" y="174"/>
      <point x="878" y="171" type="qcurve"/>
      <point x="878" y="159"/>
      <point x="900" y="137"/>
      <point x="930" y="122"/>
      <point x="957" y="113"/>
      <point x="963" y="113" type="qcurve"/>
      <point x="967" y="113"/>
      <point x="992" y="121"/>
      <point x="1020" y="135"/>
      <point x="1041" y="155"/>
    </contour>
    <contour>
      <point x="679" y="518" type="qcurve"/>
      <point x="679" y="508"/>
      <point x="656" y="485"/>
      <point x="629" y="467"/>
      <point x="603" y="455"/>
      <point x="600" y="455" type="qcurve"/>
      <point x="588" y="455"/>
      <point x="554" y="470"/>
      <point x="521" y="493"/>
      <point x="499" y="519"/>
      <point x="499" y="530" type="qcurve"/>
      <point x="499" y="541"/>
      <point x="523" y="559"/>
      <point x="554" y="574"/>
      <point x="584" y="584"/>
      <point x="590" y="584" type="qcurve"/>
      <point x="594" y="584"/>
      <point x="605" y="577"/>
      <point x="613" y="572" type="qcurve"/>
      <point x="596" y="573"/>
      <point x="566" y="550"/>
      <point x="554" y="522"/>
      <point x="564" y="499"/>
      <point x="588" y="499" type="qcurve"/>
      <point x="607" y="499"/>
      <point x="632" y="508"/>
      <point x="640" y="519"/>
      <point x="631" y="531"/>
      <point x="616" y="535" type="qcurve"/>
      <point x="613" y="520"/>
      <point x="597" y="519"/>
      <point x="584" y="532"/>
      <point x="578" y="553"/>
      <point x="586" y="559" type="qcurve"/>
      <point x="603" y="572"/>
      <point x="637" y="566"/>
      <point x="663" y="548"/>
      <point x="679" y="523"/>
    </contour>
  </outline>
</glyph>
<glyph name="U0C0B" format="1">
  <advance width="1403"/>
  <unicode hex="0C0B"/>
  <outline>
    <contour>
      <point x="1321" y="232" type="qcurve"/>
      <point x="1321" y="208"/>
      <point x="1281" y="137"/>
      <point x="1215" y="69"/>
      <point x="1130" y="14"/>
      <point x="1039" y="-1"/>
      <point x="949" y="33"/>
      <point x="911" y="86" type="qcurve"/>
      <point x="880" y="52"/>
      <point x="813" y="7"/>
      <point x="738" y="2"/>
      <point x="653" y="46"/>
      <point x="604" y="101" type="qcurve"/>
      <point x="561" y="59"/>
      <point x="498" y="9"/>
      <point x="435" y="0"/>
      <point x="365" y="38"/>
      <point x="314" y="86" type="qcurve"/>
      <point x="298" y="69"/>
      <point x="265" y="27"/>
      <point x="248" y="4" type="qcurve"/>
      <point x="236" y="2"/>
      <point x="189" y="11"/>
      <point x="134" y="34"/>
      <point x="77" y="66"/>
      <point x="30" y="106"/>
      <point x="0" y="155"/>
      <point x="0" y="180" type="qcurve"/>
      <point x="0" y="208"/>
      <point x="38" y="247"/>
      <point x="94" y="274"/>
      <point x="161" y="294"/>
      <point x="217" y="309"/>
      <point x="255" y="325"/>
      <point x="255" y="334" type="qcurve"/>
      <point x="255" y="351"/>
      <point x="221" y="380"/>
      <point x="176" y="389"/>
      <point x="134" y="375"/>
      <point x="125" y="349" type="qcurve"/>
      <point x="129" y="349"/>
      <point x="140" y="362"/>
      <point x="153" y="358" type="qcurve"/>
      <point x="163" y="355"/>
      <point x="169" y="341"/>
      <point x="165" y="327"/>
      <point x="152" y="315"/>
      <point x="142" y="315" type="qcurve"/>
      <point x="105" y="315"/>
      <point x="72" y="338"/>
      <point x="49" y="368"/>
      <point x="26" y="394"/>
      <point x="0" y="397" type="qcurve"/>
      <point x="26" y="407"/>
      <point x="78" y="433"/>
      <point x="124" y="456"/>
      <point x="160" y="472"/>
      <point x="171" y="472" type="qcurve"/>
      <point x="200" y="472"/>
      <point x="261" y="456"/>
      <point x="314" y="418"/>
      <point x="356" y="356"/>
      <point x="368" y="312" type="qcurve"/>
      <point x="361" y="310"/>
      <point x="321" y="303"/>
      <point x="267" y="292"/>
      <point x="208" y="275"/>
      <point x="159" y="252"/>
      <point x="126" y="220"/>
      <point x="126" y="201" type="qcurve"/>
      <point x="126" y="183"/>
      <point x="154" y="156"/>
      <point x="189" y="136"/>
      <point x="225" y="126"/>
      <point x="234" y="126" type="qcurve"/>
      <point x="245" y="126"/>
      <point x="278" y="154"/>
      <point x="309" y="187"/>
      <point x="334" y="217"/>
      <point x="336" y="219" type="qcurve"/>
      <point x="355" y="186"/>
      <point x="424" y="141"/>
      <point x="458" y="141" type="qcurve"/>
      <point x="478" y="141"/>
      <point x="525" y="164"/>
      <point x="564" y="202"/>
      <point x="589" y="250"/>
      <point x="588" y="275" type="qcurve"/>
      <point x="587" y="296"/>
      <point x="558" y="347"/>
      <point x="516" y="392"/>
      <point x="467" y="421"/>
      <point x="447" y="418" type="qcurve"/>
      <point x="451" y="390"/>
      <point x="425" y="371"/>
      <point x="397" y="375"/>
      <point x="379" y="400"/>
      <point x="388" y="418" type="qcurve"/>
      <point x="407" y="454"/>
      <point x="474" y="474"/>
      <point x="551" y="452"/>
      <point x="628" y="389"/>
      <point x="654" y="342" type="qcurve" name="hr01"/>
      <point x="673" y="308"/>
      <point x="676" y="257"/>
      <point x="668" y="217"/>
      <point x="658" y="187"/>
      <point x="674" y="165"/>
      <point x="724" y="148"/>
      <point x="779" y="141" type="qcurve"/>
      <point x="800" y="138"/>
      <point x="846" y="161"/>
      <point x="884" y="198"/>
      <point x="909" y="245"/>
      <point x="909" y="266" type="qcurve"/>
      <point x="909" y="284"/>
      <point x="885" y="339"/>
      <point x="843" y="389"/>
      <point x="788" y="421"/>
      <point x="760" y="417" type="qcurve"/>
      <point x="768" y="409"/>
      <point x="769" y="389"/>
      <point x="759" y="374"/>
      <point x="741" y="367"/>
      <point x="732" y="371" type="qcurve"/>
      <point x="711" y="379"/>
      <point x="707" y="418"/>
      <point x="733" y="454"/>
      <point x="786" y="475"/>
      <point x="858" y="456"/>
      <point x="942" y="383"/>
      <point x="987" y="308" type="qcurve"/>
      <point x="998" y="290"/>
      <point x="998" y="255"/>
      <point x="989" y="224"/>
      <point x="978" y="196"/>
      <point x="979" y="171"/>
      <point x="997" y="151"/>
      <point x="1023" y="143" type="qcurve"/>
      <point x="1074" y="128"/>
      <point x="1151" y="135"/>
      <point x="1201" y="169"/>
      <point x="1227" y="220"/>
      <point x="1227" y="249" type="qcurve"/>
      <point x="1227" y="260"/>
      <point x="1214" y="296"/>
      <point x="1192" y="336"/>
      <point x="1162" y="375"/>
      <point x="1129" y="404"/>
      <point x="1094" y="420"/>
      <point x="1077" y="417" type="qcurve"/>
      <point x="1089" y="404"/>
      <point x="1087" y="385"/>
      <point x="1071" y="374"/>
      <point x="1048" y="371"/>
      <point x="1026" y="380"/>
      <point x="1015" y="401"/>
      <point x="1019" y="420" type="qcurve"/>
      <point x="1023" y="438"/>
      <point x="1048" y="460"/>
      <point x="1079" y="471"/>
      <point x="1111" y="472"/>
      <point x="1123" y="469" type="qcurve"/>
      <point x="1167" y="460"/>
      <point x="1241" y="407"/>
      <point x="1292" y="337"/>
      <point x="1321" y="263"/>
    </contour>
  </outline>
</glyph>
<glyph name="U0C0C" format="1">
  <advance width="850"/>
  <unicode hex="0C0C"/>
  <outline>
    <contour>
      <point x="658" y="125" type="qcurve" name="hr00"/>
      <point x="673" y="160"/>
      <point x="691" y="228"/>
      <point x="682" y="261" type="qcurve"/>
      <point x="675" y="257"/>
      <point x="662" y="262"/>
      <point x="654" y="272"/>
      <point x="653" y="287"/>
      <point x="658" y="293" type="qcurve"/>
      <point x="672" y="307"/>
      <point x="701" y="297"/>
      <point x="741" y="276"/>
      <point x="793" y="259"/>
      <point x="827" y="267" type="qcurve"/>
      <point x="833" y="268"/>
      <point x="848" y="268"/>
      <point x="852" y="259" type="qcurve"/>
      <point x="848" y="251"/>
      <point x="830" y="248"/>
      <point x="829" y="243" type="qcurve"/>
      <point x="824" y="210"/>
      <point x="796" y="139"/>
      <point x="763" y="79"/>
      <point x="735" y="39"/>
      <point x="730" y="36" type="qcurve"/>
      <point x="693" y="-4"/>
      <point x="586" y="-61"/>
      <point x="474" y="-98"/>
      <point x="374" y="-116"/>
      <point x="344" y="-116" type="qcurve"/>
      <point x="307" y="-116"/>
      <point x="236" y="-90"/>
      <point x="175" y="-48"/>
      <point x="135" y="5"/>
      <point x="126" y="60"/>
      <point x="154" y="114"/>
      <point x="193" y="134" type="qcurve"/>
      <point x="243" y="161"/>
      <point x="323" y="177"/>
      <point x="386" y="183"/>
      <point x="437" y="196"/>
      <point x="460" y="219" type="qcurve"/>
      <point x="472" y="232"/>
      <point x="493" y="286"/>
      <point x="493" y="338"/>
      <point x="464" y="378"/>
      <point x="429" y="378" type="qcurve"/>
      <point x="402" y="378"/>
      <point x="374" y="365"/>
      <point x="360" y="345"/>
      <point x="356" y="323"/>
      <point x="351" y="305"/>
      <point x="341" y="295"/>
      <point x="328" y="298" type="qcurve"/>
      <point x="303" y="302"/>
      <point x="285" y="305"/>
      <point x="282" y="313"/>
      <point x="286" y="333"/>
      <point x="282" y="354" type="qcurve"/>
      <point x="281" y="360"/>
      <point x="256" y="385"/>
      <point x="225" y="410"/>
      <point x="195" y="427"/>
      <point x="186" y="426" type="qcurve"/>
      <point x="147" y="422"/>
      <point x="115" y="388"/>
      <point x="122" y="353"/>
      <point x="168" y="326"/>
      <point x="208" y="328" type="qcurve"/>
      <point x="205" y="336"/>
      <point x="219" y="353"/>
      <point x="239" y="357"/>
      <point x="257" y="344"/>
      <point x="257" y="322" type="qcurve"/>
      <point x="257" y="306"/>
      <point x="210" y="284"/>
      <point x="150" y="264"/>
      <point x="91" y="245"/>
      <point x="80" y="232" type="qcurve"/>
      <point x="56" y="255"/>
      <point x="26" y="285"/>
      <point x="7" y="309"/>
      <point x="0" y="335"/>
      <point x="0" y="355" type="qcurve"/>
      <point x="0" y="369"/>
      <point x="30" y="400"/>
      <point x="76" y="433"/>
      <point x="130" y="464"/>
      <point x="181" y="487"/>
      <point x="220" y="502"/>
      <point x="227" y="501" type="qcurve"/>
      <point x="263" y="498"/>
      <point x="328" y="463"/>
      <point x="357" y="429" type="qcurve"/>
      <point x="374" y="440"/>
      <point x="413" y="471"/>
      <point x="433" y="471" type="qcurve"/>
      <point x="456" y="471"/>
      <point x="519" y="433"/>
      <point x="578" y="377"/>
      <point x="620" y="312"/>
      <point x="620" y="286" type="qcurve"/>
      <point x="620" y="258"/>
      <point x="599" y="214"/>
      <point x="571" y="180"/>
      <point x="545" y="158"/>
      <point x="539" y="152" type="qcurve"/>
      <point x="507" y="132"/>
      <point x="433" y="119"/>
      <point x="358" y="110"/>
      <point x="290" y="95"/>
      <point x="264" y="75" type="qcurve"/>
      <point x="244" y="58"/>
      <point x="255" y="26"/>
      <point x="292" y="-2"/>
      <point x="339" y="-20"/>
      <point x="356" y="-22" type="qcurve"/>
      <point x="370" y="-23"/>
      <point x="445" y="-11"/>
      <point x="539" y="22"/>
      <point x="630" y="79"/>
    </contour>
  </outline>
</glyph>
<glyph name="U0C0E" format="1">
  <advance width="741"/>
  <unicode hex="0C0E"/>
  <outline>
    <contour>
      <point x="227" y="204" type="qcurve"/>
      <point x="234" y="204"/>
      <point x="268" y="190"/>
      <point x="310" y="171"/>
      <point x="355" y="148"/>
      <point x="394" y="129"/>
      <point x="423" y="116"/>
      <point x="427" y="116" type="qcurve"/>
      <point x="440" y="116"/>
      <point x="480" y="140"/>
      <point x="516" y="177"/>
      <point x="541" y="217"/>
      <point x="539" y="232" type="qcurve"/>
      <point x="535" y="268"/>
      <point x="484" y="324"/>
      <point x="417" y="360"/>
      <point x="343" y="380"/>
      <point x="286" y="381"/>
      <point x="257" y="364"/>
      <point x="268" y="345" type="qcurve"/>
      <point x="281" y="357"/>
      <point x="299" y="366"/>
      <point x="311" y="357" type="qcurve"/>
      <point x="322" y="351"/>
      <point x="328" y="333"/>
      <point x="321" y="315"/>
      <point x="300" y="303"/>
      <point x="283" y="303" type="qcurve"/>
      <point x="268" y="303"/>
      <point x="243" y="328"/>
      <point x="214" y="355"/>
      <point x="183" y="375"/>
      <point x="165" y="371" type="qcurve"/>
      <point x="155" y="382"/>
      <point x="164" y="406"/>
      <point x="191" y="428"/>
      <point x="230" y="447"/>
      <point x="270" y="463"/>
      <point x="303" y="472"/>
      <point x="311" y="473" type="qcurve" name="hr01"/>
      <point x="322" y="474"/>
      <point x="379" y="452"/>
      <point x="452" y="412"/>
      <point x="531" y="359"/>
      <point x="598" y="303"/>
      <point x="641" y="246"/>
      <point x="641" y="221" type="qcurve"/>
      <point x="641" y="187"/>
      <point x="594" y="110"/>
      <point x="527" y="44"/>
      <point x="455" y="0"/>
      <point x="430" y="0" type="qcurve"/>
      <point x="417" y="0"/>
      <point x="377" y="16"/>
      <point x="337" y="36"/>
      <point x="305" y="52"/>
      <point x="302" y="52" type="qcurve"/>
      <point x="301" y="52"/>
      <point x="269" y="36"/>
      <point x="228" y="16"/>
      <point x="185" y="0"/>
      <point x="172" y="0" type="qcurve"/>
      <point x="151" y="0"/>
      <point x="91" y="13"/>
      <point x="37" y="40"/>
      <point x="-1" y="79"/>
      <point x="0" y="103" type="qcurve"/>
      <point x="0" y="123"/>
      <point x="25" y="162"/>
      <point x="61" y="196"/>
      <point x="109" y="222"/>
      <point x="155" y="233"/>
      <point x="198" y="228"/>
      <point x="212" y="214" type="qcurve"/>
      <point x="199" y="209"/>
      <point x="170" y="195"/>
      <point x="162" y="180" type="qcurve"/>
      <point x="122" y="180"/>
      <point x="94" y="145"/>
      <point x="103" y="103"/>
      <point x="140" y="69"/>
      <point x="166" y="69" type="qcurve"/>
      <point x="188" y="69"/>
      <point x="233" y="87"/>
      <point x="256" y="114"/>
      <point x="245" y="144"/>
      <point x="211" y="156" type="qcurve"/>
      <point x="213" y="139"/>
      <point x="191" y="131"/>
      <point x="169" y="139"/>
      <point x="157" y="162"/>
      <point x="168" y="176" type="qcurve"/>
      <point x="169" y="178"/>
      <point x="178" y="188"/>
      <point x="194" y="199"/>
      <point x="214" y="205"/>
    </contour>
  </outline>
</glyph>
<glyph name="U0C0F" format="1">
  <advance width="723"/>
  <unicode hex="0C0F"/>
  <outline>
    <contour>
      <point x="483" y="463" type="qcurve"/>
      <point x="467" y="496"/>
      <point x="406" y="529"/>
      <point x="332" y="537"/>
      <point x="256" y="518"/>
      <point x="194" y="480"/>
      <point x="154" y="427"/>
      <point x="154" y="394" type="qcurve"/>
      <point x="154" y="380"/>
      <point x="158" y="376"/>
      <point x="167" y="381"/>
      <point x="180" y="390"/>
      <point x="188" y="389" type="qcurve"/>
      <point x="204" y="387"/>
      <point x="210" y="362"/>
      <point x="199" y="333"/>
      <point x="175" y="309"/>
      <point x="163" y="309" type="qcurve" name="hr01"/>
      <point x="140" y="309"/>
      <point x="109" y="338"/>
      <point x="77" y="382"/>
      <point x="39" y="435"/>
      <point x="10" y="460" type="qcurve"/>
      <point x="97" y="546"/>
      <point x="242" y="622"/>
      <point x="354" y="634"/>
      <point x="434" y="596"/>
      <point x="481" y="540"/>
      <point x="495" y="479"/>
    </contour>
    <contour>
      <point x="227" y="204" type="qcurve"/>
      <point x="234" y="204"/>
      <point x="268" y="190"/>
      <point x="310" y="171"/>
      <point x="355" y="148"/>
      <point x="394" y="129"/>
      <point x="423" y="116"/>
      <point x="427" y="116" type="qcurve"/>
      <point x="440" y="116"/>
      <point x="480" y="140"/>
      <point x="516" y="177"/>
      <point x="541" y="217"/>
      <point x="539" y="232" type="qcurve"/>
      <point x="535" y="268"/>
      <point x="498" y="321"/>
      <point x="450" y="352"/>
      <point x="399" y="366"/>
      <point x="361" y="361"/>
      <point x="346" y="341"/>
      <point x="357" y="323" type="qcurve"/>
      <point x="364" y="329"/>
      <point x="370" y="338"/>
      <point x="374" y="344"/>
      <point x="381" y="347"/>
      <point x="388" y="347" type="qcurve"/>
      <point x="413" y="346"/>
      <point x="424" y="326"/>
      <point x="412" y="301"/>
      <point x="381" y="282"/>
      <point x="364" y="282" type="qcurve"/>
      <point x="349" y="282"/>
      <point x="321" y="313"/>
      <point x="289" y="350"/>
      <point x="254" y="376"/>
      <point x="236" y="370" type="qcurve"/>
      <point x="225" y="381"/>
      <point x="234" y="404"/>
      <point x="262" y="427"/>
      <point x="301" y="446"/>
      <point x="341" y="462"/>
      <point x="374" y="471"/>
      <point x="382" y="472" type="qcurve"/>
      <point x="392" y="473"/>
      <point x="439" y="451"/>
      <point x="497" y="412"/>
      <point x="558" y="359"/>
      <point x="608" y="303"/>
      <point x="641" y="246"/>
      <point x="641" y="221" type="qcurve"/>
      <point x="641" y="187"/>
      <point x="594" y="110"/>
      <point x="527" y="44"/>
      <point x="455" y="0"/>
      <point x="430" y="0" type="qcurve"/>
      <point x="417" y="0"/>
      <point x="377" y="16"/>
      <point x="337" y="36"/>
      <point x="305" y="52"/>
      <point x="302" y="52" type="qcurve"/>
      <point x="301" y="52"/>
      <point x="269" y="36"/>
      <point x="228" y="16"/>
      <point x="185" y="0"/>
      <point x="172" y="0" type="qcurve"/>
      <point x="151" y="0"/>
      <point x="91" y="13"/>
      <point x="37" y="40"/>
      <point x="-1" y="79"/>
      <point x="0" y="103" type="qcurve" name="hr02"/>
      <point x="0" y="123"/>
      <point x="25" y="162"/>
      <point x="61" y="196"/>
      <point x="109" y="222"/>
      <point x="155" y="233"/>
      <point x="198" y="228"/>
      <point x="212" y="214" type="qcurve" name="hr03"/>
      <point x="199" y="209"/>
      <point x="170" y="195"/>
      <point x="162" y="180" type="qcurve"/>
      <point x="122" y="180"/>
      <point x="94" y="145"/>
      <point x="103" y="103"/>
      <point x="140" y="69"/>
      <point x="166" y="69" type="qcurve"/>
      <point x="188" y="69"/>
      <point x="233" y="87"/>
      <point x="256" y="114"/>
      <point x="245" y="144"/>
      <point x="211" y="156" type="qcurve"/>
      <point x="213" y="139"/>
      <point x="191" y="131"/>
      <point x="169" y="139"/>
      <point x="157" y="162"/>
      <point x="168" y="176" type="qcurve"/>
      <point x="169" y="178"/>
      <point x="178" y="188"/>
      <point x="194" y="199"/>
      <point x="214" y="205"/>
    </contour>
  </outline>
</glyph>
<glyph name="U0C10" format="1">
  <advance width="711"/>
  <unicode hex="0C10"/>
  <outline>
    <contour>
      <point x="403" y="126" type="qcurve"/>
      <point x="417" y="127"/>
      <point x="455" y="147"/>
      <point x="488" y="179"/>
      <point x="512" y="218"/>
      <point x="512" y="237" type="qcurve"/>
      <point x="512" y="256"/>
      <point x="493" y="296"/>
      <point x="460" y="328"/>
      <point x="417" y="348"/>
      <point x="369" y="350"/>
      <point x="321" y="330"/>
      <point x="298" y="305" type="qcurve"/>
      <point x="304" y="300"/>
      <point x="309" y="286"/>
      <point x="304" y="270"/>
      <point x="289" y="260"/>
      <point x="273" y="260" type="qcurve"/>
      <point x="264" y="260"/>
      <point x="249" y="270"/>
      <point x="240" y="286"/>
      <point x="241" y="302"/>
      <point x="249" y="308" type="qcurve"/>
      <point x="252" y="328"/>
      <point x="226" y="355"/>
      <point x="186" y="370"/>
      <point x="140" y="372"/>
      <point x="103" y="359"/>
      <point x="84" y="331"/>
      <point x="92" y="309" type="qcurve"/>
      <point x="112" y="313"/>
      <point x="130" y="298"/>
      <point x="131" y="276"/>
      <point x="119" y="256"/>
      <point x="108" y="255" type="qcurve"/>
      <point x="84" y="253"/>
      <point x="52" y="262"/>
      <point x="30" y="288"/>
      <point x="12" y="332"/>
      <point x="3" y="365" type="qcurve" name="hr01"/>
      <point x="22" y="394"/>
      <point x="45" y="418" type="qcurve"/>
      <point x="66" y="438"/>
      <point x="121" y="472"/>
      <point x="157" y="472" type="qcurve" name="hr02"/>
      <point x="187" y="472"/>
      <point x="231" y="453"/>
      <point x="260" y="430"/>
      <point x="274" y="411"/>
      <point x="276" y="411" type="qcurve"/>
      <point x="301" y="427"/>
      <point x="323" y="440" type="qcurve"/>
      <point x="341" y="452"/>
      <point x="380" y="471"/>
      <point x="393" y="471" type="qcurve"/>
      <point x="427" y="471"/>
      <point x="510" y="415"/>
      <point x="581" y="335"/>
      <point x="629" y="249"/>
      <point x="629" y="218" type="qcurve"/>
      <point x="629" y="199"/>
      <point x="607" y="152"/>
      <point x="572" y="103"/>
      <point x="527" y="57"/>
      <point x="481" y="20"/>
      <point x="435" y="-1"/>
      <point x="418" y="-1" type="qcurve" name="hr03"/>
      <point x="399" y="-1"/>
      <point x="360" y="16"/>
      <point x="329" y="38"/>
      <point x="308" y="56"/>
      <point x="307" y="56" type="qcurve"/>
      <point x="307" y="56"/>
      <point x="276" y="39"/>
      <point x="238" y="17"/>
      <point x="201" y="0"/>
      <point x="195" y="0" type="qcurve"/>
      <point x="183" y="0"/>
      <point x="120" y="15"/>
      <point x="52" y="46"/>
      <point x="0" y="93"/>
      <point x="0" y="125" type="qcurve" name="hr04"/>
      <point x="0" y="147"/>
      <point x="48" y="201"/>
      <point x="119" y="238"/>
      <point x="199" y="247"/>
      <point x="231" y="225" type="qcurve"/>
      <point x="225" y="225"/>
      <point x="209" y="217"/>
      <point x="195" y="206"/>
      <point x="183" y="195"/>
      <point x="182" y="191" type="qcurve"/>
      <point x="161" y="195"/>
      <point x="129" y="181"/>
      <point x="112" y="157"/>
      <point x="110" y="126"/>
      <point x="130" y="99"/>
      <point x="173" y="81"/>
      <point x="208" y="81" type="qcurve"/>
      <point x="248" y="81"/>
      <point x="290" y="108"/>
      <point x="296" y="139"/>
      <point x="265" y="166"/>
      <point x="231" y="166" type="qcurve"/>
      <point x="233" y="143"/>
      <point x="223" y="124"/>
      <point x="207" y="122"/>
      <point x="188" y="133"/>
      <point x="178" y="154"/>
      <point x="179" y="178"/>
      <point x="190" y="190" type="qcurve"/>
      <point x="206" y="212"/>
      <point x="245" y="219"/>
      <point x="288" y="205"/>
      <point x="330" y="175"/>
      <point x="367" y="146"/>
      <point x="395" y="125"/>
    </contour>
  </outline>
</glyph>
<glyph name="U0C12" format="1">
  <advance width="706"/>
  <unicode hex="0C12"/>
  <outline>
    <contour>
      <point x="556" y="272" type="qcurve"/>
      <point x="558" y="267"/>
      <point x="588" y="232"/>
      <point x="614" y="183"/>
      <point x="627" y="124"/>
      <point x="596" y="68"/>
      <point x="510" y="17"/>
      <point x="426" y="2" type="qcurve"/>
      <point x="404" y="-2"/>
      <point x="369" y="12"/>
      <point x="338" y="37"/>
      <point x="314" y="66"/>
      <point x="305" y="76" type="qcurve"/>
      <point x="303" y="71"/>
      <point x="285" y="46"/>
      <point x="256" y="19"/>
      <point x="218" y="0"/>
      <point x="197" y="0" type="qcurve"/>
      <point x="176" y="0"/>
      <point x="111" y="25"/>
      <point x="46" y="68"/>
      <point x="0" y="126"/>
      <point x="0" y="160" type="qcurve"/>
      <point x="0" y="182"/>
      <point x="33" y="214"/>
      <point x="83" y="238"/>
      <point x="141" y="254"/>
      <point x="191" y="269"/>
      <point x="224" y="288"/>
      <point x="224" y="301" type="qcurve"/>
      <point x="224" y="332"/>
      <point x="187" y="351"/>
      <point x="146" y="347"/>
      <point x="118" y="327"/>
      <point x="126" y="316" type="qcurve"/>
      <point x="139" y="333"/>
      <point x="161" y="319"/>
      <point x="165" y="292"/>
      <point x="145" y="263"/>
      <point x="117" y="263" type="qcurve"/>
      <point x="83" y="263"/>
      <point x="54" y="295"/>
      <point x="38" y="337"/>
      <point x="22" y="378"/>
      <point x="0" y="387" type="qcurve"/>
      <point x="32" y="402"/>
      <point x="69" y="434"/>
      <point x="102" y="459"/>
      <point x="147" y="474"/>
      <point x="186" y="474" type="qcurve"/>
      <point x="212" y="474"/>
      <point x="251" y="463"/>
      <point x="281" y="446"/>
      <point x="303" y="426"/>
      <point x="311" y="417" type="qcurve"/>
      <point x="318" y="406"/>
      <point x="332" y="374"/>
      <point x="337" y="341"/>
      <point x="334" y="310"/>
      <point x="325" y="301" type="qcurve"/>
      <point x="310" y="286"/>
      <point x="245" y="252"/>
      <point x="178" y="218"/>
      <point x="127" y="187"/>
      <point x="127" y="175" type="qcurve"/>
      <point x="127" y="167"/>
      <point x="150" y="141"/>
      <point x="178" y="119"/>
      <point x="206" y="102"/>
      <point x="212" y="102" type="qcurve" name="hr01"/>
      <point x="222" y="102"/>
      <point x="258" y="131"/>
      <point x="296" y="168"/>
      <point x="328" y="204"/>
      <point x="334" y="212" type="qcurve" name="hr02"/>
      <point x="339" y="207"/>
      <point x="366" y="172"/>
      <point x="402" y="132"/>
      <point x="446" y="101"/>
      <point x="468" y="101" type="qcurve"/>
      <point x="489" y="101"/>
      <point x="500" y="134"/>
      <point x="485" y="174"/>
      <point x="450" y="207"/>
      <point x="426" y="207" type="qcurve"/>
      <point x="433" y="183"/>
      <point x="408" y="165"/>
      <point x="378" y="172"/>
      <point x="366" y="203"/>
      <point x="387" y="228" type="qcurve"/>
      <point x="403" y="242"/>
      <point x="429" y="243"/>
      <point x="464" y="243"/>
      <point x="515" y="252"/>
    </contour>
  </outline>
</glyph>
<glyph name="U0C14" format="1">
  <advance width="706"/>
  <unicode hex="0C14"/>
  <outline>
    <contour>
      <point x="525" y="583" type="qcurve"/>
      <point x="536" y="568"/>
      <point x="539" y="534"/>
      <point x="526" y="505"/>
      <point x="499" y="488"/>
      <point x="477" y="493" type="qcurve"/>
      <point x="460" y="496"/>
      <point x="444" y="514"/>
      <point x="441" y="536"/>
      <point x="450" y="557"/>
      <point x="457" y="563" type="qcurve"/>
      <point x="432" y="555"/>
      <point x="421" y="519"/>
      <point x="433" y="484"/>
      <point x="465" y="459"/>
      <point x="484" y="461" type="qcurve"/>
      <point x="509" y="464"/>
      <point x="540" y="490"/>
      <point x="552" y="526"/>
      <point x="546" y="567"/>
      <point x="534" y="585" type="qcurve"/>
      <point x="523" y="599"/>
      <point x="473" y="617"/>
      <point x="416" y="620"/>
      <point x="364" y="603"/>
      <point x="351" y="584" type="qcurve"/>
      <point x="337" y="582"/>
      <point x="303" y="580"/>
      <point x="290" y="580" type="qcurve"/>
      <point x="312" y="554"/>
      <point x="299" y="510"/>
      <point x="254" y="476"/>
      <point x="194" y="457"/>
      <point x="171" y="457" type="qcurve"/>
      <point x="148" y="457"/>
      <point x="93" y="463"/>
      <point x="77" y="477" type="qcurve"/>
      <point x="74" y="480"/>
      <point x="65" y="488"/>
      <point x="57" y="499"/>
      <point x="56" y="511"/>
      <point x="61" y="517" type="qcurve"/>
      <point x="71" y="527"/>
      <point x="86" y="528"/>
      <point x="98" y="520"/>
      <point x="103" y="505"/>
      <point x="101" y="499" type="qcurve"/>
      <point x="125" y="497"/>
      <point x="168" y="501"/>
      <point x="200" y="515"/>
      <point x="219" y="540"/>
      <point x="218" y="557" type="qcurve"/>
      <point x="218" y="565"/>
      <point x="191" y="579"/>
      <point x="151" y="588"/>
      <point x="102" y="592"/>
      <point x="57" y="592"/>
      <point x="24" y="586"/>
      <point x="17" y="581" type="qcurve"/>
      <point x="28" y="565"/>
      <point x="15" y="545"/>
      <point x="-7" y="540"/>
      <point x="-30" y="552"/>
      <point x="-30" y="569" type="qcurve"/>
      <point x="-30" y="577"/>
      <point x="-15" y="609"/>
      <point x="-1" y="651"/>
      <point x="6" y="696"/>
      <point x="-1" y="715" type="qcurve"/>
      <point x="27" y="690"/>
      <point x="114" y="673"/>
      <point x="200" y="671"/>
      <point x="269" y="678"/>
      <point x="280" y="678" type="qcurve"/>
      <point x="308" y="681"/>
      <point x="384" y="688"/>
      <point x="462" y="686"/>
      <point x="536" y="670"/>
      <point x="593" y="631"/>
      <point x="626" y="565"/>
      <point x="624" y="515" type="qcurve"/>
      <point x="623" y="488"/>
      <point x="596" y="446"/>
      <point x="555" y="418"/>
      <point x="505" y="402"/>
      <point x="480" y="402" type="qcurve"/>
      <point x="424" y="402"/>
      <point x="355" y="437"/>
      <point x="327" y="492"/>
      <point x="337" y="557"/>
      <point x="360" y="588" type="qcurve"/>
      <point x="370" y="600"/>
      <point x="418" y="611"/>
      <point x="470" y="610"/>
      <point x="516" y="596"/>
    </contour>
    <contour>
      <point x="556" y="272" type="qcurve"/>
      <point x="558" y="267"/>
      <point x="588" y="232"/>
      <point x="614" y="183"/>
      <point x="627" y="124"/>
      <point x="596" y="68"/>
      <point x="510" y="17"/>
      <point x="426" y="2" type="qcurve"/>
      <point x="404" y="-2"/>
      <point x="369" y="12"/>
      <point x="338" y="37"/>
      <point x="314" y="66"/>
      <point x="305" y="76" type="qcurve"/>
      <point x="303" y="71"/>
      <point x="285" y="46"/>
      <point x="256" y="19"/>
      <point x="218" y="0"/>
      <point x="197" y="0" type="qcurve"/>
      <point x="176" y="0"/>
      <point x="111" y="25"/>
      <point x="46" y="68"/>
      <point x="0" y="126"/>
      <point x="0" y="160" type="qcurve"/>
      <point x="0" y="182"/>
      <point x="33" y="214"/>
      <point x="83" y="238"/>
      <point x="141" y="254"/>
      <point x="191" y="269"/>
      <point x="224" y="288"/>
      <point x="224" y="301" type="qcurve"/>
      <point x="224" y="332"/>
      <point x="187" y="351"/>
      <point x="146" y="347"/>
      <point x="118" y="327"/>
      <point x="126" y="316" type="qcurve"/>
      <point x="139" y="333"/>
      <point x="161" y="319"/>
      <point x="165" y="292"/>
      <point x="145" y="263"/>
      <point x="117" y="263" type="qcurve"/>
      <point x="83" y="263"/>
      <point x="54" y="295"/>
      <point x="38" y="337"/>
      <point x="22" y="378"/>
      <point x="0" y="387" type="qcurve"/>
      <point x="32" y="402"/>
      <point x="68" y="434"/>
      <point x="102" y="459"/>
      <point x="146" y="474"/>
      <point x="185" y="474" type="qcurve" name="hr01"/>
      <point x="211" y="474"/>
      <point x="251" y="463"/>
      <point x="281" y="446"/>
      <point x="303" y="426"/>
      <point x="311" y="417" type="qcurve"/>
      <point x="318" y="406"/>
      <point x="332" y="374"/>
      <point x="337" y="341"/>
      <point x="334" y="310"/>
      <point x="325" y="301" type="qcurve"/>
      <point x="310" y="286"/>
      <point x="245" y="252"/>
      <point x="178" y="218"/>
      <point x="127" y="187"/>
      <point x="127" y="175" type="qcurve"/>
      <point x="127" y="167"/>
      <point x="150" y="141"/>
      <point x="178" y="119"/>
      <point x="206" y="102"/>
      <point x="212" y="102" type="qcurve"/>
      <point x="222" y="102"/>
      <point x="258" y="131"/>
      <point x="296" y="168"/>
      <point x="328" y="204"/>
      <point x="334" y="212" type="qcurve"/>
      <point x="339" y="207"/>
      <point x="366" y="172"/>
      <point x="402" y="132"/>
      <point x="446" y="101"/>
      <point x="468" y="101" type="qcurve"/>
      <point x="489" y="101"/>
      <point x="500" y="134"/>
      <point x="485" y="174"/>
      <point x="450" y="207"/>
      <point x="426" y="207" type="qcurve"/>
      <point x="433" y="183"/>
      <point x="408" y="165"/>
      <point x="378" y="172"/>
      <point x="366" y="203"/>
      <point x="387" y="228" type="qcurve"/>
      <point x="403" y="242"/>
      <point x="429" y="243"/>
      <point x="464" y="243"/>
      <point x="515" y="252"/>
    </contour>
  </outline>
</glyph>
<glyph name="U0C15" format="1">
  <advance width="684"/>
  <unicode hex="0C15"/>
  <outline>
    <contour>
      <point x="488" y="666" type="qcurve" name="hr00"/>
      <point x="476" y="668"/>
      <point x="464" y="689"/>
      <point x="470" y="713"/>
      <point x="499" y="732"/>
      <point x="526" y="732" type="qcurve"/>
      <point x="559" y="732"/>
      <point x="589" y="700"/>
      <point x="589" y="656"/>
      <point x="565" y="608"/>
      <point x="545" y="593" type="qcurve"/>
      <point x="499" y="557"/>
      <point x="391" y="531"/>
      <point x="280" y="517"/>
      <point x="169" y="496"/>
      <point x="119" y="465" type="qcurve"/>
      <point x="129" y="457"/>
      <point x="130" y="437"/>
      <point x="120" y="422"/>
      <point x="100" y="414"/>
      <point x="82" y="417"/>
      <point x="66" y="435"/>
      <point x="63" y="455" type="qcurve"/>
      <point x="59" y="487"/>
      <point x="97" y="537"/>
      <point x="159" y="572"/>
      <point x="233" y="596"/>
      <point x="301" y="611"/>
      <point x="351" y="618"/>
      <point x="356" y="620" type="qcurve"/>
      <point x="384" y="624"/>
      <point x="454" y="635"/>
      <point x="517" y="649"/>
      <point x="540" y="690"/>
      <point x="519" y="701" type="qcurve"/>
      <point x="524" y="687"/>
      <point x="511" y="662"/>
    </contour>
    <contour>
      <point x="295" y="94" type="qcurve"/>
      <point x="342" y="128"/>
      <point x="344" y="145" type="qcurve"/>
      <point x="345" y="160"/>
      <point x="245" y="176"/>
      <point x="151" y="190"/>
      <point x="0" y="217"/>
      <point x="0" y="245" type="qcurve"/>
      <point x="-2" y="300"/>
      <point x="90" y="398"/>
      <point x="174" y="447"/>
      <point x="267" y="465"/>
      <point x="312" y="465" type="qcurve"/>
      <point x="356" y="465"/>
      <point x="436" y="451"/>
      <point x="499" y="430"/>
      <point x="539" y="407"/>
      <point x="543" y="399" type="qcurve"/>
      <point x="544" y="406"/>
      <point x="562" y="417"/>
      <point x="585" y="418"/>
      <point x="603" y="406"/>
      <point x="603" y="389" type="qcurve"/>
      <point x="603" y="369"/>
      <point x="574" y="341"/>
      <point x="536" y="327"/>
      <point x="498" y="322"/>
      <point x="488" y="321" type="qcurve"/>
      <point x="470" y="318"/>
      <point x="445" y="314"/>
      <point x="427" y="310"/>
      <point x="412" y="303"/>
      <point x="403" y="297" type="qcurve"/>
      <point x="400" y="316" type="line"/>
      <point x="421" y="334"/>
      <point x="413" y="365"/>
      <point x="372" y="383"/>
      <point x="307" y="388"/>
      <point x="238" y="376"/>
      <point x="161" y="339"/>
      <point x="146" y="314" type="qcurve"/>
      <point x="135" y="290"/>
      <point x="289" y="264"/>
      <point x="390" y="248"/>
      <point x="558" y="209"/>
      <point x="526" y="165" type="qcurve"/>
      <point x="493" y="127"/>
      <point x="439" y="75"/>
      <point x="377" y="24" type="qcurve"/>
      <point x="367" y="37"/>
      <point x="346" y="56"/>
      <point x="319" y="69"/>
      <point x="289" y="66"/>
      <point x="276" y="50" type="qcurve"/>
      <point x="265" y="37"/>
      <point x="265" y="11"/>
      <point x="276" y="-9"/>
      <point x="294" y="-20"/>
      <point x="301" y="-20" type="qcurve"/>
      <point x="294" y="-17"/>
      <point x="282" y="-5"/>
      <point x="275" y="12"/>
      <point x="279" y="34"/>
      <point x="287" y="42" type="qcurve"/>
      <point x="295" y="51"/>
      <point x="319" y="54"/>
      <point x="343" y="42"/>
      <point x="360" y="16"/>
      <point x="360" y="-2" type="qcurve"/>
      <point x="360" y="-14"/>
      <point x="344" y="-39"/>
      <point x="321" y="-56"/>
      <point x="296" y="-66"/>
      <point x="287" y="-66" type="qcurve"/>
      <point x="272" y="-66"/>
      <point x="243" y="-51"/>
      <point x="209" y="-31"/>
      <point x="181" y="-14"/>
      <point x="181" y="-12" type="qcurve"/>
      <point x="175" y="-10"/>
      <point x="166" y="-12"/>
      <point x="158" y="-13"/>
      <point x="148" y="-12"/>
      <point x="143" y="-6" type="qcurve"/>
      <point x="157" y="0"/>
      <point x="194" y="25"/>
    </contour>
    <contour>
      <point x="265" y="-88" type="move" name="mark0"/>
    </contour>
  </outline>
</glyph>
<glyph name="U0C16" format="1">
  <advance width="751"/>
  <unicode hex="0C16"/>
  <outline>
    <contour>
      <point x="379" y="-43" type="qcurve"/>
      <point x="379" y="-54"/>
      <point x="349" y="-80"/>
      <point x="312" y="-100"/>
      <point x="279" y="-114"/>
      <point x="275" y="-114" type="qcurve"/>
      <point x="262" y="-114"/>
      <point x="230" y="-102"/>
      <point x="203" y="-84"/>
      <point x="183" y="-60"/>
      <point x="183" y="-48" type="qcurve"/>
      <point x="183" y="-37"/>
      <point x="214" y="-11"/>
      <point x="252" y="10"/>
      <point x="288" y="25"/>
      <point x="294" y="25" type="qcurve"/>
      <point x="299" y="25"/>
      <point x="313" y="16"/>
      <point x="322" y="11" type="qcurve"/>
      <point x="305" y="12"/>
      <point x="269" y="-11"/>
      <point x="250" y="-39"/>
      <point x="256" y="-62"/>
      <point x="282" y="-62" type="qcurve"/>
      <point x="288" y="-62"/>
      <point x="309" y="-57"/>
      <point x="325" y="-47"/>
      <point x="328" y="-34"/>
      <point x="315" y="-25" type="qcurve"/>
      <point x="312" y="-40"/>
      <point x="297" y="-42"/>
      <point x="284" y="-30"/>
      <point x="280" y="-10"/>
      <point x="288" y="-4" type="qcurve"/>
      <point x="303" y="7"/>
      <point x="336" y="8"/>
      <point x="362" y="-5"/>
      <point x="379" y="-29"/>
    </contour>
    <contour>
      <point x="666" y="219" type="qcurve"/>
      <point x="666" y="199"/>
      <point x="634" y="151"/>
      <point x="585" y="101"/>
      <point x="525" y="56"/>
      <point x="471" y="22"/>
      <point x="428" y="0"/>
      <point x="420" y="0" type="qcurve"/>
      <point x="382" y="9"/>
      <point x="331" y="51"/>
      <point x="299" y="80" type="qcurve" name="hr01"/>
      <point x="287" y="71"/>
      <point x="253" y="43"/>
      <point x="216" y="18"/>
      <point x="179" y="1"/>
      <point x="164" y="1" type="qcurve"/>
      <point x="145" y="1"/>
      <point x="89" y="17"/>
      <point x="37" y="46"/>
      <point x="0" y="85"/>
      <point x="0" y="106" type="qcurve"/>
      <point x="0" y="128"/>
      <point x="50" y="183"/>
      <point x="117" y="232"/>
      <point x="179" y="266"/>
      <point x="191" y="266" type="qcurve"/>
      <point x="202" y="266"/>
      <point x="224" y="254"/>
      <point x="248" y="237"/>
      <point x="272" y="217"/>
      <point x="285" y="210" type="qcurve"/>
      <point x="297" y="249"/>
      <point x="287" y="311"/>
      <point x="256" y="354"/>
      <point x="213" y="378"/>
      <point x="170" y="379"/>
      <point x="136" y="357"/>
      <point x="130" y="334" type="qcurve"/>
      <point x="137" y="344"/>
      <point x="152" y="348"/>
      <point x="164" y="345"/>
      <point x="171" y="340"/>
      <point x="172" y="340" type="qcurve"/>
      <point x="176" y="340"/>
      <point x="184" y="322"/>
      <point x="178" y="299"/>
      <point x="150" y="281"/>
      <point x="117" y="281" type="qcurve"/>
      <point x="102" y="281"/>
      <point x="69" y="304"/>
      <point x="37" y="336"/>
      <point x="9" y="369"/>
      <point x="0" y="379" type="qcurve"/>
      <point x="6" y="386"/>
      <point x="42" y="416"/>
      <point x="89" y="446"/>
      <point x="144" y="470"/>
      <point x="170" y="469" type="qcurve"/>
      <point x="217" y="467"/>
      <point x="283" y="430"/>
      <point x="325" y="374"/>
      <point x="346" y="305"/>
      <point x="353" y="241"/>
      <point x="348" y="188"/>
      <point x="343" y="175" type="qcurve"/>
      <point x="344" y="172"/>
      <point x="360" y="157"/>
      <point x="382" y="141"/>
      <point x="406" y="129"/>
      <point x="413" y="129" type="qcurve"/>
      <point x="430" y="129"/>
      <point x="482" y="154"/>
      <point x="531" y="188"/>
      <point x="567" y="228"/>
      <point x="567" y="244" type="qcurve"/>
      <point x="567" y="264"/>
      <point x="555" y="316"/>
      <point x="532" y="362"/>
      <point x="503" y="392"/>
      <point x="485" y="391" type="qcurve"/>
      <point x="493" y="380"/>
      <point x="490" y="358"/>
      <point x="475" y="342"/>
      <point x="450" y="335"/>
      <point x="433" y="338" type="qcurve"/>
      <point x="409" y="343"/>
      <point x="388" y="387"/>
      <point x="399" y="435"/>
      <point x="444" y="473"/>
      <point x="485" y="473" type="qcurve"/>
      <point x="516" y="473"/>
      <point x="581" y="414"/>
      <point x="633" y="332"/>
      <point x="666" y="246"/>
    </contour>
    <contour>
      <point x="261" y="152" type="qcurve"/>
      <point x="261" y="158"/>
      <point x="243" y="177"/>
      <point x="218" y="197"/>
      <point x="193" y="210"/>
      <point x="186" y="210" type="qcurve"/>
      <point x="178" y="210"/>
      <point x="155" y="197"/>
      <point x="132" y="180"/>
      <point x="116" y="165"/>
      <point x="115" y="163" type="qcurve"/>
      <point x="118" y="157"/>
      <point x="141" y="138"/>
      <point x="172" y="122"/>
      <point x="205" y="111"/>
      <point x="217" y="111" type="qcurve"/>
      <point x="218" y="111"/>
      <point x="232" y="120"/>
      <point x="248" y="133"/>
      <point x="261" y="146"/>
    </contour>
    <contour>
      <point x="335" y="-137" type="move" name="mark0"/>
    </contour>
  </outline>
</glyph>
<glyph name="U0C17" format="1">
  <advance width="671"/>
  <unicode hex="0C17"/>
  <outline>
    <contour>
      <point x="278" y="471" type="qcurve" name="hr00"/>
      <point x="302" y="471"/>
      <point x="383" y="437"/>
      <point x="469" y="379"/>
      <point x="546" y="298"/>
      <point x="590" y="203"/>
      <point x="586" y="99"/>
      <point x="548" y="46" type="qcurve"/>
      <point x="546" y="53"/>
      <point x="525" y="74"/>
      <point x="499" y="86"/>
      <point x="468" y="83"/>
      <point x="456" y="68" type="qcurve"/>
      <point x="444" y="54"/>
      <point x="444" y="28"/>
      <point x="456" y="6"/>
      <point x="473" y="-6"/>
      <point x="480" y="-6" type="qcurve"/>
      <point x="473" y="-3"/>
      <point x="461" y="10"/>
      <point x="455" y="29"/>
      <point x="458" y="50"/>
      <point x="466" y="59" type="qcurve"/>
      <point x="474" y="69"/>
      <point x="499" y="72"/>
      <point x="522" y="59"/>
      <point x="540" y="33"/>
      <point x="540" y="13" type="qcurve"/>
      <point x="540" y="0"/>
      <point x="523" y="-25"/>
      <point x="500" y="-43"/>
      <point x="475" y="-53"/>
      <point x="466" y="-53" type="qcurve"/>
      <point x="452" y="-53"/>
      <point x="422" y="-38"/>
      <point x="388" y="-16"/>
      <point x="350" y="6"/>
      <point x="329" y="14" type="qcurve"/>
      <point x="323" y="16"/>
      <point x="313" y="14"/>
      <point x="305" y="12"/>
      <point x="296" y="14"/>
      <point x="291" y="20" type="qcurve"/>
      <point x="304" y="27"/>
      <point x="353" y="57"/>
      <point x="402" y="99"/>
      <point x="438" y="151"/>
      <point x="438" y="176" type="qcurve"/>
      <point x="438" y="195"/>
      <point x="410" y="238"/>
      <point x="366" y="281"/>
      <point x="311" y="319"/>
      <point x="259" y="349"/>
      <point x="214" y="367"/>
      <point x="203" y="367" type="qcurve"/>
      <point x="184" y="367"/>
      <point x="150" y="343"/>
      <point x="123" y="310"/>
      <point x="108" y="275"/>
      <point x="108" y="265" type="qcurve"/>
      <point x="108" y="249"/>
      <point x="138" y="200"/>
      <point x="182" y="155"/>
      <point x="230" y="122"/>
      <point x="248" y="122" type="qcurve"/>
      <point x="270" y="122"/>
      <point x="282" y="131"/>
      <point x="289" y="136" type="qcurve"/>
      <point x="280" y="138"/>
      <point x="273" y="156"/>
      <point x="280" y="173"/>
      <point x="299" y="183"/>
      <point x="315" y="179" type="qcurve"/>
      <point x="332" y="174"/>
      <point x="336" y="144"/>
      <point x="334" y="133" type="qcurve"/>
      <point x="329" y="109"/>
      <point x="284" y="71"/>
      <point x="230" y="40"/>
      <point x="179" y="12"/>
      <point x="167" y="-2" type="qcurve"/>
      <point x="151" y="19"/>
      <point x="94" y="62"/>
      <point x="40" y="113"/>
      <point x="0" y="172"/>
      <point x="0" y="208" type="qcurve"/>
      <point x="0" y="233"/>
      <point x="14" y="276"/>
      <point x="44" y="317"/>
      <point x="87" y="359"/>
      <point x="115" y="384" type="qcurve"/>
      <point x="170" y="434"/>
      <point x="254" y="471"/>
    </contour>
    <contour>
      <point x="478" y="666" type="qcurve"/>
      <point x="466" y="668"/>
      <point x="454" y="689"/>
      <point x="460" y="713"/>
      <point x="488" y="732"/>
      <point x="516" y="732" type="qcurve"/>
      <point x="549" y="732"/>
      <point x="579" y="700"/>
      <point x="579" y="656"/>
      <point x="555" y="608"/>
      <point x="535" y="593" type="qcurve"/>
      <point x="488" y="557"/>
      <point x="381" y="531"/>
      <point x="269" y="517"/>
      <point x="159" y="496"/>
      <point x="109" y="465" type="qcurve"/>
      <point x="119" y="457"/>
      <point x="120" y="437"/>
      <point x="110" y="422"/>
      <point x="90" y="414"/>
      <point x="72" y="417"/>
      <point x="55" y="435"/>
      <point x="53" y="455" type="qcurve"/>
      <point x="49" y="487"/>
      <point x="87" y="537"/>
      <point x="148" y="572"/>
      <point x="223" y="596"/>
      <point x="291" y="611"/>
      <point x="341" y="618"/>
      <point x="346" y="620" type="qcurve"/>
      <point x="374" y="624"/>
      <point x="443" y="635"/>
      <point x="507" y="649"/>
      <point x="529" y="690"/>
      <point x="509" y="701" type="qcurve"/>
      <point x="514" y="687"/>
      <point x="501" y="662"/>
    </contour>
    <contour>
      <point x="307" y="0" type="move" name="mark0"/>
    </contour>
  </outline>
</glyph>
<glyph name="U0C18" format="1">
  <advance width="1053"/>
  <unicode hex="0C18"/>
  <outline>
    <contour>
      <point x="970" y="242" type="qcurve" name="hr00"/>
      <point x="970" y="221"/>
      <point x="944" y="169"/>
      <point x="902" y="116"/>
      <point x="850" y="65"/>
      <point x="796" y="25"/>
      <point x="744" y="0"/>
      <point x="725" y="0" type="qcurve"/>
      <point x="698" y="0"/>
      <point x="632" y="24"/>
      <point x="563" y="57"/>
      <point x="501" y="94"/>
      <point x="480" y="106" type="qcurve"/>
      <point x="496" y="127"/>
      <point x="511" y="146" type="qcurve"/>
      <point x="524" y="164"/>
      <point x="552" y="202"/>
      <point x="563" y="219" type="qcurve"/>
      <point x="580" y="213"/>
      <point x="627" y="185"/>
      <point x="676" y="157"/>
      <point x="720" y="135"/>
      <point x="734" y="134" type="qcurve"/>
      <point x="744" y="132"/>
      <point x="790" y="157"/>
      <point x="836" y="193"/>
      <point x="869" y="230"/>
      <point x="869" y="243" type="qcurve"/>
      <point x="868" y="263"/>
      <point x="848" y="310"/>
      <point x="818" y="355"/>
      <point x="783" y="391"/>
      <point x="769" y="401" type="qcurve"/>
      <point x="772" y="373"/>
      <point x="741" y="348"/>
      <point x="702" y="353"/>
      <point x="672" y="386"/>
      <point x="676" y="414" type="qcurve"/>
      <point x="682" y="454"/>
      <point x="730" y="477"/>
      <point x="796" y="459"/>
      <point x="868" y="410"/>
      <point x="930" y="344"/>
      <point x="970" y="272"/>
    </contour>
    <contour>
      <point x="175" y="223" type="qcurve"/>
      <point x="147" y="217"/>
      <point x="98" y="189"/>
      <point x="98" y="173" type="qcurve"/>
      <point x="98" y="158"/>
      <point x="117" y="135"/>
      <point x="143" y="120"/>
      <point x="175" y="113"/>
      <point x="188" y="113" type="qcurve"/>
      <point x="214" y="113"/>
      <point x="257" y="134"/>
      <point x="278" y="163"/>
      <point x="269" y="193"/>
      <point x="245" y="202" type="qcurve"/>
      <point x="244" y="194"/>
      <point x="243" y="181"/>
      <point x="238" y="172"/>
      <point x="226" y="167"/>
      <point x="215" y="167" type="qcurve"/>
      <point x="204" y="167"/>
      <point x="187" y="182"/>
      <point x="180" y="204"/>
      <point x="185" y="227"/>
      <point x="197" y="234" type="qcurve"/>
      <point x="213" y="243"/>
      <point x="231" y="247"/>
      <point x="254" y="242" type="qcurve"/>
      <point x="276" y="230"/>
      <point x="322" y="203"/>
      <point x="365" y="178"/>
      <point x="403" y="160"/>
      <point x="420" y="158" type="qcurve"/>
      <point x="445" y="165"/>
      <point x="484" y="189"/>
      <point x="512" y="218"/>
      <point x="526" y="250"/>
      <point x="526" y="264" type="qcurve"/>
      <point x="526" y="274"/>
      <point x="518" y="312"/>
      <point x="498" y="355"/>
      <point x="463" y="396"/>
      <point x="435" y="410" type="qcurve"/>
      <point x="432" y="393"/>
      <point x="401" y="387"/>
      <point x="375" y="400"/>
      <point x="362" y="430"/>
      <point x="378" y="450" type="qcurve"/>
      <point x="390" y="466"/>
      <point x="418" y="471"/>
      <point x="433" y="471" type="qcurve"/>
      <point x="456" y="471"/>
      <point x="524" y="429"/>
      <point x="589" y="361"/>
      <point x="634" y="274"/>
      <point x="634" y="229" type="qcurve"/>
      <point x="634" y="198"/>
      <point x="597" y="119"/>
      <point x="541" y="48"/>
      <point x="472" y="0"/>
      <point x="441" y="0" type="qcurve"/>
      <point x="418" y="0"/>
      <point x="369" y="24"/>
      <point x="329" y="53"/>
      <point x="300" y="77"/>
      <point x="297" y="77" type="qcurve"/>
      <point x="297" y="77"/>
      <point x="272" y="53"/>
      <point x="236" y="24"/>
      <point x="193" y="0"/>
      <point x="173" y="0" type="qcurve"/>
      <point x="158" y="0"/>
      <point x="99" y="24"/>
      <point x="42" y="61"/>
      <point x="0" y="111"/>
      <point x="0" y="137" type="qcurve"/>
      <point x="0" y="165"/>
      <point x="44" y="214"/>
      <point x="102" y="252"/>
      <point x="161" y="273"/>
      <point x="176" y="273" type="qcurve"/>
      <point x="177" y="273"/>
      <point x="189" y="270"/>
      <point x="207" y="265"/>
      <point x="227" y="257"/>
      <point x="236" y="253" type="qcurve"/>
      <point x="211" y="255"/>
      <point x="183" y="238"/>
    </contour>
    <contour>
      <point x="427" y="666" type="qcurve"/>
      <point x="415" y="668"/>
      <point x="402" y="689"/>
      <point x="409" y="713"/>
      <point x="437" y="732"/>
      <point x="465" y="732" type="qcurve"/>
      <point x="498" y="732"/>
      <point x="527" y="700"/>
      <point x="527" y="656"/>
      <point x="504" y="608"/>
      <point x="483" y="593" type="qcurve"/>
      <point x="437" y="557"/>
      <point x="330" y="531"/>
      <point x="218" y="517"/>
      <point x="108" y="496"/>
      <point x="57" y="465" type="qcurve"/>
      <point x="68" y="457"/>
      <point x="69" y="437"/>
      <point x="58" y="422"/>
      <point x="39" y="414"/>
      <point x="20" y="417"/>
      <point x="4" y="435"/>
      <point x="2" y="455" type="qcurve"/>
      <point x="-2" y="487"/>
      <point x="36" y="537"/>
      <point x="97" y="572"/>
      <point x="172" y="596"/>
      <point x="240" y="611"/>
      <point x="290" y="618"/>
      <point x="295" y="620" type="qcurve"/>
      <point x="323" y="624"/>
      <point x="392" y="635"/>
      <point x="456" y="649"/>
      <point x="478" y="690"/>
      <point x="458" y="701" type="qcurve"/>
      <point x="463" y="687"/>
      <point x="450" y="662"/>
    </contour>
    <contour>
      <point x="379" y="-43" type="qcurve"/>
      <point x="379" y="-54"/>
      <point x="349" y="-80"/>
      <point x="312" y="-100"/>
      <point x="279" y="-114"/>
      <point x="275" y="-114" type="qcurve"/>
      <point x="262" y="-114"/>
      <point x="230" y="-102"/>
      <point x="203" y="-84"/>
      <point x="183" y="-60"/>
      <point x="183" y="-48" type="qcurve"/>
      <point x="183" y="-37"/>
      <point x="214" y="-11"/>
      <point x="252" y="10"/>
      <point x="288" y="25"/>
      <point x="294" y="25" type="qcurve"/>
      <point x="299" y="25"/>
      <point x="313" y="16"/>
      <point x="322" y="11" type="qcurve"/>
      <point x="305" y="12"/>
      <point x="269" y="-11"/>
      <point x="250" y="-39"/>
      <point x="256" y="-62"/>
      <point x="282" y="-62" type="qcurve"/>
      <point x="288" y="-62"/>
      <point x="309" y="-57"/>
      <point x="325" y="-47"/>
      <point x="328" y="-34"/>
      <point x="315" y="-25" type="qcurve"/>
      <point x="312" y="-40"/>
      <point x="297" y="-42"/>
      <point x="284" y="-30"/>
      <point x="280" y="-10"/>
      <point x="288" y="-4" type="qcurve"/>
      <point x="303" y="7"/>
      <point x="336" y="8"/>
      <point x="362" y="-5"/>
      <point x="379" y="-29"/>
    </contour>
  </outline>
</glyph>
<glyph name="U0C19" format="1">
  <advance width="705"/>
  <unicode hex="0C19"/>
  <outline>
    <contour>
      <point x="556" y="272" type="qcurve"/>
      <point x="558" y="267"/>
      <point x="588" y="232"/>
      <point x="614" y="183"/>
      <point x="627" y="124"/>
      <point x="596" y="68"/>
      <point x="510" y="17"/>
      <point x="426" y="2" type="qcurve"/>
      <point x="404" y="-2"/>
      <point x="369" y="12"/>
      <point x="338" y="37"/>
      <point x="314" y="66"/>
      <point x="305" y="76" type="qcurve"/>
      <point x="303" y="71"/>
      <point x="285" y="46"/>
      <point x="256" y="19"/>
      <point x="218" y="0"/>
      <point x="197" y="0" type="qcurve"/>
      <point x="176" y="0"/>
      <point x="111" y="25"/>
      <point x="46" y="68"/>
      <point x="0" y="126"/>
      <point x="0" y="160" type="qcurve"/>
      <point x="0" y="182"/>
      <point x="33" y="214"/>
      <point x="83" y="238"/>
      <point x="141" y="254"/>
      <point x="191" y="269"/>
      <point x="224" y="288"/>
      <point x="224" y="301" type="qcurve"/>
      <point x="224" y="332"/>
      <point x="187" y="351"/>
      <point x="146" y="347"/>
      <point x="118" y="327"/>
      <point x="126" y="316" type="qcurve"/>
      <point x="139" y="333"/>
      <point x="161" y="319"/>
      <point x="165" y="292"/>
      <point x="145" y="263"/>
      <point x="117" y="263" type="qcurve"/>
      <point x="83" y="263"/>
      <point x="54" y="295"/>
      <point x="38" y="337"/>
      <point x="22" y="378"/>
      <point x="0" y="387" type="qcurve"/>
      <point x="32" y="402"/>
      <point x="68" y="433"/>
      <point x="102" y="457"/>
      <point x="146" y="471"/>
      <point x="185" y="471" type="qcurve"/>
      <point x="211" y="471"/>
      <point x="251" y="461"/>
      <point x="281" y="445"/>
      <point x="303" y="426"/>
      <point x="311" y="417" type="qcurve"/>
      <point x="318" y="406"/>
      <point x="332" y="374"/>
      <point x="337" y="341"/>
      <point x="334" y="310"/>
      <point x="325" y="301" type="qcurve"/>
      <point x="310" y="286"/>
      <point x="245" y="252"/>
      <point x="178" y="218"/>
      <point x="127" y="187"/>
      <point x="127" y="175" type="qcurve"/>
      <point x="127" y="167"/>
      <point x="150" y="141"/>
      <point x="178" y="119"/>
      <point x="206" y="102"/>
      <point x="212" y="102" type="qcurve"/>
      <point x="222" y="102"/>
      <point x="258" y="131"/>
      <point x="296" y="168"/>
      <point x="328" y="204"/>
      <point x="334" y="212" type="qcurve"/>
      <point x="339" y="207"/>
      <point x="366" y="172"/>
      <point x="402" y="132"/>
      <point x="446" y="101"/>
      <point x="468" y="101" type="qcurve"/>
      <point x="489" y="101"/>
      <point x="500" y="134"/>
      <point x="485" y="174"/>
      <point x="450" y="207"/>
      <point x="426" y="207" type="qcurve"/>
      <point x="429" y="193"/>
      <point x="410" y="181"/>
      <point x="387" y="187"/>
      <point x="376" y="210"/>
      <point x="387" y="228" type="qcurve"/>
      <point x="403" y="242"/>
      <point x="429" y="243"/>
      <point x="464" y="243"/>
      <point x="515" y="252"/>
    </contour>
    <contour>
      <point x="311" y="416" type="line"/>
      <point x="344" y="401"/>
      <point x="401" y="396"/>
      <point x="451" y="403"/>
      <point x="492" y="416"/>
      <point x="524" y="425"/>
      <point x="550" y="424"/>
      <point x="558" y="413" type="qcurve"/>
      <point x="570" y="398"/>
      <point x="563" y="377"/>
      <point x="546" y="366"/>
      <point x="526" y="368"/>
      <point x="525" y="377" type="qcurve"/>
      <point x="515" y="370"/>
      <point x="508" y="359" type="qcurve"/>
      <point x="502" y="351"/>
      <point x="495" y="325"/>
      <point x="500" y="308" type="qcurve"/>
      <point x="455" y="331"/>
      <point x="373" y="337"/>
      <point x="324" y="318" type="qcurve"/>
    </contour>
    <contour>
      <point x="369" y="278" type="qcurve"/>
      <point x="370" y="284"/>
      <point x="378" y="297"/>
      <point x="378" y="298" type="qcurve"/>
      <point x="384" y="311"/>
      <point x="390" y="349"/>
      <point x="390" y="392"/>
      <point x="383" y="438"/>
      <point x="375" y="461" type="qcurve"/>
      <point x="390" y="454"/>
      <point x="417" y="458"/>
      <point x="426" y="463" type="qcurve"/>
      <point x="437" y="468"/>
      <point x="445" y="478" type="qcurve"/>
      <point x="437" y="480"/>
      <point x="437" y="500"/>
      <point x="450" y="516"/>
      <point x="472" y="520"/>
      <point x="485" y="507" type="qcurve" name="hr01"/>
      <point x="495" y="497"/>
      <point x="493" y="474"/>
      <point x="477" y="446"/>
      <point x="456" y="411"/>
      <point x="438" y="367"/>
      <point x="429" y="310"/>
      <point x="435" y="276" type="qcurve" name="hr02"/>
      <point x="436" y="275"/>
      <point x="438" y="272"/>
      <point x="437" y="272" type="qcurve"/>
      <point x="424" y="272"/>
      <point x="410" y="267"/>
      <point x="400" y="260"/>
      <point x="393" y="255"/>
      <point x="387" y="255" type="qcurve"/>
      <point x="378" y="256"/>
      <point x="367" y="266"/>
    </contour>
    <contour>
      <point x="294" y="-22" type="move" name="mark0"/>
    </contour>
  </outline>
</glyph>
<glyph name="U0C1A" format="1">
  <advance width="783"/>
  <unicode hex="0C1A"/>
  <outline>
    <contour>
      <point x="250" y="470" type="qcurve" name="hr00"/>
      <point x="267" y="457"/>
      <point x="336" y="434"/>
      <point x="436" y="401"/>
      <point x="546" y="359"/>
      <point x="640" y="308"/>
      <point x="701" y="250"/>
      <point x="701" y="217" type="qcurve"/>
      <point x="701" y="176"/>
      <point x="649" y="98"/>
      <point x="579" y="37"/>
      <point x="506" y="0"/>
      <point x="485" y="0" type="qcurve"/>
      <point x="472" y="0"/>
      <point x="438" y="17"/>
      <point x="406" y="43"/>
      <point x="377" y="71"/>
      <point x="370" y="80" type="qcurve"/>
      <point x="369" y="79"/>
      <point x="344" y="54"/>
      <point x="312" y="25"/>
      <point x="283" y="0"/>
      <point x="278" y="0" type="qcurve"/>
      <point x="253" y="0"/>
      <point x="189" y="22"/>
      <point x="132" y="59"/>
      <point x="92" y="110"/>
      <point x="92" y="138" type="qcurve"/>
      <point x="92" y="144"/>
      <point x="101" y="166"/>
      <point x="117" y="190"/>
      <point x="136" y="214"/>
      <point x="147" y="222" type="qcurve"/>
      <point x="101" y="215"/>
      <point x="41" y="230"/>
      <point x="7" y="263"/>
      <point x="-1" y="304"/>
      <point x="9" y="341"/>
      <point x="36" y="367"/>
      <point x="55" y="367" type="qcurve"/>
      <point x="61" y="367"/>
      <point x="79" y="361"/>
      <point x="92" y="350"/>
      <point x="98" y="332"/>
      <point x="93" y="319" type="qcurve"/>
      <point x="89" y="310"/>
      <point x="74" y="302"/>
      <point x="58" y="304"/>
      <point x="46" y="316"/>
      <point x="46" y="329" type="qcurve"/>
      <point x="42" y="311"/>
      <point x="58" y="296"/>
      <point x="82" y="296"/>
      <point x="102" y="308"/>
      <point x="102" y="318" type="qcurve"/>
      <point x="121" y="305"/>
      <point x="179" y="297"/>
      <point x="242" y="298"/>
      <point x="303" y="307"/>
      <point x="325" y="310" type="qcurve"/>
      <point x="343" y="281"/>
      <point x="330" y="240"/>
      <point x="303" y="221" type="qcurve"/>
      <point x="292" y="234"/>
      <point x="254" y="239"/>
      <point x="218" y="226"/>
      <point x="191" y="199"/>
      <point x="191" y="182" type="qcurve"/>
      <point x="193" y="161"/>
      <point x="237" y="132"/>
      <point x="286" y="117"/>
      <point x="316" y="121"/>
      <point x="343" y="152" type="qcurve"/>
      <point x="357" y="166"/>
      <point x="370" y="185" type="qcurve"/>
      <point x="386" y="166"/>
      <point x="424" y="122"/>
      <point x="468" y="109"/>
      <point x="514" y="129"/>
      <point x="561" y="163"/>
      <point x="595" y="203"/>
      <point x="595" y="224" type="qcurve"/>
      <point x="595" y="240"/>
      <point x="564" y="266"/>
      <point x="518" y="288"/>
      <point x="464" y="306"/>
      <point x="440" y="313" type="qcurve"/>
      <point x="427" y="318"/>
      <point x="373" y="335"/>
      <point x="308" y="356"/>
      <point x="240" y="385"/>
      <point x="183" y="419"/>
      <point x="147" y="459"/>
      <point x="147" y="481" type="qcurve"/>
      <point x="152" y="522"/>
      <point x="243" y="572"/>
      <point x="317" y="596"/>
      <point x="385" y="611"/>
      <point x="435" y="618"/>
      <point x="440" y="620" type="qcurve"/>
      <point x="468" y="624"/>
      <point x="538" y="635"/>
      <point x="601" y="649"/>
      <point x="624" y="690"/>
      <point x="603" y="701" type="qcurve"/>
      <point x="608" y="687"/>
      <point x="595" y="662"/>
      <point x="572" y="666" type="qcurve"/>
      <point x="560" y="668"/>
      <point x="548" y="689"/>
      <point x="554" y="713"/>
      <point x="583" y="732"/>
      <point x="610" y="732" type="qcurve"/>
      <point x="643" y="732"/>
      <point x="673" y="700"/>
      <point x="673" y="656"/>
      <point x="649" y="608"/>
      <point x="629" y="593" type="qcurve"/>
      <point x="583" y="557"/>
      <point x="475" y="531"/>
      <point x="364" y="517"/>
      <point x="227" y="496"/>
    </contour>
  </outline>
</glyph>
<glyph name="U0C1B" format="1">
  <advance width="783"/>
  <unicode hex="0C1B"/>
  <outline>
    <contour>
      <point x="250" y="470" type="qcurve" name="hr00"/>
      <point x="267" y="457"/>
      <point x="336" y="434"/>
      <point x="436" y="401"/>
      <point x="546" y="359"/>
      <point x="640" y="308"/>
      <point x="701" y="250"/>
      <point x="701" y="217" type="qcurve"/>
      <point x="701" y="176"/>
      <point x="649" y="98"/>
      <point x="579" y="37"/>
      <point x="506" y="0"/>
      <point x="485" y="0" type="qcurve"/>
      <point x="472" y="0"/>
      <point x="438" y="17"/>
      <point x="406" y="43"/>
      <point x="377" y="71"/>
      <point x="370" y="80" type="qcurve"/>
      <point x="369" y="79"/>
      <point x="344" y="54"/>
      <point x="312" y="25"/>
      <point x="283" y="0"/>
      <point x="278" y="0" type="qcurve"/>
      <point x="253" y="0"/>
      <point x="189" y="22"/>
      <point x="132" y="59"/>
      <point x="92" y="110"/>
      <point x="92" y="138" type="qcurve"/>
      <point x="92" y="144"/>
      <point x="101" y="166"/>
      <point x="117" y="190"/>
      <point x="136" y="214"/>
      <point x="147" y="222" type="qcurve"/>
      <point x="101" y="215"/>
      <point x="41" y="230"/>
      <point x="7" y="263"/>
      <point x="-1" y="304"/>
      <point x="9" y="341"/>
      <point x="36" y="367"/>
      <point x="55" y="367" type="qcurve"/>
      <point x="61" y="367"/>
      <point x="79" y="361"/>
      <point x="92" y="350"/>
      <point x="98" y="332"/>
      <point x="93" y="319" type="qcurve"/>
      <point x="89" y="310"/>
      <point x="74" y="302"/>
      <point x="58" y="304"/>
      <point x="46" y="316"/>
      <point x="46" y="329" type="qcurve"/>
      <point x="42" y="311"/>
      <point x="58" y="296"/>
      <point x="82" y="296"/>
      <point x="102" y="308"/>
      <point x="102" y="318" type="qcurve"/>
      <point x="121" y="305"/>
      <point x="179" y="297"/>
      <point x="242" y="298"/>
      <point x="303" y="307"/>
      <point x="325" y="310" type="qcurve"/>
      <point x="343" y="281"/>
      <point x="330" y="240"/>
      <point x="303" y="221" type="qcurve"/>
      <point x="292" y="234"/>
      <point x="254" y="239"/>
      <point x="218" y="226"/>
      <point x="191" y="199"/>
      <point x="191" y="182" type="qcurve"/>
      <point x="193" y="161"/>
      <point x="237" y="132"/>
      <point x="286" y="117"/>
      <point x="316" y="121"/>
      <point x="343" y="152" type="qcurve"/>
      <point x="357" y="166"/>
      <point x="370" y="185" type="qcurve"/>
      <point x="386" y="166"/>
      <point x="424" y="122"/>
      <point x="468" y="109"/>
      <point x="514" y="129"/>
      <point x="561" y="163"/>
      <point x="595" y="203"/>
      <point x="595" y="224" type="qcurve"/>
      <point x="595" y="240"/>
      <point x="564" y="266"/>
      <point x="518" y="288"/>
      <point x="464" y="306"/>
      <point x="440" y="313" type="qcurve"/>
      <point x="427" y="318"/>
      <point x="373" y="335"/>
      <point x="308" y="356"/>
      <point x="240" y="385"/>
      <point x="183" y="419"/>
      <point x="147" y="459"/>
      <point x="147" y="481" type="qcurve"/>
      <point x="152" y="522"/>
      <point x="243" y="572"/>
      <point x="317" y="596"/>
      <point x="385" y="611"/>
      <point x="435" y="618"/>
      <point x="440" y="620" type="qcurve"/>
      <point x="468" y="624"/>
      <point x="538" y="635"/>
      <point x="601" y="649"/>
      <point x="624" y="690"/>
      <point x="603" y="701" type="qcurve"/>
      <point x="608" y="687"/>
      <point x="595" y="662"/>
      <point x="572" y="666" type="qcurve"/>
      <point x="560" y="668"/>
      <point x="548" y="689"/>
      <point x="554" y="713"/>
      <point x="583" y="732"/>
      <point x="610" y="732" type="qcurve"/>
      <point x="643" y="732"/>
      <point x="673" y="700"/>
      <point x="673" y="656"/>
      <point x="649" y="608"/>
      <point x="629" y="593" type="qcurve"/>
      <point x="583" y="557"/>
      <point x="475" y="531"/>
      <point x="364" y="517"/>
      <point x="227" y="496"/>
    </contour>
    <contour>
      <point x="461" y="-43" type="qcurve"/>
      <point x="461" y="-54"/>
      <point x="431" y="-80"/>
      <point x="394" y="-100"/>
      <point x="360" y="-114"/>
      <point x="357" y="-114" type="qcurve"/>
      <point x="344" y="-114"/>
      <point x="312" y="-102"/>
      <point x="285" y="-84"/>
      <point x="265" y="-60"/>
      <point x="265" y="-48" type="qcurve"/>
      <point x="265" y="-37"/>
      <point x="296" y="-11"/>
      <point x="334" y="10"/>
      <point x="370" y="25"/>
      <point x="376" y="25" type="qcurve"/>
      <point x="381" y="25"/>
      <point x="395" y="16"/>
      <point x="403" y="11" type="qcurve"/>
      <point x="387" y="12"/>
      <point x="351" y="-11"/>
      <point x="332" y="-39"/>
      <point x="338" y="-62"/>
      <point x="364" y="-62" type="qcurve"/>
      <point x="370" y="-62"/>
      <point x="391" y="-57"/>
      <point x="407" y="-47"/>
      <point x="410" y="-34"/>
      <point x="397" y="-25" type="qcurve"/>
      <point x="394" y="-40"/>
      <point x="379" y="-42"/>
      <point x="366" y="-30"/>
      <point x="361" y="-10"/>
      <point x="370" y="-4" type="qcurve"/>
      <point x="385" y="7"/>
      <point x="418" y="8"/>
      <point x="444" y="-5"/>
      <point x="461" y="-29"/>
    </contour>
  </outline>
</glyph>
<glyph name="U0C1C" format="1">
  <advance width="701"/>
  <unicode hex="0C1C"/>
  <outline>
    <contour>
      <point x="556" y="272" type="qcurve"/>
      <point x="558" y="267"/>
      <point x="588" y="232"/>
      <point x="614" y="183"/>
      <point x="627" y="124"/>
      <point x="596" y="68"/>
      <point x="510" y="17"/>
      <point x="426" y="2" type="qcurve"/>
      <point x="404" y="-2"/>
      <point x="369" y="12"/>
      <point x="338" y="37"/>
      <point x="314" y="66"/>
      <point x="305" y="76" type="qcurve"/>
      <point x="303" y="71"/>
      <point x="285" y="46"/>
      <point x="256" y="19"/>
      <point x="218" y="0"/>
      <point x="197" y="0" type="qcurve"/>
      <point x="176" y="0"/>
      <point x="111" y="25"/>
      <point x="46" y="68"/>
      <point x="0" y="126"/>
      <point x="0" y="160" type="qcurve"/>
      <point x="0" y="182"/>
      <point x="33" y="214"/>
      <point x="83" y="238"/>
      <point x="141" y="254"/>
      <point x="191" y="269"/>
      <point x="224" y="288"/>
      <point x="224" y="301" type="qcurve"/>
      <point x="224" y="332"/>
      <point x="187" y="351"/>
      <point x="146" y="347"/>
      <point x="118" y="327"/>
      <point x="126" y="316" type="qcurve"/>
      <point x="139" y="333"/>
      <point x="161" y="319"/>
      <point x="165" y="292"/>
      <point x="145" y="263"/>
      <point x="117" y="263" type="qcurve"/>
      <point x="83" y="263"/>
      <point x="54" y="295"/>
      <point x="38" y="337"/>
      <point x="22" y="378"/>
      <point x="0" y="387" type="qcurve"/>
      <point x="32" y="402"/>
      <point x="68" y="434"/>
      <point x="100" y="459"/>
      <point x="144" y="474"/>
      <point x="183" y="474" type="qcurve"/>
      <point x="209" y="474"/>
      <point x="249" y="463"/>
      <point x="280" y="446"/>
      <point x="303" y="426"/>
      <point x="311" y="417" type="qcurve"/>
      <point x="318" y="406"/>
      <point x="332" y="374"/>
      <point x="337" y="341"/>
      <point x="334" y="310"/>
      <point x="325" y="301" type="qcurve"/>
      <point x="310" y="286"/>
      <point x="245" y="252"/>
      <point x="178" y="218"/>
      <point x="127" y="187"/>
      <point x="127" y="175" type="qcurve"/>
      <point x="127" y="167"/>
      <point x="150" y="141"/>
      <point x="178" y="119"/>
      <point x="206" y="102"/>
      <point x="212" y="102" type="qcurve"/>
      <point x="222" y="102"/>
      <point x="258" y="131"/>
      <point x="296" y="168"/>
      <point x="328" y="204"/>
      <point x="334" y="212" type="qcurve"/>
      <point x="339" y="207"/>
      <point x="366" y="172"/>
      <point x="402" y="132"/>
      <point x="446" y="101"/>
      <point x="468" y="101" type="qcurve"/>
      <point x="489" y="101"/>
      <point x="500" y="134"/>
      <point x="485" y="174"/>
      <point x="450" y="207"/>
      <point x="426" y="207" type="qcurve"/>
      <point x="433" y="183"/>
      <point x="408" y="165"/>
      <point x="378" y="172"/>
      <point x="366" y="203"/>
      <point x="387" y="228" type="qcurve"/>
      <point x="403" y="242"/>
      <point x="429" y="243"/>
      <point x="464" y="243"/>
      <point x="515" y="252"/>
    </contour>
    <contour>
      <point x="530" y="481" type="qcurve"/>
      <point x="565" y="461"/>
      <point x="605" y="422"/>
      <point x="604" y="391" type="qcurve" name="hr01"/>
      <point x="604" y="371"/>
      <point x="564" y="326"/>
      <point x="511" y="289"/>
      <point x="456" y="263"/>
      <point x="439" y="262" type="qcurve"/>
      <point x="428" y="261"/>
      <point x="398" y="269"/>
      <point x="368" y="282"/>
      <point x="338" y="295"/>
      <point x="326" y="300" type="qcurve"/>
      <point x="322" y="301"/>
      <point x="302" y="336"/>
      <point x="283" y="381"/>
      <point x="268" y="424"/>
      <point x="272" y="444"/>
      <point x="299" y="432"/>
      <point x="330" y="398" type="qcurve"/>
      <point x="334" y="393"/>
      <point x="359" y="375"/>
      <point x="389" y="358"/>
      <point x="419" y="346"/>
      <point x="428" y="346" type="qcurve"/>
      <point x="434" y="346"/>
      <point x="459" y="355"/>
      <point x="483" y="370"/>
      <point x="503" y="389"/>
      <point x="504" y="399" type="qcurve"/>
      <point x="499" y="414"/>
      <point x="470" y="427"/>
      <point x="456" y="437" type="qcurve"/>
      <point x="455" y="425"/>
      <point x="435" y="420"/>
      <point x="417" y="430"/>
      <point x="412" y="452"/>
      <point x="424" y="464" type="qcurve"/>
      <point x="432" y="474"/>
      <point x="462" y="476"/>
      <point x="494" y="473"/>
      <point x="522" y="473"/>
    </contour>
    <contour>
      <point x="280" y="-27" type="move" name="mark0"/>
    </contour>
  </outline>
</glyph>
<glyph name="U0C1D" format="1">
  <advance width="1354"/>
  <unicode hex="0C1D"/>
  <outline>
    <contour>
      <point x="604" y="137" type="qcurve"/>
      <point x="581" y="118"/>
      <point x="506" y="71"/>
      <point x="422" y="29"/>
      <point x="338" y="0"/>
      <point x="304" y="0" type="qcurve"/>
      <point x="288" y="0"/>
      <point x="230" y="20"/>
      <point x="163" y="54"/>
      <point x="93" y="97"/>
      <point x="36" y="143"/>
      <point x="0" y="189"/>
      <point x="0" y="209" type="qcurve"/>
      <point x="0" y="232"/>
      <point x="41" y="290"/>
      <point x="105" y="349"/>
      <point x="184" y="403"/>
      <point x="259" y="446"/>
      <point x="321" y="472"/>
      <point x="336" y="472" type="qcurve"/>
      <point x="350" y="472"/>
      <point x="371" y="465"/>
      <point x="387" y="454"/>
      <point x="402" y="441"/>
      <point x="411" y="437" type="qcurve"/>
      <point x="396" y="430"/>
      <point x="345" y="409"/>
      <point x="286" y="381"/>
      <point x="223" y="348"/>
      <point x="173" y="312"/>
      <point x="141" y="275"/>
      <point x="141" y="257" type="qcurve"/>
      <point x="141" y="245"/>
      <point x="167" y="216"/>
      <point x="207" y="185"/>
      <point x="255" y="156"/>
      <point x="299" y="133"/>
      <point x="333" y="119"/>
      <point x="339" y="119" type="qcurve"/>
      <point x="344" y="119"/>
      <point x="378" y="124"/>
      <point x="422" y="135"/>
      <point x="472" y="154"/>
      <point x="513" y="181"/>
      <point x="540" y="219"/>
      <point x="540" y="244" type="qcurve"/>
      <point x="540" y="266"/>
      <point x="500" y="316"/>
      <point x="442" y="351"/>
      <point x="382" y="361"/>
      <point x="360" y="343" type="qcurve"/>
      <point x="381" y="346"/>
      <point x="401" y="326"/>
      <point x="401" y="297"/>
      <point x="383" y="272"/>
      <point x="365" y="272" type="qcurve"/>
      <point x="341" y="272"/>
      <point x="302" y="306"/>
      <point x="301" y="355"/>
      <point x="354" y="411"/>
      <point x="424" y="432" type="qcurve"/>
      <point x="454" y="417"/>
      <point x="524" y="378"/>
      <point x="590" y="331"/>
      <point x="641" y="279"/>
      <point x="662" y="223"/>
      <point x="642" y="166"/>
    </contour>
    <contour>
      <point x="945" y="242" type="qcurve"/>
      <point x="945" y="221"/>
      <point x="920" y="169"/>
      <point x="878" y="116"/>
      <point x="825" y="65"/>
      <point x="771" y="25"/>
      <point x="720" y="0"/>
      <point x="700" y="0" type="qcurve"/>
      <point x="674" y="0"/>
      <point x="607" y="24"/>
      <point x="539" y="57"/>
      <point x="476" y="94"/>
      <point x="456" y="106" type="qcurve"/>
      <point x="473" y="127"/>
      <point x="492" y="146" type="qcurve"/>
      <point x="506" y="164"/>
      <point x="540" y="199"/>
      <point x="551" y="213" type="qcurve"/>
      <point x="567" y="207"/>
      <point x="610" y="181"/>
      <point x="654" y="155"/>
      <point x="695" y="135"/>
      <point x="710" y="134" type="qcurve"/>
      <point x="720" y="132"/>
      <point x="762" y="157"/>
      <point x="804" y="193"/>
      <point x="836" y="230"/>
      <point x="836" y="243" type="qcurve"/>
      <point x="835" y="263"/>
      <point x="817" y="310"/>
      <point x="791" y="355"/>
      <point x="759" y="391"/>
      <point x="744" y="401" type="qcurve"/>
      <point x="748" y="373"/>
      <point x="717" y="348"/>
      <point x="678" y="353"/>
      <point x="647" y="386"/>
      <point x="651" y="414" type="qcurve"/>
      <point x="657" y="454"/>
      <point x="706" y="477"/>
      <point x="771" y="459"/>
      <point x="844" y="410"/>
      <point x="905" y="344"/>
      <point x="945" y="272"/>
    </contour>
    <contour>
      <point x="1270" y="242" type="qcurve"/>
      <point x="1270" y="221"/>
      <point x="1244" y="169"/>
      <point x="1202" y="116"/>
      <point x="1150" y="65"/>
      <point x="1096" y="25"/>
      <point x="1044" y="0"/>
      <point x="1025" y="0" type="qcurve"/>
      <point x="998" y="0"/>
      <point x="932" y="24"/>
      <point x="863" y="57"/>
      <point x="801" y="94"/>
      <point x="780" y="106" type="qcurve"/>
      <point x="796" y="127"/>
      <point x="811" y="146" type="qcurve"/>
      <point x="824" y="164"/>
      <point x="852" y="202"/>
      <point x="863" y="219" type="qcurve"/>
      <point x="880" y="213"/>
      <point x="927" y="185"/>
      <point x="976" y="157"/>
      <point x="1020" y="135"/>
      <point x="1034" y="134" type="qcurve"/>
      <point x="1044" y="132"/>
      <point x="1086" y="157"/>
      <point x="1128" y="193"/>
      <point x="1160" y="230"/>
      <point x="1160" y="243" type="qcurve"/>
      <point x="1159" y="263"/>
      <point x="1142" y="310"/>
      <point x="1115" y="355"/>
      <point x="1083" y="391"/>
      <point x="1069" y="401" type="qcurve"/>
      <point x="1072" y="373"/>
      <point x="1041" y="348"/>
      <point x="1002" y="353"/>
      <point x="972" y="386"/>
      <point x="976" y="414" type="qcurve"/>
      <point x="982" y="454"/>
      <point x="1030" y="477"/>
      <point x="1096" y="459"/>
      <point x="1168" y="410"/>
      <point x="1230" y="344"/>
      <point x="1270" y="272"/>
    </contour>
    <contour>
      <point x="519" y="666" type="qcurve"/>
      <point x="507" y="668"/>
      <point x="495" y="689"/>
      <point x="501" y="713"/>
      <point x="529" y="732"/>
      <point x="557" y="732" type="qcurve"/>
      <point x="590" y="732"/>
      <point x="620" y="700"/>
      <point x="620" y="656"/>
      <point x="596" y="608"/>
      <point x="575" y="593" type="qcurve" name="hr01"/>
      <point x="529" y="557"/>
      <point x="422" y="531"/>
      <point x="310" y="517"/>
      <point x="200" y="496"/>
      <point x="150" y="465" type="qcurve"/>
      <point x="160" y="457"/>
      <point x="161" y="437"/>
      <point x="151" y="422"/>
      <point x="131" y="414"/>
      <point x="113" y="417"/>
      <point x="96" y="435"/>
      <point x="94" y="455" type="qcurve"/>
      <point x="90" y="487"/>
      <point x="128" y="537"/>
      <point x="189" y="572"/>
      <point x="264" y="596"/>
      <point x="332" y="611"/>
      <point x="382" y="618"/>
      <point x="387" y="620" type="qcurve"/>
      <point x="415" y="624"/>
      <point x="484" y="635"/>
      <point x="548" y="649"/>
      <point x="570" y="690"/>
      <point x="550" y="701" type="qcurve"/>
      <point x="555" y="687"/>
      <point x="542" y="662"/>
    </contour>
    <contour>
      <point x="935" y="-43" type="qcurve"/>
      <point x="935" y="-54"/>
      <point x="905" y="-80"/>
      <point x="868" y="-100"/>
      <point x="835" y="-114"/>
      <point x="831" y="-114" type="qcurve"/>
      <point x="818" y="-114"/>
      <point x="786" y="-102"/>
      <point x="759" y="-84"/>
      <point x="739" y="-60"/>
      <point x="739" y="-48" type="qcurve"/>
      <point x="739" y="-37"/>
      <point x="770" y="-11"/>
      <point x="808" y="10"/>
      <point x="844" y="25"/>
      <point x="850" y="25" type="qcurve"/>
      <point x="855" y="25"/>
      <point x="869" y="16"/>
      <point x="878" y="11" type="qcurve"/>
      <point x="861" y="12"/>
      <point x="825" y="-11"/>
      <point x="806" y="-39"/>
      <point x="812" y="-62"/>
      <point x="838" y="-62" type="qcurve"/>
      <point x="844" y="-62"/>
      <point x="865" y="-57"/>
      <point x="881" y="-47"/>
      <point x="884" y="-34"/>
      <point x="871" y="-25" type="qcurve"/>
      <point x="868" y="-40"/>
      <point x="853" y="-42"/>
      <point x="840" y="-30"/>
      <point x="836" y="-10"/>
      <point x="844" y="-4" type="qcurve"/>
      <point x="859" y="7"/>
      <point x="892" y="8"/>
      <point x="919" y="-5"/>
      <point x="935" y="-29"/>
    </contour>
  </outline>
</glyph>
<glyph name="U0C21" format="1">
  <advance width="750"/>
  <unicode hex="0C21"/>
  <outline>
    <contour>
      <point x="667" y="148" type="qcurve"/>
      <point x="667" y="128"/>
      <point x="611" y="76"/>
      <point x="537" y="31"/>
      <point x="460" y="0"/>
      <point x="438" y="0" type="qcurve"/>
      <point x="424" y="0"/>
      <point x="390" y="24"/>
      <point x="356" y="56"/>
      <point x="327" y="88"/>
      <point x="317" y="96" type="qcurve"/>
      <point x="312" y="92"/>
      <point x="282" y="61"/>
      <point x="247" y="28"/>
      <point x="216" y="0"/>
      <point x="211" y="0" type="qcurve"/>
      <point x="181" y="0"/>
      <point x="109" y="40"/>
      <point x="44" y="102"/>
      <point x="0" y="178"/>
      <point x="0" y="213" type="qcurve"/>
      <point x="0" y="236"/>
      <point x="39" y="291"/>
      <point x="100" y="348"/>
      <point x="176" y="402"/>
      <point x="250" y="445"/>
      <point x="314" y="471"/>
      <point x="333" y="471" type="qcurve"/>
      <point x="371" y="471"/>
      <point x="436" y="446"/>
      <point x="495" y="411"/>
      <point x="549" y="372"/>
      <point x="577" y="357" type="qcurve"/>
      <point x="526" y="358"/>
      <point x="464" y="328"/>
      <point x="440" y="304" type="qcurve"/>
      <point x="435" y="299"/>
      <point x="421" y="293"/>
      <point x="407" y="293"/>
      <point x="394" y="300"/>
      <point x="391" y="308" type="qcurve"/>
      <point x="388" y="317"/>
      <point x="393" y="324"/>
      <point x="400" y="329"/>
      <point x="406" y="339"/>
      <point x="402" y="351" type="qcurve"/>
      <point x="399" y="361"/>
      <point x="373" y="379"/>
      <point x="342" y="391"/>
      <point x="315" y="398"/>
      <point x="314" y="398" type="qcurve"/>
      <point x="305" y="398"/>
      <point x="268" y="380"/>
      <point x="225" y="350"/>
      <point x="178" y="313"/>
      <point x="141" y="278"/>
      <point x="117" y="246"/>
      <point x="117" y="236" type="qcurve"/>
      <point x="117" y="223"/>
      <point x="145" y="190"/>
      <point x="185" y="160"/>
      <point x="227" y="138"/>
      <point x="240" y="138" type="qcurve"/>
      <point x="250" y="138"/>
      <point x="280" y="159"/>
      <point x="311" y="187"/>
      <point x="340" y="218"/>
      <point x="348" y="228" type="qcurve"/>
      <point x="354" y="219"/>
      <point x="388" y="181"/>
      <point x="430" y="141"/>
      <point x="474" y="112"/>
      <point x="492" y="112" type="qcurve"/>
      <point x="520" y="112"/>
      <point x="534" y="139"/>
      <point x="520" y="173"/>
      <point x="487" y="202"/>
      <point x="471" y="204" type="qcurve"/>
      <point x="473" y="197"/>
      <point x="466" y="187"/>
      <point x="455" y="183"/>
      <point x="443" y="186"/>
      <point x="440" y="191" type="qcurve" name="hr01"/>
      <point x="434" y="203"/>
      <point x="440" y="220"/>
      <point x="445" y="224" type="qcurve"/>
      <point x="464" y="238"/>
      <point x="497" y="245"/>
      <point x="529" y="253"/>
      <point x="566" y="271"/>
      <point x="588" y="295" type="qcurve"/>
      <point x="585" y="274"/>
      <point x="608" y="233"/>
      <point x="640" y="195"/>
      <point x="667" y="161"/>
    </contour>
    <contour>
      <point x="519" y="666" type="qcurve"/>
      <point x="507" y="668"/>
      <point x="495" y="689"/>
      <point x="501" y="713"/>
      <point x="529" y="732"/>
      <point x="557" y="732" type="qcurve"/>
      <point x="590" y="732"/>
      <point x="620" y="700"/>
      <point x="620" y="656"/>
      <point x="596" y="608"/>
      <point x="575" y="593" type="qcurve"/>
      <point x="529" y="557"/>
      <point x="422" y="531"/>
      <point x="310" y="517"/>
      <point x="200" y="496"/>
      <point x="150" y="465" type="qcurve" name="hr02"/>
      <point x="160" y="457"/>
      <point x="161" y="437"/>
      <point x="151" y="422"/>
      <point x="131" y="414"/>
      <point x="113" y="417"/>
      <point x="96" y="435"/>
      <point x="94" y="455" type="qcurve"/>
      <point x="90" y="487"/>
      <point x="128" y="537"/>
      <point x="189" y="572"/>
      <point x="264" y="596"/>
      <point x="332" y="611"/>
      <point x="382" y="618"/>
      <point x="387" y="620" type="qcurve"/>
      <point x="415" y="624"/>
      <point x="484" y="635"/>
      <point x="548" y="649"/>
      <point x="570" y="690"/>
      <point x="550" y="701" type="qcurve"/>
      <point x="555" y="687"/>
      <point x="542" y="662"/>
    </contour>
  </outline>
</glyph>
<glyph name="U0C24" format="1">
  <advance width="719"/>
  <unicode hex="0C24"/>
  <outline>
    <contour>
      <point x="474" y="417" type="qcurve" name="hr00"/>
      <point x="498" y="394"/>
      <point x="489" y="355" type="qcurve"/>
      <point x="505" y="350"/>
      <point x="548" y="324"/>
      <point x="588" y="284"/>
      <point x="616" y="233"/>
      <point x="616" y="205" type="qcurve"/>
      <point x="616" y="174"/>
      <point x="580" y="120"/>
      <point x="521" y="74"/>
      <point x="449" y="38"/>
      <point x="375" y="13"/>
      <point x="309" y="0"/>
      <point x="287" y="0" type="qcurve"/>
      <point x="262" y="0"/>
      <point x="201" y="18"/>
      <point x="137" y="50"/>
      <point x="77" y="92"/>
      <point x="30" y="141"/>
      <point x="1" y="195"/>
      <point x="1" y="220" type="qcurve"/>
      <point x="1" y="261"/>
      <point x="35" y="319"/>
      <point x="84" y="354"/>
      <point x="140" y="371"/>
      <point x="162" y="371" type="qcurve"/>
      <point x="187" y="371"/>
      <point x="226" y="352"/>
      <point x="253" y="324"/>
      <point x="267" y="288"/>
      <point x="267" y="269" type="qcurve"/>
      <point x="267" y="253"/>
      <point x="252" y="217"/>
      <point x="224" y="191"/>
      <point x="188" y="180"/>
      <point x="170" y="187" type="qcurve"/>
      <point x="134" y="202"/>
      <point x="114" y="239"/>
      <point x="117" y="262" type="qcurve"/>
      <point x="119" y="275"/>
      <point x="138" y="302"/>
      <point x="166" y="315"/>
      <point x="196" y="308"/>
      <point x="208" y="289" type="qcurve"/>
      <point x="194" y="310"/>
      <point x="157" y="321"/>
      <point x="123" y="305"/>
      <point x="99" y="272"/>
      <point x="96" y="228"/>
      <point x="122" y="181"/>
      <point x="154" y="160" type="qcurve"/>
      <point x="181" y="141"/>
      <point x="252" y="120"/>
      <point x="309" y="120" type="qcurve"/>
      <point x="337" y="120"/>
      <point x="407" y="134"/>
      <point x="468" y="160"/>
      <point x="513" y="197"/>
      <point x="517" y="220" type="qcurve"/>
      <point x="522" y="253"/>
      <point x="488" y="298"/>
      <point x="453" y="315" type="qcurve"/>
      <point x="422" y="325"/>
      <point x="386" y="314"/>
      <point x="374" y="293"/>
      <point x="380" y="270"/>
      <point x="401" y="263"/>
      <point x="435" y="281"/>
      <point x="456" y="311" type="qcurve"/>
      <point x="482" y="281"/>
      <point x="485" y="227"/>
      <point x="455" y="190"/>
      <point x="402" y="172"/>
      <point x="348" y="181"/>
      <point x="302" y="221"/>
      <point x="293" y="261" type="qcurve"/>
      <point x="287" y="287"/>
      <point x="302" y="330"/>
      <point x="334" y="358"/>
      <point x="374" y="374"/>
      <point x="392" y="374" type="qcurve"/>
      <point x="392" y="375"/>
      <point x="384" y="386"/>
      <point x="365" y="400"/>
      <point x="331" y="412"/>
      <point x="304" y="413" type="qcurve"/>
      <point x="252" y="416"/>
      <point x="176" y="426"/>
      <point x="146" y="458"/>
      <point x="146" y="480" type="qcurve"/>
      <point x="151" y="521"/>
      <point x="242" y="571"/>
      <point x="316" y="595"/>
      <point x="384" y="610"/>
      <point x="434" y="617"/>
      <point x="439" y="618" type="qcurve"/>
      <point x="467" y="623"/>
      <point x="537" y="634"/>
      <point x="600" y="648"/>
      <point x="623" y="689"/>
      <point x="602" y="700" type="qcurve"/>
      <point x="607" y="686"/>
      <point x="594" y="660"/>
      <point x="571" y="665" type="qcurve"/>
      <point x="559" y="667"/>
      <point x="547" y="688"/>
      <point x="553" y="712"/>
      <point x="582" y="731"/>
      <point x="609" y="731" type="qcurve"/>
      <point x="642" y="731"/>
      <point x="672" y="699"/>
      <point x="672" y="655"/>
      <point x="648" y="607"/>
      <point x="628" y="592" type="qcurve"/>
      <point x="582" y="556"/>
      <point x="474" y="530"/>
      <point x="362" y="516"/>
      <point x="236" y="496"/>
      <point x="244" y="474" type="qcurve"/>
      <point x="265" y="465"/>
      <point x="354" y="472"/>
      <point x="443" y="451"/>
    </contour>
    <contour>
      <point x="317" y="-28" type="move" name="mark0"/>
    </contour>
    <contour>
      <point x="366" y="-30" type="move" name="mark0"/>
    </contour>
  </outline>
</glyph>
<glyph name="U0C26" format="1">
  <advance width="711"/>
  <unicode hex="0C26"/>
  <outline>
    <contour>
      <point x="199" y="141" type="qcurve" name="hr00"/>
      <point x="293" y="232" type="line"/>
      <point x="303" y="221"/>
      <point x="341" y="183"/>
      <point x="381" y="146"/>
      <point x="416" y="121"/>
      <point x="423" y="123" type="qcurve"/>
      <point x="445" y="131"/>
      <point x="482" y="156"/>
      <point x="508" y="184"/>
      <point x="519" y="213"/>
      <point x="518" y="224" type="qcurve"/>
      <point x="514" y="257"/>
      <point x="479" y="323"/>
      <point x="434" y="371"/>
      <point x="386" y="392"/>
      <point x="370" y="382" type="qcurve"/>
      <point x="385" y="388"/>
      <point x="406" y="375"/>
      <point x="412" y="352"/>
      <point x="400" y="326"/>
      <point x="382" y="318" type="qcurve"/>
      <point x="356" y="313"/>
      <point x="325" y="333"/>
      <point x="309" y="365"/>
      <point x="309" y="399"/>
      <point x="315" y="410" type="qcurve"/>
      <point x="324" y="425"/>
      <point x="352" y="441"/>
      <point x="380" y="447"/>
      <point x="402" y="447"/>
      <point x="406" y="447" type="qcurve"/>
      <point x="441" y="446"/>
      <point x="520" y="398"/>
      <point x="586" y="329"/>
      <point x="629" y="252"/>
      <point x="629" y="222" type="qcurve"/>
      <point x="629" y="183"/>
      <point x="581" y="102"/>
      <point x="513" y="37"/>
      <point x="442" y="-3"/>
      <point x="420" y="-2" type="qcurve"/>
      <point x="402" y="-1"/>
      <point x="361" y="19"/>
      <point x="318" y="48"/>
      <point x="280" y="81"/>
      <point x="264" y="93" type="qcurve"/>
      <point x="245" y="68"/>
      <point x="189" y="27"/>
      <point x="171" y="0" type="qcurve"/>
      <point x="168" y="0"/>
      <point x="114" y="40"/>
      <point x="51" y="102"/>
      <point x="0" y="177"/>
      <point x="0" y="212" type="qcurve"/>
      <point x="0" y="238"/>
      <point x="37" y="296"/>
      <point x="93" y="353"/>
      <point x="163" y="407"/>
      <point x="227" y="446"/>
      <point x="280" y="470"/>
      <point x="292" y="470" type="qcurve"/>
      <point x="305" y="470"/>
      <point x="326" y="462"/>
      <point x="340" y="453"/>
      <point x="349" y="444"/>
      <point x="352" y="444" type="qcurve"/>
      <point x="340" y="444"/>
      <point x="322" y="434"/>
      <point x="315" y="428" type="qcurve"/>
      <point x="308" y="421"/>
      <point x="304" y="413" type="qcurve"/>
      <point x="292" y="406"/>
      <point x="239" y="376"/>
      <point x="182" y="335"/>
      <point x="135" y="285"/>
      <point x="120" y="229"/>
      <point x="150" y="171"/>
    </contour>
    <contour>
      <point x="509" y="666" type="qcurve"/>
      <point x="497" y="668"/>
      <point x="484" y="689"/>
      <point x="490" y="713"/>
      <point x="519" y="732"/>
      <point x="547" y="732" type="qcurve"/>
      <point x="580" y="732"/>
      <point x="609" y="700"/>
      <point x="609" y="656"/>
      <point x="586" y="608"/>
      <point x="565" y="593" type="qcurve"/>
      <point x="519" y="557"/>
      <point x="412" y="531"/>
      <point x="300" y="517"/>
      <point x="189" y="496"/>
      <point x="139" y="465" type="qcurve"/>
      <point x="150" y="457"/>
      <point x="151" y="437"/>
      <point x="140" y="422"/>
      <point x="121" y="414"/>
      <point x="102" y="417"/>
      <point x="86" y="435"/>
      <point x="84" y="455" type="qcurve"/>
      <point x="80" y="487"/>
      <point x="118" y="537"/>
      <point x="179" y="572"/>
      <point x="254" y="596"/>
      <point x="322" y="611"/>
      <point x="372" y="618"/>
      <point x="377" y="620" type="qcurve"/>
      <point x="404" y="624"/>
      <point x="474" y="635"/>
      <point x="538" y="649"/>
      <point x="560" y="690"/>
      <point x="540" y="701" type="qcurve"/>
      <point x="545" y="687"/>
      <point x="531" y="662"/>
    </contour>
  </outline>
</glyph>
<glyph name="U0C28" format="1">
  <advance width="740"/>
  <unicode hex="0C28"/>
  <outline>
    <contour>
      <point x="214" y="375" type="qcurve" name="hr00"/>
      <point x="188" y="385"/>
      <point x="132" y="421"/>
      <point x="96" y="459"/>
      <point x="96" y="481" type="qcurve"/>
      <point x="100" y="522"/>
      <point x="191" y="572"/>
      <point x="266" y="596"/>
      <point x="334" y="611"/>
      <point x="384" y="618"/>
      <point x="389" y="620" type="qcurve"/>
      <point x="417" y="624"/>
      <point x="486" y="635"/>
      <point x="550" y="649"/>
      <point x="572" y="690"/>
      <point x="552" y="701" type="qcurve"/>
      <point x="557" y="687"/>
      <point x="544" y="662"/>
      <point x="521" y="666" type="qcurve"/>
      <point x="509" y="668"/>
      <point x="497" y="689"/>
      <point x="503" y="713"/>
      <point x="531" y="732"/>
      <point x="559" y="732" type="qcurve"/>
      <point x="592" y="732"/>
      <point x="622" y="700"/>
      <point x="622" y="656"/>
      <point x="598" y="608"/>
      <point x="578" y="593" type="qcurve"/>
      <point x="531" y="557"/>
      <point x="424" y="531"/>
      <point x="312" y="517"/>
      <point x="176" y="496"/>
      <point x="199" y="470" type="qcurve"/>
      <point x="216" y="457"/>
      <point x="259" y="441" type="qcurve"/>
      <point x="266" y="439"/>
      <point x="275" y="436" type="qcurve"/>
      <point x="300" y="429"/>
      <point x="386" y="400"/>
      <point x="438" y="385"/>
      <point x="525" y="348"/>
      <point x="602" y="306"/>
      <point x="660" y="249"/>
      <point x="658" y="218" type="qcurve"/>
      <point x="658" y="182"/>
      <point x="627" y="123"/>
      <point x="577" y="75"/>
      <point x="516" y="38"/>
      <point x="458" y="13"/>
      <point x="410" y="1"/>
      <point x="397" y="1" type="qcurve"/>
      <point x="376" y="1"/>
      <point x="316" y="30"/>
      <point x="253" y="70"/>
      <point x="190" y="115"/>
      <point x="165" y="132" type="qcurve"/>
      <point x="146" y="126"/>
      <point x="127" y="81"/>
      <point x="132" y="32"/>
      <point x="163" y="-8"/>
      <point x="195" y="-10" type="qcurve"/>
      <point x="194" y="2"/>
      <point x="216" y="14"/>
      <point x="240" y="11"/>
      <point x="251" y="-11"/>
      <point x="239" y="-34" type="qcurve"/>
      <point x="221" y="-65"/>
      <point x="173" y="-78"/>
      <point x="127" y="-80"/>
      <point x="92" y="-89"/>
      <point x="89" y="-116" type="qcurve"/>
      <point x="74" y="-109"/>
      <point x="42" y="-78"/>
      <point x="15" y="-40"/>
      <point x="0" y="2"/>
      <point x="0" y="19" type="qcurve"/>
      <point x="1" y="79"/>
      <point x="46" y="163"/>
      <point x="118" y="218"/>
      <point x="209" y="246"/>
      <point x="257" y="249" type="qcurve"/>
      <point x="266" y="228"/>
      <point x="299" y="184"/>
      <point x="342" y="147"/>
      <point x="388" y="116"/>
      <point x="423" y="112" type="qcurve"/>
      <point x="458" y="117"/>
      <point x="532" y="168"/>
      <point x="550" y="213" type="qcurve"/>
      <point x="559" y="234"/>
      <point x="525" y="264"/>
      <point x="478" y="285"/>
      <point x="386" y="318"/>
      <point x="266" y="353"/>
    </contour>
  </outline>
</glyph>
<glyph name="U0C2C" format="1">
  <advance width="689"/>
  <unicode hex="0C2C"/>
  <outline>
    <contour>
      <point x="380" y="426" type="qcurve" name="hr00"/>
      <point x="371" y="412"/>
      <point x="347" y="413"/>
      <point x="332" y="430"/>
      <point x="331" y="455"/>
      <point x="344" y="463" type="qcurve"/>
      <point x="359" y="473"/>
      <point x="393" y="471"/>
      <point x="428" y="465"/>
      <point x="466" y="462"/>
      <point x="485" y="471" type="qcurve"/>
      <point x="508" y="450"/>
      <point x="552" y="383"/>
      <point x="586" y="312"/>
      <point x="606" y="246"/>
      <point x="606" y="222" type="qcurve"/>
      <point x="606" y="200"/>
      <point x="562" y="125"/>
      <point x="499" y="52"/>
      <point x="428" y="0"/>
      <point x="400" y="0" type="qcurve"/>
      <point x="391" y="0"/>
      <point x="355" y="20"/>
      <point x="317" y="47"/>
      <point x="284" y="74"/>
      <point x="276" y="80" type="qcurve"/>
      <point x="261" y="68"/>
      <point x="229" y="40"/>
      <point x="202" y="15"/>
      <point x="183" y="0"/>
      <point x="181" y="0" type="qcurve"/>
      <point x="159" y="0"/>
      <point x="96" y="40"/>
      <point x="39" y="98"/>
      <point x="-1" y="162"/>
      <point x="-1" y="186" type="qcurve"/>
      <point x="-1" y="199"/>
      <point x="26" y="225"/>
      <point x="65" y="251"/>
      <point x="111" y="275"/>
      <point x="150" y="298"/>
      <point x="174" y="316"/>
      <point x="173" y="323" type="qcurve"/>
      <point x="165" y="340"/>
      <point x="135" y="364"/>
      <point x="102" y="371"/>
      <point x="74" y="360"/>
      <point x="69" y="344" type="qcurve"/>
      <point x="79" y="341"/>
      <point x="85" y="328"/>
      <point x="81" y="314"/>
      <point x="69" y="306"/>
      <point x="59" y="307" type="qcurve"/>
      <point x="46" y="308"/>
      <point x="27" y="334"/>
      <point x="7" y="362"/>
      <point x="-14" y="388"/>
      <point x="-30" y="390" type="qcurve"/>
      <point x="10" y="410"/>
      <point x="54" y="440"/>
      <point x="85" y="462"/>
      <point x="113" y="474"/>
      <point x="137" y="474" type="qcurve"/>
      <point x="166" y="474"/>
      <point x="216" y="453"/>
      <point x="255" y="420"/>
      <point x="283" y="381"/>
      <point x="296" y="344"/>
      <point x="295" y="316"/>
      <point x="287" y="311" type="qcurve"/>
      <point x="258" y="294"/>
      <point x="197" y="261"/>
      <point x="146" y="228"/>
      <point x="115" y="197"/>
      <point x="116" y="167"/>
      <point x="157" y="139"/>
      <point x="206" y="127" type="qcurve"/>
      <point x="211" y="125"/>
      <point x="243" y="155"/>
      <point x="279" y="191"/>
      <point x="307" y="224"/>
      <point x="308" y="226" type="qcurve"/>
      <point x="311" y="224"/>
      <point x="341" y="198"/>
      <point x="377" y="167"/>
      <point x="408" y="141"/>
      <point x="413" y="141" type="qcurve"/>
      <point x="419" y="141"/>
      <point x="447" y="161"/>
      <point x="478" y="188"/>
      <point x="502" y="218"/>
      <point x="501" y="228" type="qcurve"/>
      <point x="499" y="256"/>
      <point x="469" y="313"/>
      <point x="429" y="366"/>
      <point x="390" y="411"/>
    </contour>
  </outline>
</glyph>
<glyph name="U0C2D" format="1">
  <advance width="707"/>
  <unicode hex="0C2D"/>
  <outline>
    <contour>
      <point x="126" y="193" type="qcurve" name="hr00"/>
      <point x="127" y="170"/>
      <point x="166" y="140"/>
      <point x="215" y="128" type="qcurve"/>
      <point x="220" y="126"/>
      <point x="253" y="156"/>
      <point x="288" y="194"/>
      <point x="316" y="227"/>
      <point x="318" y="229" type="qcurve"/>
      <point x="322" y="227"/>
      <point x="351" y="200"/>
      <point x="388" y="169"/>
      <point x="420" y="143"/>
      <point x="425" y="143" type="qcurve"/>
      <point x="431" y="143"/>
      <point x="462" y="163"/>
      <point x="494" y="190"/>
      <point x="517" y="220"/>
      <point x="516" y="230" type="qcurve"/>
      <point x="514" y="255"/>
      <point x="478" y="303"/>
      <point x="427" y="348"/>
      <point x="397" y="369" type="qcurve"/>
      <point x="381" y="380" type="line"/>
      <point x="319" y="421"/>
      <point x="284" y="459"/>
      <point x="284" y="481" type="qcurve"/>
      <point x="288" y="522"/>
      <point x="379" y="572"/>
      <point x="454" y="596"/>
      <point x="521" y="611"/>
      <point x="571" y="618"/>
      <point x="577" y="620" type="qcurve"/>
      <point x="604" y="624"/>
      <point x="674" y="635"/>
      <point x="737" y="649"/>
      <point x="760" y="690"/>
      <point x="739" y="701" type="qcurve"/>
      <point x="744" y="687"/>
      <point x="731" y="662"/>
      <point x="709" y="666" type="qcurve"/>
      <point x="696" y="668"/>
      <point x="684" y="689"/>
      <point x="690" y="713"/>
      <point x="719" y="732"/>
      <point x="746" y="732" type="qcurve"/>
      <point x="779" y="732"/>
      <point x="809" y="700"/>
      <point x="809" y="656"/>
      <point x="785" y="608"/>
      <point x="765" y="593" type="qcurve"/>
      <point x="719" y="557"/>
      <point x="611" y="531"/>
      <point x="500" y="517"/>
      <point x="364" y="496"/>
      <point x="386" y="470" type="qcurve"/>
      <point x="403" y="457"/>
      <point x="428" y="438" type="qcurve"/>
      <point x="451" y="422"/>
      <point x="473" y="404" type="qcurve"/>
      <point x="505" y="380"/>
      <point x="555" y="332"/>
      <point x="597" y="287"/>
      <point x="624" y="241"/>
      <point x="624" y="225" type="qcurve"/>
      <point x="624" y="210"/>
      <point x="598" y="165"/>
      <point x="558" y="115"/>
      <point x="509" y="65"/>
      <point x="462" y="25"/>
      <point x="423" y="0"/>
      <point x="413" y="0" type="qcurve"/>
      <point x="403" y="0"/>
      <point x="367" y="20"/>
      <point x="327" y="47"/>
      <point x="293" y="75"/>
      <point x="286" y="81" type="qcurve"/>
      <point x="270" y="69"/>
      <point x="238" y="40"/>
      <point x="209" y="16"/>
      <point x="189" y="0"/>
      <point x="188" y="0" type="qcurve"/>
      <point x="179" y="0"/>
      <point x="119" y="41"/>
      <point x="52" y="99"/>
      <point x="26" y="131" type="qcurve"/>
      <point x="1" y="162"/>
      <point x="0" y="186" type="qcurve"/>
      <point x="0" y="187"/>
      <point x="0" y="188" type="qcurve"/>
      <point x="0" y="185"/>
      <point x="0" y="186" type="qcurve"/>
      <point x="0" y="199"/>
      <point x="27" y="225"/>
      <point x="66" y="251"/>
      <point x="112" y="275"/>
      <point x="151" y="298"/>
      <point x="175" y="316"/>
      <point x="174" y="323" type="qcurve"/>
      <point x="166" y="340"/>
      <point x="136" y="364"/>
      <point x="103" y="371"/>
      <point x="75" y="360"/>
      <point x="70" y="344" type="qcurve"/>
      <point x="80" y="341"/>
      <point x="86" y="328"/>
      <point x="82" y="314"/>
      <point x="70" y="306"/>
      <point x="60" y="307" type="qcurve"/>
      <point x="47" y="308"/>
      <point x="28" y="334"/>
      <point x="8" y="362"/>
      <point x="-13" y="388"/>
      <point x="-29" y="390" type="qcurve"/>
      <point x="11" y="410"/>
      <point x="55" y="440"/>
      <point x="86" y="462"/>
      <point x="114" y="474"/>
      <point x="138" y="474" type="qcurve"/>
      <point x="167" y="474"/>
      <point x="217" y="453"/>
      <point x="256" y="420"/>
      <point x="284" y="381"/>
      <point x="297" y="344"/>
      <point x="296" y="316"/>
      <point x="288" y="311" type="qcurve"/>
      <point x="259" y="294"/>
      <point x="198" y="261"/>
      <point x="128" y="219"/>
    </contour>
    <contour>
      <point x="380" y="-43" type="qcurve"/>
      <point x="380" y="-54"/>
      <point x="350" y="-80"/>
      <point x="313" y="-100"/>
      <point x="280" y="-114"/>
      <point x="276" y="-114" type="qcurve"/>
      <point x="263" y="-114"/>
      <point x="231" y="-102"/>
      <point x="204" y="-84"/>
      <point x="184" y="-60"/>
      <point x="184" y="-48" type="qcurve"/>
      <point x="184" y="-37"/>
      <point x="215" y="-11"/>
      <point x="253" y="10"/>
      <point x="289" y="25"/>
      <point x="295" y="25" type="qcurve"/>
      <point x="300" y="25"/>
      <point x="314" y="16"/>
      <point x="323" y="11" type="qcurve"/>
      <point x="306" y="12"/>
      <point x="270" y="-11"/>
      <point x="251" y="-39"/>
      <point x="257" y="-62"/>
      <point x="283" y="-62" type="qcurve"/>
      <point x="289" y="-62"/>
      <point x="310" y="-57"/>
      <point x="326" y="-47"/>
      <point x="329" y="-34"/>
      <point x="316" y="-25" type="qcurve"/>
      <point x="313" y="-40"/>
      <point x="298" y="-42"/>
      <point x="285" y="-30"/>
      <point x="281" y="-10"/>
      <point x="289" y="-4" type="qcurve"/>
      <point x="304" y="7"/>
      <point x="337" y="8"/>
      <point x="364" y="-5"/>
      <point x="380" y="-29"/>
    </contour>
  </outline>
</glyph>
<glyph name="U0C2E" format="1">
  <advance width="1103"/>
  <unicode hex="0C2E"/>
  <outline>
    <contour>
      <point x="1020" y="242" type="qcurve"/>
      <point x="1020" y="221"/>
      <point x="994" y="169"/>
      <point x="952" y="116"/>
      <point x="900" y="65" name="hr02"/>
      <point x="846" y="25"/>
      <point x="795" y="0"/>
      <point x="775" y="0" type="qcurve"/>
      <point x="749" y="0"/>
      <point x="682" y="24"/>
      <point x="613" y="57"/>
      <point x="551" y="94"/>
      <point x="530" y="106" type="qcurve"/>
      <point x="540" y="130"/>
      <point x="550" y="153" type="qcurve"/>
      <point x="558" y="172"/>
      <point x="580" y="214"/>
      <point x="591" y="231" type="qcurve"/>
      <point x="606" y="223"/>
      <point x="660" y="191"/>
      <point x="719" y="160"/>
      <point x="770" y="135"/>
      <point x="784" y="134" type="qcurve"/>
      <point x="795" y="132"/>
      <point x="840" y="157"/>
      <point x="886" y="193"/>
      <point x="920" y="230"/>
      <point x="920" y="243" type="qcurve"/>
      <point x="919" y="263"/>
      <point x="898" y="310"/>
      <point x="868" y="348"/>
      <point x="834" y="384"/>
      <point x="819" y="394" type="qcurve"/>
      <point x="822" y="366"/>
      <point x="792" y="341"/>
      <point x="753" y="346"/>
      <point x="722" y="379"/>
      <point x="726" y="407" type="qcurve"/>
      <point x="732" y="446"/>
      <point x="780" y="470"/>
      <point x="846" y="452"/>
      <point x="919" y="410"/>
      <point x="980" y="344"/>
      <point x="1020" y="272"/>
    </contour>
    <contour>
      <point x="93" y="478" type="qcurve"/>
      <point x="96" y="524"/>
      <point x="187" y="574"/>
      <point x="262" y="598"/>
      <point x="330" y="613"/>
      <point x="380" y="621"/>
      <point x="385" y="622" type="qcurve"/>
      <point x="413" y="626"/>
      <point x="482" y="637"/>
      <point x="546" y="651"/>
      <point x="568" y="692"/>
      <point x="548" y="703" type="qcurve"/>
      <point x="553" y="689"/>
      <point x="540" y="664"/>
      <point x="517" y="668" type="qcurve"/>
      <point x="505" y="670"/>
      <point x="493" y="691"/>
      <point x="499" y="715"/>
      <point x="527" y="734"/>
      <point x="555" y="734" type="qcurve"/>
      <point x="588" y="734"/>
      <point x="617" y="702"/>
      <point x="617" y="658"/>
      <point x="594" y="610"/>
      <point x="573" y="595" type="qcurve"/>
      <point x="527" y="559"/>
      <point x="420" y="534"/>
      <point x="308" y="519"/>
      <point x="167" y="492"/>
      <point x="195" y="465" type="qcurve"/>
      <point x="195" y="467"/>
      <point x="231" y="450"/>
      <point x="292" y="428"/>
      <point x="370" y="401"/>
      <point x="451" y="378"/>
      <point x="539" y="340"/>
      <point x="602" y="301"/>
      <point x="653" y="251"/>
      <point x="657" y="225" type="qcurve" name="hr01"/>
      <point x="659" y="199"/>
      <point x="644" y="154"/>
      <point x="618" y="113"/>
      <point x="592" y="80"/>
      <point x="586" y="73" type="qcurve"/>
      <point x="558" y="42"/>
      <point x="492" y="-2"/>
      <point x="458" y="-2" type="qcurve"/>
      <point x="450" y="-2"/>
      <point x="407" y="17"/>
      <point x="383" y="30" type="qcurve"/>
      <point x="357" y="43"/>
      <point x="326" y="62" type="qcurve"/>
      <point x="324" y="62"/>
      <point x="296" y="45"/>
      <point x="258" y="24"/>
      <point x="213" y="2"/>
      <point x="193" y="-2" type="qcurve"/>
      <point x="183" y="1"/>
      <point x="148" y="11"/>
      <point x="105" y="29"/>
      <point x="60" y="53"/>
      <point x="24" y="87"/>
      <point x="-1" y="128"/>
      <point x="-1" y="153" type="qcurve"/>
      <point x="-1" y="168"/>
      <point x="23" y="203"/>
      <point x="58" y="237"/>
      <point x="102" y="267"/>
      <point x="133" y="290"/>
      <point x="171" y="308"/>
      <point x="176" y="308" type="qcurve"/>
      <point x="188" y="308"/>
      <point x="223" y="294"/>
      <point x="248" y="283"/>
      <point x="250" y="279" type="qcurve"/>
      <point x="240" y="282"/>
      <point x="215" y="278"/>
      <point x="193" y="268"/>
      <point x="176" y="255"/>
      <point x="175" y="251" type="qcurve"/>
      <point x="170" y="248"/>
      <point x="148" y="244"/>
      <point x="126" y="232"/>
      <point x="109" y="210"/>
      <point x="104" y="188" type="qcurve"/>
      <point x="102" y="173"/>
      <point x="128" y="145"/>
      <point x="167" y="124"/>
      <point x="206" y="112"/>
      <point x="215" y="112" type="qcurve"/>
      <point x="218" y="112"/>
      <point x="240" y="122"/>
      <point x="265" y="137"/>
      <point x="286" y="155"/>
      <point x="288" y="163" type="qcurve"/>
      <point x="288" y="172"/>
      <point x="272" y="193"/>
      <point x="252" y="209"/>
      <point x="230" y="219"/>
      <point x="223" y="219" type="qcurve"/>
      <point x="228" y="201"/>
      <point x="206" y="187"/>
      <point x="181" y="197"/>
      <point x="169" y="225"/>
      <point x="185" y="249" type="qcurve"/>
      <point x="215" y="270"/>
      <point x="264" y="273"/>
      <point x="309" y="251"/>
      <point x="350" y="212"/>
      <point x="390" y="175"/>
      <point x="430" y="147"/>
      <point x="453" y="147" type="qcurve"/>
      <point x="503" y="147"/>
      <point x="538" y="180"/>
      <point x="524" y="227"/>
      <point x="470" y="276"/>
      <point x="430" y="294" type="qcurve"/>
      <point x="420" y="298"/>
      <point x="361" y="322"/>
      <point x="285" y="347"/>
      <point x="196" y="380"/>
      <point x="125" y="423"/>
      <point x="98" y="458"/>
    </contour>
  </outline>
</glyph>
<glyph name="U0C2F" format="1">
  <advance width="1336"/>
  <unicode hex="0C2F"/>
  <outline>
    <contour>
      <point x="556" y="465" type="qcurve" name="hr00"/>
      <point x="612" y="439"/>
      <point x="716" y="400"/>
      <point x="803" y="357"/>
      <point x="876" y="303"/>
      <point x="923" y="237"/>
      <point x="923" y="196" type="qcurve"/>
      <point x="923" y="175"/>
      <point x="891" y="129"/>
      <point x="841" y="85"/>
      <point x="778" y="45"/>
      <point x="718" y="15"/>
      <point x="665" y="-1"/>
      <point x="648" y="0" type="qcurve"/>
      <point x="643" y="0"/>
      <point x="598" y="27"/>
      <point x="573" y="43" type="qcurve"/>
      <point x="545" y="61"/>
      <point x="509" y="86" type="qcurve"/>
      <point x="501" y="86"/>
      <point x="461" y="59"/>
      <point x="406" y="27"/>
      <point x="337" y="0"/>
      <point x="299" y="0" type="qcurve"/>
      <point x="280" y="0"/>
      <point x="220" y="23"/>
      <point x="175" y="57"/>
      <point x="118" y="106"/>
      <point x="65" y="158"/>
      <point x="31" y="209"/>
      <point x="31" y="230" type="qcurve"/>
      <point x="31" y="247"/>
      <point x="65" y="296"/>
      <point x="115" y="353"/>
      <point x="178" y="410"/>
      <point x="218" y="443"/>
      <point x="273" y="470"/>
      <point x="289" y="470" type="qcurve"/>
      <point x="314" y="470"/>
      <point x="360" y="458"/>
      <point x="397" y="441"/>
      <point x="424" y="426"/>
      <point x="430" y="423" type="qcurve"/>
      <point x="439" y="418"/>
      <point x="408" y="411"/>
      <point x="358" y="406"/>
      <point x="311" y="403"/>
      <point x="306" y="404" type="qcurve"/>
      <point x="286" y="408"/>
      <point x="231" y="372"/>
      <point x="194" y="336"/>
      <point x="151" y="287"/>
      <point x="151" y="268" type="qcurve"/>
      <point x="151" y="247"/>
      <point x="200" y="196"/>
      <point x="244" y="158"/>
      <point x="315" y="124"/>
      <point x="342" y="124" type="qcurve"/>
      <point x="356" y="124"/>
      <point x="398" y="147"/>
      <point x="438" y="181"/>
      <point x="466" y="220"/>
      <point x="466" y="234" type="qcurve"/>
      <point x="466" y="258"/>
      <point x="439" y="302"/>
      <point x="397" y="333"/>
      <point x="349" y="345"/>
      <point x="328" y="336" type="qcurve"/>
      <point x="340" y="324"/>
      <point x="326" y="303"/>
      <point x="299" y="299"/>
      <point x="273" y="316"/>
      <point x="273" y="341" type="qcurve"/>
      <point x="273" y="354"/>
      <point x="278" y="375"/>
      <point x="287" y="390"/>
      <point x="302" y="404"/>
      <point x="313" y="413" type="qcurve"/>
      <point x="346" y="437"/>
      <point x="408" y="436"/>
      <point x="464" y="402"/>
      <point x="513" y="343"/>
      <point x="555" y="279"/>
      <point x="589" y="216"/>
      <point x="601" y="196" type="qcurve"/>
      <point x="606" y="184"/>
      <point x="627" y="157"/>
      <point x="652" y="134"/>
      <point x="680" y="123"/>
      <point x="692" y="128" type="qcurve"/>
      <point x="698" y="129"/>
      <point x="731" y="147"/>
      <point x="766" y="176"/>
      <point x="794" y="213"/>
      <point x="794" y="233" type="qcurve"/>
      <point x="794" y="257"/>
      <point x="681" y="317" type="qcurve"/>
      <point x="676" y="319"/>
      <point x="639" y="337"/>
      <point x="588" y="361"/>
      <point x="530" y="392"/>
      <point x="483" y="425"/>
      <point x="452" y="457"/>
      <point x="452" y="471" type="qcurve"/>
      <point x="455" y="522"/>
      <point x="546" y="572"/>
      <point x="621" y="596"/>
      <point x="688" y="611"/>
      <point x="738" y="618"/>
      <point x="743" y="620" type="qcurve"/>
      <point x="771" y="624"/>
      <point x="841" y="635"/>
      <point x="904" y="649"/>
      <point x="927" y="690"/>
      <point x="906" y="701" type="qcurve"/>
      <point x="911" y="687"/>
      <point x="898" y="662"/>
      <point x="876" y="666" type="qcurve"/>
      <point x="863" y="668"/>
      <point x="851" y="689"/>
      <point x="857" y="713"/>
      <point x="886" y="732"/>
      <point x="913" y="732" type="qcurve"/>
      <point x="946" y="732"/>
      <point x="976" y="700"/>
      <point x="976" y="656"/>
      <point x="952" y="608"/>
      <point x="932" y="593" type="qcurve"/>
      <point x="886" y="557"/>
      <point x="778" y="531"/>
      <point x="667" y="517"/>
      <point x="524" y="492"/>
    </contour>
    <contour>
      <point x="1257" y="242" type="qcurve"/>
      <point x="1257" y="221"/>
      <point x="1232" y="169"/>
      <point x="1190" y="116"/>
      <point x="1138" y="65"/>
      <point x="1083" y="25"/>
      <point x="1032" y="0"/>
      <point x="1013" y="0" type="qcurve"/>
      <point x="986" y="0"/>
      <point x="920" y="24"/>
      <point x="851" y="57"/>
      <point x="788" y="94"/>
      <point x="768" y="106" type="qcurve"/>
      <point x="783" y="127"/>
      <point x="799" y="146" type="qcurve"/>
      <point x="812" y="164"/>
      <point x="839" y="203"/>
      <point x="850" y="220" type="qcurve"/>
      <point x="865" y="212"/>
      <point x="913" y="184"/>
      <point x="963" y="157"/>
      <point x="1008" y="135"/>
      <point x="1022" y="134" type="qcurve"/>
      <point x="1032" y="132"/>
      <point x="1077" y="157"/>
      <point x="1123" y="193"/>
      <point x="1157" y="230"/>
      <point x="1157" y="243" type="qcurve"/>
      <point x="1156" y="263"/>
      <point x="1136" y="310"/>
      <point x="1106" y="355"/>
      <point x="1071" y="391"/>
      <point x="1057" y="401" type="qcurve"/>
      <point x="1060" y="373"/>
      <point x="1029" y="348"/>
      <point x="990" y="353"/>
      <point x="959" y="386"/>
      <point x="964" y="414" type="qcurve"/>
      <point x="970" y="454"/>
      <point x="1018" y="477"/>
      <point x="1083" y="459"/>
      <point x="1156" y="410"/>
      <point x="1218" y="344"/>
      <point x="1257" y="272"/>
    </contour>
    <contour>
      <point x="621" y="-55" type="move" name="mark0"/>
    </contour>
  </outline>
</glyph>
<glyph name="U0C32" format="1">
  <advance width="720"/>
  <unicode hex="0C32"/>
  <outline>
    <contour>
      <point x="532" y="254" type="qcurve" name="hr00"/>
      <point x="530" y="282"/>
      <point x="507" y="332"/>
      <point x="475" y="376"/>
      <point x="443" y="414"/>
      <point x="433" y="429" type="qcurve"/>
      <point x="424" y="415"/>
      <point x="400" y="416"/>
      <point x="385" y="433"/>
      <point x="384" y="458"/>
      <point x="397" y="466" type="qcurve"/>
      <point x="413" y="476"/>
      <point x="446" y="474"/>
      <point x="481" y="468"/>
      <point x="519" y="465"/>
      <point x="539" y="474" type="qcurve"/>
      <point x="561" y="453"/>
      <point x="598" y="393"/>
      <point x="625" y="332"/>
      <point x="638" y="271"/>
      <point x="638" y="248" type="qcurve"/>
      <point x="638" y="217"/>
      <point x="599" y="158"/>
      <point x="539" y="102"/>
      <point x="466" y="55"/>
      <point x="399" y="19"/>
      <point x="348" y="0"/>
      <point x="339" y="0" type="qcurve"/>
      <point x="321" y="0"/>
      <point x="256" y="19"/>
      <point x="181" y="55"/>
      <point x="103" y="104"/>
      <point x="40" y="163"/>
      <point x="0" y="228"/>
      <point x="0" y="262" type="qcurve"/>
      <point x="0" y="294"/>
      <point x="47" y="369"/>
      <point x="119" y="431"/>
      <point x="204" y="474"/>
      <point x="243" y="475" type="qcurve"/>
      <point x="272" y="476"/>
      <point x="315" y="449"/>
      <point x="343" y="408"/>
      <point x="355" y="364"/>
      <point x="353" y="347" type="qcurve"/>
      <point x="348" y="309"/>
      <point x="312" y="267"/>
      <point x="264" y="250"/>
      <point x="211" y="253"/>
      <point x="164" y="268"/>
      <point x="131" y="291"/>
      <point x="127" y="301" type="qcurve"/>
      <point x="123" y="312"/>
      <point x="122" y="346"/>
      <point x="138" y="375"/>
      <point x="177" y="390"/>
      <point x="213" y="383" type="qcurve"/>
      <point x="205" y="377"/>
      <point x="203" y="358"/>
      <point x="212" y="342"/>
      <point x="229" y="334"/>
      <point x="241" y="337" type="qcurve"/>
      <point x="259" y="343"/>
      <point x="271" y="367"/>
      <point x="265" y="391"/>
      <point x="244" y="413"/>
      <point x="215" y="422"/>
      <point x="184" y="412"/>
      <point x="171" y="393" type="qcurve"/>
      <point x="145" y="390"/>
      <point x="119" y="365"/>
      <point x="112" y="333"/>
      <point x="119" y="301"/>
      <point x="126" y="292" type="qcurve"/>
      <point x="120" y="273"/>
      <point x="141" y="236"/>
      <point x="183" y="200"/>
      <point x="237" y="168"/>
      <point x="287" y="144"/>
      <point x="327" y="131"/>
      <point x="335" y="131" type="qcurve"/>
      <point x="350" y="131"/>
      <point x="411" y="153"/>
      <point x="475" y="187"/>
      <point x="526" y="231"/>
    </contour>
    <contour>
      <point x="300" y="-12" type="move" name="mark0"/>
    </contour>
  </outline>
</glyph>
<glyph name="U0C33" format="1">
  <advance width="595"/>
  <unicode hex="0C33"/>
  <outline>
    <contour>
      <point x="211" y="177" type="qcurve" name="hr00"/>
      <point x="172" y="165"/>
      <point x="175" y="133"/>
      <point x="216" y="104"/>
      <point x="271" y="86"/>
      <point x="285" y="89" type="qcurve"/>
      <point x="328" y="98"/>
      <point x="362" y="122"/>
      <point x="359" y="145"/>
      <point x="328" y="167"/>
      <point x="283" y="180"/>
      <point x="231" y="183"/>
    </contour>
    <contour>
      <point x="337" y="286" type="qcurve"/>
      <point x="367" y="298"/>
      <point x="404" y="341"/>
      <point x="415" y="358" type="qcurve"/>
      <point x="411" y="367"/>
      <point x="381" y="383"/>
      <point x="341" y="400"/>
      <point x="296" y="419"/>
      <point x="257" y="441"/>
      <point x="232" y="469"/>
      <point x="232" y="485" type="qcurve"/>
      <point x="232" y="510"/>
      <point x="280" y="551"/>
      <point x="350" y="586"/>
      <point x="434" y="615"/>
      <point x="507" y="644"/>
      <point x="558" y="672"/>
      <point x="560" y="686" type="qcurve"/>
      <point x="541" y="686"/>
      <point x="528" y="701"/>
      <point x="532" y="719"/>
      <point x="549" y="733"/>
      <point x="570" y="731"/>
      <point x="592" y="707"/>
      <point x="599" y="676" type="qcurve"/>
      <point x="606" y="644"/>
      <point x="575" y="599"/>
      <point x="520" y="567"/>
      <point x="447" y="544"/>
      <point x="378" y="522"/>
      <point x="321" y="499"/>
      <point x="307" y="482" type="qcurve"/>
      <point x="307" y="476"/>
      <point x="337" y="461"/>
      <point x="383" y="444"/>
      <point x="435" y="425"/>
      <point x="481" y="403"/>
      <point x="511" y="380"/>
      <point x="511" y="367" type="qcurve"/>
      <point x="511" y="338"/>
      <point x="479" y="289"/>
      <point x="438" y="253"/>
      <point x="401" y="231"/>
      <point x="397" y="229" type="qcurve"/>
      <point x="401" y="226"/>
      <point x="431" y="212"/>
      <point x="463" y="188"/>
      <point x="487" y="157"/>
      <point x="487" y="138" type="qcurve"/>
      <point x="487" y="115"/>
      <point x="437" y="66"/>
      <point x="366" y="26"/>
      <point x="286" y="0"/>
      <point x="256" y="0" type="qcurve"/>
      <point x="227" y="0"/>
      <point x="151" y="31"/>
      <point x="82" y="75"/>
      <point x="34" y="123"/>
      <point x="34" y="139" type="qcurve"/>
      <point x="34" y="156"/>
      <point x="56" y="187"/>
      <point x="89" y="215"/>
      <point x="125" y="234"/>
      <point x="137" y="239" type="qcurve"/>
      <point x="126" y="238"/>
      <point x="80" y="249"/>
      <point x="34" y="278"/>
      <point x="0" y="323"/>
      <point x="0" y="355" type="qcurve"/>
      <point x="0" y="383"/>
      <point x="25" y="423"/>
      <point x="63" y="449"/>
      <point x="113" y="460"/>
      <point x="138" y="460" type="qcurve"/>
      <point x="178" y="460"/>
      <point x="234" y="420"/>
      <point x="256" y="366"/>
      <point x="236" y="312"/>
      <point x="199" y="298" type="qcurve"/>
      <point x="186" y="293"/>
      <point x="156" y="289"/>
      <point x="128" y="295"/>
      <point x="109" y="314"/>
      <point x="108" y="332" type="qcurve"/>
      <point x="106" y="352"/>
      <point x="127" y="374"/>
      <point x="145" y="374" type="qcurve"/>
      <point x="163" y="374"/>
      <point x="182" y="345"/>
      <point x="184" y="338" type="qcurve"/>
      <point x="195" y="340"/>
      <point x="202" y="360"/>
      <point x="194" y="384"/>
      <point x="169" y="402"/>
      <point x="150" y="402" type="qcurve"/>
      <point x="137" y="402"/>
      <point x="117" y="389"/>
      <point x="101" y="369"/>
      <point x="94" y="344"/>
      <point x="94" y="334" type="qcurve"/>
      <point x="95" y="313"/>
      <point x="126" y="288"/>
      <point x="168" y="279"/>
      <point x="212" y="285"/>
      <point x="227" y="296" type="qcurve"/>
      <point x="252" y="282"/>
      <point x="309" y="278"/>
    </contour>
    <contour>
      <point x="253" y="-27" type="move" name="mark0"/>
    </contour>
  </outline>
</glyph>
<glyph name="U0C35" format="1">
  <advance width="740"/>
  <unicode hex="0C35"/>
  <outline>
    <contour>
      <point x="93" y="478" type="qcurve" name="hr00"/>
      <point x="96" y="524"/>
      <point x="187" y="574"/>
      <point x="262" y="598"/>
      <point x="330" y="613"/>
      <point x="380" y="621"/>
      <point x="385" y="622" type="qcurve"/>
      <point x="413" y="626"/>
      <point x="482" y="637"/>
      <point x="546" y="651"/>
      <point x="568" y="692"/>
      <point x="548" y="703" type="qcurve"/>
      <point x="553" y="689"/>
      <point x="540" y="664"/>
      <point x="517" y="668" type="qcurve"/>
      <point x="505" y="670"/>
      <point x="493" y="691"/>
      <point x="499" y="715"/>
      <point x="527" y="734"/>
      <point x="555" y="734" type="qcurve"/>
      <point x="588" y="734"/>
      <point x="617" y="702"/>
      <point x="617" y="658"/>
      <point x="594" y="610"/>
      <point x="573" y="595" type="qcurve"/>
      <point x="527" y="559"/>
      <point x="420" y="534"/>
      <point x="308" y="519"/>
      <point x="167" y="492"/>
      <point x="195" y="465" type="qcurve"/>
      <point x="195" y="467"/>
      <point x="231" y="450"/>
      <point x="292" y="428"/>
      <point x="370" y="401"/>
      <point x="451" y="378"/>
      <point x="539" y="340"/>
      <point x="602" y="301"/>
      <point x="653" y="251"/>
      <point x="657" y="225" type="qcurve"/>
      <point x="659" y="199"/>
      <point x="644" y="154"/>
      <point x="618" y="113"/>
      <point x="592" y="80"/>
      <point x="586" y="73" type="qcurve"/>
      <point x="558" y="42"/>
      <point x="492" y="-2"/>
      <point x="458" y="-2" type="qcurve"/>
      <point x="450" y="-2"/>
      <point x="407" y="17"/>
      <point x="383" y="30" type="qcurve"/>
      <point x="357" y="43"/>
      <point x="326" y="62" type="qcurve"/>
      <point x="324" y="62"/>
      <point x="296" y="45"/>
      <point x="258" y="24"/>
      <point x="213" y="2"/>
      <point x="193" y="-2" type="qcurve"/>
      <point x="183" y="1"/>
      <point x="148" y="11"/>
      <point x="105" y="29"/>
      <point x="60" y="53"/>
      <point x="24" y="87"/>
      <point x="-1" y="128"/>
      <point x="-1" y="153" type="qcurve"/>
      <point x="-1" y="168"/>
      <point x="23" y="203"/>
      <point x="58" y="237"/>
      <point x="102" y="267"/>
      <point x="133" y="290"/>
      <point x="171" y="308"/>
      <point x="176" y="308" type="qcurve"/>
      <point x="188" y="308"/>
      <point x="223" y="294"/>
      <point x="248" y="283"/>
      <point x="250" y="279" type="qcurve"/>
      <point x="240" y="282"/>
      <point x="215" y="278"/>
      <point x="193" y="268"/>
      <point x="176" y="255"/>
      <point x="175" y="251" type="qcurve"/>
      <point x="170" y="248"/>
      <point x="148" y="244"/>
      <point x="126" y="232"/>
      <point x="109" y="210"/>
      <point x="104" y="188" type="qcurve"/>
      <point x="102" y="173"/>
      <point x="128" y="145"/>
      <point x="167" y="124"/>
      <point x="206" y="112"/>
      <point x="215" y="112" type="qcurve"/>
      <point x="218" y="112"/>
      <point x="240" y="122"/>
      <point x="265" y="137"/>
      <point x="286" y="155"/>
      <point x="288" y="163" type="qcurve"/>
      <point x="288" y="172"/>
      <point x="272" y="193"/>
      <point x="252" y="209"/>
      <point x="230" y="219"/>
      <point x="223" y="219" type="qcurve"/>
      <point x="228" y="201"/>
      <point x="206" y="187"/>
      <point x="181" y="197"/>
      <point x="169" y="225"/>
      <point x="185" y="249" type="qcurve"/>
      <point x="215" y="270"/>
      <point x="264" y="273"/>
      <point x="309" y="251"/>
      <point x="350" y="212"/>
      <point x="390" y="175"/>
      <point x="430" y="147"/>
      <point x="453" y="147" type="qcurve"/>
      <point x="503" y="147"/>
      <point x="538" y="180"/>
      <point x="524" y="227"/>
      <point x="470" y="276"/>
      <point x="430" y="294" type="qcurve"/>
      <point x="420" y="298"/>
      <point x="361" y="322"/>
      <point x="285" y="347"/>
      <point x="196" y="380"/>
      <point x="125" y="423"/>
      <point x="98" y="458"/>
    </contour>
    <contour>
      <point x="300" y="-34" type="move" name="mark0"/>
    </contour>
    <contour>
      <point x="280" y="-2" type="move" name="mark0"/>
    </contour>
  </outline>
</glyph>
<glyph name="U0C36" format="1">
  <advance width="787"/>
  <unicode hex="0C36"/>
  <outline>
    <contour>
      <point x="365" y="474" type="qcurve" name="hr00"/>
      <point x="387" y="467"/>
      <point x="473" y="457"/>
      <point x="564" y="441"/>
      <point x="645" y="417"/>
      <point x="680" y="377"/>
      <point x="653" y="317"/>
      <point x="591" y="274" type="qcurve"/>
      <point x="601" y="263"/>
      <point x="640" y="243"/>
      <point x="677" y="218"/>
      <point x="705" y="186"/>
      <point x="705" y="163" type="qcurve"/>
      <point x="705" y="130"/>
      <point x="650" y="72"/>
      <point x="580" y="27"/>
      <point x="512" y="0"/>
      <point x="498" y="0" type="qcurve"/>
      <point x="492" y="-1"/>
      <point x="457" y="13"/>
      <point x="411" y="38"/>
      <point x="359" y="71"/>
      <point x="317" y="109"/>
      <point x="289" y="150"/>
      <point x="288" y="169" type="qcurve"/>
      <point x="287" y="185"/>
      <point x="306" y="207"/>
      <point x="338" y="225"/>
      <point x="377" y="245"/>
      <point x="396" y="257" type="qcurve"/>
      <point x="393" y="260"/>
      <point x="358" y="274"/>
      <point x="311" y="290"/>
      <point x="260" y="302"/>
      <point x="241" y="302" type="qcurve"/>
      <point x="232" y="302"/>
      <point x="195" y="286"/>
      <point x="156" y="262"/>
      <point x="126" y="237"/>
      <point x="125" y="227" type="qcurve"/>
      <point x="124" y="214"/>
      <point x="154" y="171"/>
      <point x="196" y="130"/>
      <point x="239" y="100"/>
      <point x="251" y="100" type="qcurve"/>
      <point x="248" y="106"/>
      <point x="257" y="119"/>
      <point x="270" y="125"/>
      <point x="287" y="122"/>
      <point x="292" y="113" type="qcurve"/>
      <point x="298" y="100"/>
      <point x="287" y="81"/>
      <point x="260" y="65"/>
      <point x="224" y="48"/>
      <point x="190" y="32"/>
      <point x="162" y="11"/>
      <point x="157" y="-2" type="qcurve"/>
      <point x="137" y="13"/>
      <point x="84" y="55"/>
      <point x="35" y="104"/>
      <point x="0" y="160"/>
      <point x="0" y="188" type="qcurve"/>
      <point x="0" y="206"/>
      <point x="31" y="245"/>
      <point x="78" y="283"/>
      <point x="135" y="316"/>
      <point x="189" y="341"/>
      <point x="231" y="356"/>
      <point x="241" y="356" type="qcurve"/>
      <point x="253" y="356"/>
      <point x="307" y="343"/>
      <point x="375" y="326"/>
      <point x="446" y="310"/>
      <point x="507" y="305"/>
      <point x="548" y="315"/>
      <point x="550" y="334" type="qcurve"/>
      <point x="552" y="357"/>
      <point x="509" y="386"/>
      <point x="441" y="406"/>
      <point x="360" y="418"/>
      <point x="291" y="433"/>
      <point x="244" y="456"/>
      <point x="244" y="474" type="qcurve"/>
      <point x="244" y="495"/>
      <point x="306" y="536"/>
      <point x="402" y="575"/>
      <point x="515" y="614"/>
      <point x="615" y="650"/>
      <point x="687" y="683"/>
      <point x="694" y="696" type="qcurve"/>
      <point x="674" y="688"/>
      <point x="655" y="696"/>
      <point x="652" y="714"/>
      <point x="663" y="736"/>
      <point x="682" y="748"/>
      <point x="708" y="743"/>
      <point x="722" y="726" type="qcurve"/>
      <point x="757" y="684"/>
      <point x="737" y="623"/>
      <point x="667" y="574"/>
      <point x="562" y="540"/>
      <point x="460" y="512"/>
      <point x="378" y="487"/>
    </contour>
    <contour>
      <point x="582" y="166" type="qcurve"/>
      <point x="582" y="178"/>
      <point x="553" y="203"/>
      <point x="514" y="221"/>
      <point x="474" y="232"/>
      <point x="464" y="231" type="qcurve"/>
      <point x="462" y="230"/>
      <point x="439" y="218"/>
      <point x="415" y="201"/>
      <point x="394" y="185"/>
      <point x="394" y="181" type="qcurve"/>
      <point x="394" y="172"/>
      <point x="422" y="147"/>
      <point x="464" y="126"/>
      <point x="512" y="112"/>
      <point x="554" y="115"/>
      <point x="582" y="138"/>
    </contour>
    <contour>
      <point x="362" y="-61" type="move" name="mark0"/>
    </contour>
  </outline>
</glyph>
